Hack-BoldItalic.ufo
<glyph name="parenleft" format="1">
  <advance width="1233"/>
  <unicode hex="0028"/>
  <outline>
    <contour>
      <point x="440" y="-270" type="line" name="av01"/>
      <point x="388" y="-161"/>
      <point x="346" y="-49" name="dh01"/>
      <point x="318" y="67" type="curve" smooth="yes"/>
      <point x="291" y="176" name="at01"/>
      <point x="278" y="284"/>
      <point x="278" y="393" type="curve" smooth="yes"/>
      <point x="278" y="592" name="dh02"/>
      <point x="321" y="779"/>
      <point x="408" y="974" type="curve" smooth="yes" name="av02"/>
      <point x="495" y="1169"/>
      <point x="617" y="1354"/>
      <point x="794" y="1554" type="curve"/>
      <point x="1019" y="1554" type="line"/>
      <point x="863" y="1345"/>
      <point x="746" y="1140"/>
      <point x="669" y="941" type="curve" smooth="yes"/>
      <point x="591" y="740"/>
      <point x="552" y="541"/>
      <point x="552" y="346" type="curve" smooth="yes"/>
      <point x="552" y="251"/>
      <point x="561" y="153"/>
      <point x="580" y="50" type="curve" smooth="yes"/>
      <point x="600" y="-58"/>
      <point x="629" y="-165"/>
      <point x="665" y="-270" type="curve"/>
    </contour>
  </outline>
</glyph>
<glyph name="asterisk" format="1">
  <advance width="1233"/>
  <unicode hex="002A"/>
  <outline>
    <contour>
      <point x="230" y="467" type="line" name="hr00"/>
      <point x="470" y="835" type="line"/>
      <point x="109" y="992" type="line"/>
      <point x="155" y="1122" type="line"/>
      <point x="526" y="1000" type="line" name="iv01"/>
      <point x="546" y="1420" type="line" name="at01"/>
      <point x="682" y="1420" type="line"/>
      <point x="702" y="1000" type="line" name="iv02"/>
      <point x="1073" y="1122" type="line"/>
      <point x="1119" y="992" type="line"/>
      <point x="758" y="835" type="line"/>
      <point x="998" y="467" type="line"/>
      <point x="881" y="383" type="line" name="av01"/>
      <point x="614" y="736" type="line" name="iv03"/>
      <point x="347" y="383" type="line" name="av02"/>
    </contour>
  </outline>
</glyph>
<glyph name="semicolon" format="1">
  <advance width="1233"/>
  <unicode hex="003B"/>
  <outline>
    <contour>
      <point x="724" y="698" type="curve" smooth="yes" name="dv01"/>
      <point x="673" y="698"/>
      <point x="629" y="716"/>
      <point x="598" y="751" type="curve"/>
      <point x="573" y="782"/>
      <point x="564" y="822"/>
      <point x="564" y="863" type="curve" smooth="yes"/>
      <point x="564" y="866" name="dv02"/>
      <point x="564" y="868"/>
      <point x="565" y="875" type="curve" smooth="yes"/>
      <point x="567" y="895" type="line"/>
      <point x="572" y="922"/>
      <point x="578" y="944"/>
      <point x="593" y="971" type="curve" smooth="yes"/>
      <point x="606" y="994"/>
      <point x="622" y="1014"/>
      <point x="641" y="1031" type="curve"/>
      <point x="680" y="1063"/>
      <point x="724" y="1084" name="ab01"/>
      <point x="780" y="1084" type="curve" smooth="yes" name="ab02"/>
      <point x="831" y="1084"/>
      <point x="874" y="1066"/>
      <point x="905" y="1031" type="curve" smooth="yes"/>
      <point x="929" y="1002"/>
      <point x="942" y="967"/>
      <point x="942" y="920" type="curve" smooth="yes"/>
      <point x="942" y="917"/>
      <point x="942" y="915" name="sv01"/>
      <point x="941" y="908" type="curve" smooth="yes"/>
      <point x="939" y="889" type="line"/>
      <point x="931" y="850"/>
      <point x="924" y="834"/>
      <point x="911" y="811" type="curve" smooth="yes"/>
      <point x="898" y="787"/>
      <point x="884" y="770" name="av01"/>
      <point x="863" y="751" type="curve" smooth="yes"/>
      <point x="840" y="731"/>
      <point x="821" y="722"/>
      <point x="798" y="711" type="curve"/>
      <point x="776" y="702"/>
      <point x="751" y="698"/>
    </contour>
    <contour>
      <point x="320" y="-342" type="line"/>
      <point x="333" y="-336" type="line" smooth="yes"/>
      <point x="505" y="-264"/>
      <point x="606" y="-155"/>
      <point x="639" y="-19" type="curve"/>
      <point x="632" y="-20"/>
      <point x="626" y="-20"/>
      <point x="619" y="-20" type="curve" smooth="yes"/>
      <point x="566" y="-20"/>
      <point x="526" y="-5"/>
      <point x="497" y="26" type="curve" smooth="yes"/>
      <point x="474" y="51"/>
      <point x="462" y="82"/>
      <point x="462" y="119" type="curve" smooth="yes"/>
      <point x="462" y="129" type="line" smooth="yes"/>
      <point x="462" y="137"/>
      <point x="463" y="145"/>
      <point x="464" y="156" type="curve"/>
      <point x="472" y="208"/>
      <point x="498" y="251"/>
      <point x="537" y="282" type="curve"/>
      <point x="549" y="293"/>
      <point x="563" y="301"/>
      <point x="579" y="307" type="curve"/>
      <point x="592" y="315"/>
      <point x="607" y="320"/>
      <point x="624" y="323" type="curve" smooth="yes"/>
      <point x="639" y="326"/>
      <point x="654" y="328"/>
      <point x="673" y="328" type="curve" smooth="yes" name="hr01"/>
      <point x="737" y="328"/>
      <point x="785" y="304"/>
      <point x="816" y="248" type="curve" smooth="yes"/>
      <point x="835" y="213"/>
      <point x="843" y="171"/>
      <point x="843" y="132" type="curve" smooth="yes"/>
      <point x="843" y="109"/>
      <point x="840" y="71"/>
      <point x="836" y="42" type="curve" smooth="yes"/>
      <point x="819" y="-78"/>
      <point x="767" y="-188"/>
      <point x="687" y="-277" type="curve" smooth="yes"/>
      <point x="646" y="-322"/>
      <point x="600" y="-357"/>
      <point x="547" y="-392" type="curve" smooth="yes"/>
      <point x="480" y="-435"/>
      <point x="425" y="-458"/>
      <point x="376" y="-475" type="curve" smooth="yes"/>
      <point x="360" y="-480" type="line"/>
    </contour>
  </outline>
</glyph>
<glyph name="c" format="1">
  <advance width="1233"/>
  <unicode hex="0063"/>
  <outline>
    <contour>
      <point x="621" y="-29" type="curve" smooth="yes" name="dv01"/>
      <point x="481" y="-29"/>
      <point x="355" y="6" name="dh01"/>
      <point x="263" y="94" type="curve" smooth="yes"/>
      <point x="171" y="182" name="at01"/>
      <point x="135" y="305"/>
      <point x="135" y="448" type="curve" smooth="yes"/>
      <point x="135" y="636"/>
      <point x="199" y="823"/>
      <point x="318" y="950" type="curve" smooth="yes" name="sv01"/>
      <point x="438" y="1079"/>
      <point x="605" y="1147" name="dh02"/>
      <point x="797" y="1147" type="curve" smooth="yes"/>
      <point x="864" y="1147" name="dv02"/>
      <point x="930" y="1139"/>
      <point x="981" y="1127" type="curve" smooth="yes"/>
      <point x="1036" y="1114"/>
      <point x="1091" y="1092"/>
      <point x="1142" y="1063" type="curve"/>
      <point x="1089" y="795" type="line"/>
      <point x="1049" y="833"/>
      <point x="1006" y="862"/>
      <point x="960" y="881" type="curve" smooth="yes"/>
      <point x="916" y="900"/>
      <point x="867" y="909"/>
      <point x="814" y="909" type="curve" smooth="yes"/>
      <point x="695" y="909"/>
      <point x="603" y="862"/>
      <point x="538" y="786" type="curve" smooth="yes"/>
      <point x="466" y="702"/>
      <point x="431" y="590"/>
      <point x="431" y="466" type="curve" smooth="yes"/>
      <point x="431" y="374"/>
      <point x="451" y="315"/>
      <point x="492" y="272" type="curve" smooth="yes"/>
      <point x="533" y="229"/>
      <point x="595" y="209"/>
      <point x="675" y="209" type="curve" smooth="yes"/>
      <point x="726" y="209"/>
      <point x="774" y="218"/>
      <point x="827" y="235" type="curve" smooth="yes"/>
      <point x="876" y="251"/>
      <point x="930" y="274"/>
      <point x="997" y="313" type="curve"/>
      <point x="941" y="37" type="line"/>
      <point x="889" y="14"/>
      <point x="836" y="-2"/>
      <point x="783" y="-13" type="curve" smooth="yes"/>
      <point x="727" y="-24"/>
      <point x="673" y="-29"/>
    </contour>
  </outline>
</glyph>
<glyph name="h" format="1">
  <advance width="1233"/>
  <unicode hex="0068"/>
  <outline>
    <contour>
      <point x="362" y="1556" type="line" name="at01"/>
      <point x="653" y="1556" type="line"/>
      <point x="537" y="952" type="line" name="iv01"/>
      <point x="570" y="1016"/>
      <point x="617" y="1064" name="at02"/>
      <point x="669" y="1096" type="curve" smooth="yes"/>
      <point x="724" y="1130" name="dh02"/>
      <point x="786" y="1147" name="sh01"/>
      <point x="857" y="1147" type="curve" smooth="yes"/>
      <point x="938" y="1147" name="ab01"/>
      <point x="1004" y="1125"/>
      <point x="1051" y="1078" type="curve" smooth="yes" name="sh02"/>
      <point x="1095" y="1034" name="sh03"/>
      <point x="1120" y="969" name="dh01"/>
      <point x="1120" y="880" type="curve" smooth="yes"/>
      <point x="1120" y="861" name="sv01"/>
      <point x="1119" y="838"/>
      <point x="1116" y="813" type="curve"/>
      <point x="1113" y="797" name="ab02"/>
      <point x="1109" y="759"/>
      <point x="1102" y="728" type="curve"/>
      <point x="961" y="0" type="line" name="sh04"/>
      <point x="668" y="0" type="line"/>
      <point x="801" y="682" type="line"/>
      <point x="804" y="692"/>
      <point x="809" y="732"/>
      <point x="809" y="735" type="curve" smooth="yes"/>
      <point x="810" y="752"/>
      <point x="811" y="771"/>
      <point x="811" y="784" type="curve" smooth="yes"/>
      <point x="811" y="823"/>
      <point x="803" y="854"/>
      <point x="782" y="877" type="curve" smooth="yes"/>
      <point x="763" y="897"/>
      <point x="735" y="907"/>
      <point x="699" y="907" type="curve" smooth="yes"/>
      <point x="639" y="907"/>
      <point x="593" y="880"/>
      <point x="557" y="836" type="curve" smooth="yes"/>
      <point x="517" y="787"/>
      <point x="490" y="717"/>
      <point x="473" y="629" type="curve" smooth="yes"/>
      <point x="352" y="0" type="line"/>
      <point x="59" y="0" type="line"/>
    </contour>
  </outline>
</glyph>
<glyph name="s" format="1">
  <advance width="1233"/>
  <unicode hex="0073"/>
  <outline>
    <contour>
      <point x="501" y="-29" type="curve" smooth="yes" name="sh03"/>
      <point x="430" y="-29"/>
      <point x="353" y="-23"/>
      <point x="293" y="-12" type="curve" smooth="yes"/>
      <point x="229" y="-1"/>
      <point x="157" y="18" name="sh04"/>
      <point x="90" y="41" type="curve"/>
      <point x="141" y="297" type="line" name="ah02"/>
      <point x="205" y="256"/>
      <point x="258" y="232"/>
      <point x="322" y="212" type="curve" smooth="yes"/>
      <point x="383" y="193"/>
      <point x="442" y="182" name="sh01"/>
      <point x="510" y="182" type="curve" smooth="yes"/>
      <point x="583" y="182" name="at01"/>
      <point x="641" y="195"/>
      <point x="682" y="220" type="curve" smooth="yes"/>
      <point x="723" y="245"/>
      <point x="743" y="280"/>
      <point x="743" y="326" type="curve" smooth="yes" name="sv01"/>
      <point x="743" y="362"/>
      <point x="731" y="380" name="sh02"/>
      <point x="712" y="395" type="curve" smooth="yes"/>
      <point x="685" y="416"/>
      <point x="630" y="438"/>
      <point x="549" y="461" type="curve" smooth="yes"/>
      <point x="461" y="485" type="line" smooth="yes" name="sh05"/>
      <point x="388" y="505"/>
      <point x="325" y="540"/>
      <point x="282" y="592" type="curve" smooth="yes" name="ah01"/>
      <point x="246" y="636" name="sh06"/>
      <point x="225" y="691"/>
      <point x="225" y="767" type="curve" smooth="yes"/>
      <point x="225" y="884"/>
      <point x="273" y="980"/>
      <point x="360" y="1045" type="curve" smooth="yes"/>
      <point x="447" y="1110"/>
      <point x="572" y="1147"/>
      <point x="725" y="1147" type="curve" smooth="yes"/>
      <point x="786" y="1147"/>
      <point x="856" y="1141"/>
      <point x="909" y="1132" type="curve" smooth="yes"/>
      <point x="962" y="1123"/>
      <point x="1037" y="1105"/>
      <point x="1094" y="1085" type="curve"/>
      <point x="1044" y="831" type="line"/>
      <point x="993" y="866"/>
      <point x="939" y="893"/>
      <point x="882" y="911" type="curve" smooth="yes"/>
      <point x="823" y="930"/>
      <point x="764" y="938"/>
      <point x="705" y="938" type="curve" smooth="yes"/>
      <point x="637" y="938"/>
      <point x="590" y="926"/>
      <point x="553" y="903" type="curve" smooth="yes"/>
      <point x="516" y="880"/>
      <point x="498" y="849"/>
      <point x="498" y="810" type="curve" smooth="yes"/>
      <point x="498" y="779"/>
      <point x="510" y="755"/>
      <point x="535" y="737" type="curve" smooth="yes"/>
      <point x="562" y="718"/>
      <point x="612" y="697"/>
      <point x="700" y="672" type="curve" smooth="yes"/>
      <point x="774" y="651" type="line" smooth="yes"/>
      <point x="862" y="626"/>
      <point x="924" y="588"/>
      <point x="961" y="544" type="curve" smooth="yes"/>
      <point x="1000" y="499"/>
      <point x="1020" y="439"/>
      <point x="1020" y="359" type="curve" smooth="yes"/>
      <point x="1020" y="238"/>
      <point x="972" y="142"/>
      <point x="884" y="75" type="curve" smooth="yes"/>
      <point x="791" y="4"/>
      <point x="657" y="-29"/>
    </contour>
  </outline>
</glyph>
<glyph name="t" format="1">
  <advance width="1233"/>
  <unicode hex="0074"/>
  <outline>
    <contour>
      <point x="707" y="-5" type="line" smooth="yes" name="ab01"/>
      <point x="566" y="-5"/>
      <point x="475" y="13"/>
      <point x="418" y="52" type="curve"/>
      <point x="357" y="92"/>
      <point x="332" y="153" name="sv01"/>
      <point x="332" y="229" type="curve" smooth="yes"/>
      <point x="332" y="252" name="at01"/>
      <point x="334" y="267"/>
      <point x="337" y="290" type="curve" smooth="yes" name="av01"/>
      <point x="340" y="306"/>
      <point x="343" y="342" name="at02"/>
      <point x="350" y="374" type="curve"/>
      <point x="451" y="895" type="line" name="sv02"/>
      <point x="164" y="895" type="line" name="sv03"/>
      <point x="207" y="1120" type="line"/>
      <point x="494" y="1120" type="line"/>
      <point x="555" y="1438" type="line"/>
      <point x="848" y="1438" type="line"/>
      <point x="786" y="1120" type="line" name="sv04"/>
      <point x="1169" y="1120" type="line" name="sv05"/>
      <point x="1126" y="895" type="line" name="ab02"/>
      <point x="743" y="895" type="line"/>
      <point x="639" y="360" type="line"/>
      <point x="633" y="325" type="line"/>
      <point x="632" y="314"/>
      <point x="631" y="308"/>
      <point x="631" y="300" type="curve" smooth="yes"/>
      <point x="631" y="271"/>
      <point x="641" y="251"/>
      <point x="661" y="239" type="curve"/>
      <point x="680" y="226"/>
      <point x="717" y="220"/>
      <point x="770" y="220" type="curve" smooth="yes"/>
      <point x="995" y="220" type="line"/>
      <point x="952" y="-5" type="line"/>
    </contour>
  </outline>
</glyph>
<glyph name="braceleft" format="1">
  <advance width="1233"/>
  <unicode hex="007B"/>
  <outline>
    <contour>
      <point x="644" y="-334" type="line" smooth="yes" name="dv01"/>
      <point x="504" y="-334"/>
      <point x="421" y="-315" name="dh01"/>
      <point x="365" y="-280" type="curve" smooth="yes" name="sh01"/>
      <point x="309" y="-245"/>
      <point x="280" y="-192"/>
      <point x="280" y="-101" type="curve" smooth="yes"/>
      <point x="280" y="-84" name="ih01"/>
      <point x="281" y="-72"/>
      <point x="284" y="-49" type="curve" name="dv03"/>
      <point x="284" y="-41"/>
      <point x="290" y="1" name="dv04"/>
      <point x="298" y="35" type="curve"/>
      <point x="341" y="250" type="line" smooth="yes"/>
      <point x="343" y="260"/>
      <point x="351" y="304"/>
      <point x="354" y="328" type="curve" smooth="yes"/>
      <point x="357" y="351" name="at01"/>
      <point x="358" y="365"/>
      <point x="358" y="377" type="curve" smooth="yes" name="sv01"/>
      <point x="358" y="433"/>
      <point x="338" y="465"/>
      <point x="295" y="486" type="curve"/>
      <point x="259" y="505"/>
      <point x="197" y="516"/>
      <point x="113" y="516" type="curve" smooth="yes" name="ih02"/>
      <point x="51" y="516" type="line"/>
      <point x="88" y="707" type="line" name="sh02"/>
      <point x="179" y="707" type="line" smooth="yes"/>
      <point x="274" y="707"/>
      <point x="343" y="725"/>
      <point x="386" y="762" type="curve" smooth="yes"/>
      <point x="429" y="799" name="dh02"/>
      <point x="460" y="869"/>
      <point x="480" y="973" type="curve" smooth="yes" name="dv02"/>
      <point x="521" y="1188" type="line" smooth="yes"/>
      <point x="550" y="1341" name="sv02"/>
      <point x="597" y="1437"/>
      <point x="658" y="1484" type="curve" smooth="yes"/>
      <point x="720" y="1532"/>
      <point x="838" y="1556"/>
      <point x="1011" y="1556" type="curve" smooth="yes"/>
      <point x="1160" y="1556" type="line"/>
      <point x="1124" y="1366" type="line"/>
      <point x="1001" y="1366" type="line" smooth="yes"/>
      <point x="926" y="1366"/>
      <point x="881" y="1351"/>
      <point x="852" y="1323" type="curve" smooth="yes"/>
      <point x="821" y="1294"/>
      <point x="800" y="1239"/>
      <point x="781" y="1139" type="curve" smooth="yes"/>
      <point x="743" y="930" type="line" smooth="yes"/>
      <point x="724" y="826"/>
      <point x="692" y="744"/>
      <point x="648" y="696" type="curve" smooth="yes"/>
      <point x="607" y="651"/>
      <point x="543" y="623"/>
      <point x="456" y="612" type="curve"/>
      <point x="520" y="598"/>
      <point x="566" y="577"/>
      <point x="593" y="548" type="curve" smooth="yes"/>
      <point x="620" y="521"/>
      <point x="634" y="485"/>
      <point x="634" y="428" type="curve" smooth="yes"/>
      <point x="634" y="413"/>
      <point x="633" y="387"/>
      <point x="630" y="364" type="curve" smooth="yes"/>
      <point x="627" y="347"/>
      <point x="625" y="326"/>
      <point x="618" y="291" type="curve" smooth="yes"/>
      <point x="577" y="86" type="line"/>
      <point x="569" y="51"/>
      <point x="569" y="49"/>
      <point x="564" y="12" type="curve" smooth="yes"/>
      <point x="561" y="-11"/>
      <point x="560" y="-19"/>
      <point x="560" y="-32" type="curve" smooth="yes"/>
      <point x="560" y="-75"/>
      <point x="571" y="-101"/>
      <point x="594" y="-118" type="curve" smooth="yes"/>
      <point x="617" y="-135"/>
      <point x="655" y="-143"/>
      <point x="708" y="-143" type="curve" smooth="yes" name="hr02"/>
      <point x="829" y="-143" type="line"/>
      <point x="792" y="-334" type="line"/>
    </contour>
  </outline>
</glyph>
<glyph name="dieresis" format="1">
  <advance width="1233"/>
  <unicode hex="00A8"/>
  <outline>
    <contour>
      <point x="449" y="1339" type="line" smooth="yes" name="dv01"/>
      <point x="429" y="1339"/>
      <point x="418" y="1352"/>
      <point x="422" y="1372" type="curve" smooth="yes" name="dv02"/>
      <point x="458" y="1558" type="line" smooth="yes"/>
      <point x="461" y="1576"/>
      <point x="471" y="1585"/>
      <point x="490" y="1585" type="curve" smooth="yes"/>
      <point x="667" y="1585" type="line" smooth="yes"/>
      <point x="685" y="1585" name="sv01"/>
      <point x="694" y="1577"/>
      <point x="694" y="1561" type="curve" smooth="yes"/>
      <point x="694" y="1557" name="sv02"/>
      <point x="694" y="1554"/>
      <point x="693" y="1552" type="curve" smooth="yes"/>
      <point x="656" y="1366" type="line" smooth="yes"/>
      <point x="653" y="1348"/>
      <point x="642" y="1339"/>
      <point x="624" y="1339" type="curve" smooth="yes"/>
    </contour>
    <contour>
      <point x="844" y="1339" type="line" smooth="yes"/>
      <point x="824" y="1339"/>
      <point x="813" y="1352"/>
      <point x="817" y="1372" type="curve" smooth="yes"/>
      <point x="853" y="1558" type="line" smooth="yes"/>
      <point x="856" y="1576"/>
      <point x="866" y="1585"/>
      <point x="885" y="1585" type="curve" smooth="yes"/>
      <point x="1063" y="1585" type="line" smooth="yes"/>
      <point x="1081" y="1585"/>
      <point x="1090" y="1577"/>
      <point x="1090" y="1561" type="curve" smooth="yes"/>
      <point x="1090" y="1557"/>
      <point x="1090" y="1554"/>
      <point x="1089" y="1552" type="curve" smooth="yes"/>
      <point x="1052" y="1366" type="line" smooth="yes"/>
      <point x="1049" y="1348"/>
      <point x="1038" y="1339"/>
      <point x="1020" y="1339" type="curve" smooth="yes"/>
    </contour>
  </outline>
</glyph>
<glyph name="ordfeminine" format="1">
  <advance width="1233"/>
  <unicode hex="00AA"/>
  <outline>
    <contour>
      <point x="511" y="698" type="curve" smooth="yes" name="hr00"/>
      <point x="437" y="698"/>
      <point x="379" y="718" name="dh01"/>
      <point x="338" y="759" type="curve" smooth="yes"/>
      <point x="295" y="800"/>
      <point x="274" y="855" name="dv06"/>
      <point x="274" y="926" type="curve" smooth="yes"/>
      <point x="274" y="1021"/>
      <point x="309" y="1097"/>
      <point x="386" y="1153" type="curve" smooth="yes"/>
      <point x="461" y="1206" name="sv01"/>
      <point x="567" y="1233"/>
      <point x="705" y="1233" type="curve" smooth="yes" name="ih01"/>
      <point x="840" y="1233" type="line"/>
      <point x="846" y="1268" type="line" smooth="yes" name="at01"/>
      <point x="847" y="1271" name="at02"/>
      <point x="848" y="1273"/>
      <point x="848" y="1275" type="curve" smooth="yes"/>
      <point x="848" y="1286" type="line" smooth="yes"/>
      <point x="848" y="1313"/>
      <point x="836" y="1333"/>
      <point x="812" y="1347" type="curve" smooth="yes" name="dv03"/>
      <point x="787" y="1362"/>
      <point x="751" y="1368"/>
      <point x="708" y="1368" type="curve" smooth="yes"/>
      <point x="665" y="1368" name="dv04"/>
      <point x="624" y="1361"/>
      <point x="575" y="1348" type="curve" smooth="yes" name="dv05"/>
      <point x="527" y="1335"/>
      <point x="481" y="1318"/>
      <point x="418" y="1290" type="curve" name="dh02"/>
      <point x="451" y="1464" type="line"/>
      <point x="504" y="1483"/>
      <point x="554" y="1497"/>
      <point x="603" y="1506" type="curve" smooth="yes" name="dv02"/>
      <point x="650" y="1515" name="dv01"/>
      <point x="695" y="1520"/>
      <point x="743" y="1520" type="curve" smooth="yes"/>
      <point x="832" y="1520"/>
      <point x="913" y="1504"/>
      <point x="969" y="1469" type="curve" smooth="yes"/>
      <point x="1028" y="1433"/>
      <point x="1051" y="1381"/>
      <point x="1051" y="1318" type="curve" smooth="yes"/>
      <point x="1051" y="1305"/>
      <point x="1050" y="1278"/>
      <point x="1047" y="1255" type="curve" smooth="yes"/>
      <point x="1044" y="1230"/>
      <point x="1037" y="1192"/>
      <point x="1032" y="1165" type="curve" smooth="yes"/>
      <point x="944" y="717" type="line"/>
      <point x="737" y="717" type="line"/>
      <point x="756" y="805" type="line"/>
      <point x="723" y="766"/>
      <point x="692" y="744"/>
      <point x="649" y="725" type="curve" smooth="yes"/>
      <point x="607" y="707"/>
      <point x="561" y="698"/>
    </contour>
    <contour>
      <point x="598" y="838" type="curve" smooth="yes"/>
      <point x="649" y="838"/>
      <point x="698" y="860"/>
      <point x="735" y="903" type="curve" smooth="yes"/>
      <point x="770" y="942"/>
      <point x="798" y="1003"/>
      <point x="811" y="1087" type="curve"/>
      <point x="731" y="1087" type="line" smooth="yes"/>
      <point x="650" y="1087"/>
      <point x="590" y="1075"/>
      <point x="551" y="1051" type="curve" smooth="yes"/>
      <point x="512" y="1027"/>
      <point x="492" y="990"/>
      <point x="492" y="943" type="curve" smooth="yes"/>
      <point x="492" y="912"/>
      <point x="502" y="886"/>
      <point x="521" y="867" type="curve" smooth="yes"/>
      <point x="540" y="848"/>
      <point x="563" y="838"/>
    </contour>
    <contour>
      <point x="246" y="598" type="line"/>
      <point x="934" y="598" type="line"/>
      <point x="899" y="428" type="line"/>
      <point x="211" y="428" type="line"/>
    </contour>
  </outline>
</glyph>
<glyph name="ordmasculine" format="1">
  <advance width="1233"/>
  <unicode hex="00BA"/>
  <outline>
    <contour>
      <point x="634" y="698" type="curve" smooth="yes" name="dv03"/>
      <point x="530" y="698"/>
      <point x="453" y="726" name="sh01"/>
      <point x="394" y="782" type="curve" smooth="yes"/>
      <point x="334" y="838" name="at01"/>
      <point x="307" y="914"/>
      <point x="307" y="1027" type="curve" smooth="yes" name="sh02"/>
      <point x="307" y="1164"/>
      <point x="347" y="1287"/>
      <point x="427" y="1380" type="curve" smooth="yes" name="dv04"/>
      <point x="506" y="1473"/>
      <point x="611" y="1520" name="ah02"/>
      <point x="740" y="1520" type="curve" smooth="yes"/>
      <point x="843" y="1520" name="sv01"/>
      <point x="923" y="1492"/>
      <point x="981" y="1436" type="curve" smooth="yes" name="sh03"/>
      <point x="1038" y="1380"/>
      <point x="1067" y="1307"/>
      <point x="1067" y="1191" type="curve" smooth="yes"/>
      <point x="1067" y="1058" name="dv02"/>
      <point x="1028" y="934" name="dv01"/>
      <point x="948" y="838" type="curve"/>
      <point x="865" y="741" name="ah01"/>
      <point x="761" y="698" name="sh04"/>
    </contour>
    <contour>
      <point x="649" y="862" type="curve" smooth="yes"/>
      <point x="709" y="862"/>
      <point x="760" y="898"/>
      <point x="796" y="957" type="curve" smooth="yes"/>
      <point x="836" y="1022"/>
      <point x="856" y="1108"/>
      <point x="856" y="1188" type="curve" smooth="yes"/>
      <point x="856" y="1239"/>
      <point x="849" y="1284"/>
      <point x="822" y="1315" type="curve" smooth="yes"/>
      <point x="799" y="1342"/>
      <point x="765" y="1356"/>
      <point x="728" y="1356" type="curve" smooth="yes"/>
      <point x="667" y="1356"/>
      <point x="616" y="1320"/>
      <point x="580" y="1261" type="curve" smooth="yes"/>
      <point x="537" y="1193"/>
      <point x="520" y="1105"/>
      <point x="520" y="1032" type="curve" smooth="yes"/>
      <point x="520" y="969"/>
      <point x="533" y="932"/>
      <point x="554" y="905" type="curve"/>
      <point x="577" y="878"/>
      <point x="609" y="862"/>
    </contour>
    <contour>
      <point x="254" y="598" type="line"/>
      <point x="942" y="598" type="line"/>
      <point x="909" y="428" type="line"/>
      <point x="221" y="428" type="line"/>
    </contour>
  </outline>
</glyph>
<glyph name="Atilde" format="1">
  <advance width="1233"/>
  <unicode hex="00C3"/>
  <outline>
    <contour>
      <point x="422" y="1589" type="line" name="hr00"/>
      <point x="439" y="1675"/>
      <point x="470" y="1741" name="dv02"/>
      <point x="513" y="1786" type="curve" smooth="yes"/>
      <point x="556" y="1831"/>
      <point x="608" y="1855"/>
      <point x="673" y="1855" type="curve" smooth="yes"/>
      <point x="698" y="1855"/>
      <point x="722" y="1851"/>
      <point x="744" y="1843" type="curve" smooth="yes" name="sv01"/>
      <point x="763" y="1836"/>
      <point x="784" y="1824"/>
      <point x="811" y="1804" type="curve" smooth="yes" name="sv02"/>
      <point x="864" y="1763" type="line" smooth="yes"/>
      <point x="873" y="1755"/>
      <point x="884" y="1748"/>
      <point x="898" y="1743" type="curve" smooth="yes"/>
      <point x="909" y="1738"/>
      <point x="921" y="1736"/>
      <point x="932" y="1736" type="curve" smooth="yes" name="dv01"/>
      <point x="959" y="1736" name="at01"/>
      <point x="980" y="1746"/>
      <point x="997" y="1767" type="curve" smooth="yes" name="ab01"/>
      <point x="1015" y="1788"/>
      <point x="1027" y="1818" name="dv03"/>
      <point x="1034" y="1855" type="curve"/>
      <point x="1171" y="1855" type="line" name="ab02"/>
      <point x="1154" y="1770"/>
      <point x="1124" y="1705" name="dv04"/>
      <point x="1080" y="1658" type="curve" smooth="yes"/>
      <point x="1037" y="1612"/>
      <point x="984" y="1589"/>
      <point x="921" y="1589" type="curve" smooth="yes"/>
      <point x="894" y="1589"/>
      <point x="873" y="1593"/>
      <point x="852" y="1600" type="curve" smooth="yes"/>
      <point x="831" y="1607"/>
      <point x="814" y="1616"/>
      <point x="782" y="1640" type="curve" smooth="yes"/>
      <point x="733" y="1677" type="line" smooth="yes"/>
      <point x="714" y="1692"/>
      <point x="706" y="1696"/>
      <point x="691" y="1703" type="curve" smooth="yes"/>
      <point x="678" y="1708"/>
      <point x="668" y="1709"/>
      <point x="660" y="1709" type="curve" smooth="yes"/>
      <point x="632" y="1709"/>
      <point x="611" y="1695"/>
      <point x="596" y="1678" type="curve" smooth="yes"/>
      <point x="575" y="1653"/>
      <point x="563" y="1612"/>
      <point x="559" y="1589" type="curve"/>
    </contour>
    <contour>
      <point x="582" y="1493" type="line"/>
      <point x="942" y="1493" type="line"/>
      <point x="1055" y="0" type="line"/>
      <point x="762" y="0" type="line"/>
      <point x="748" y="369" type="line"/>
      <point x="348" y="369" type="line"/>
      <point x="186" y="0" type="line"/>
      <point x="-113" y="0" type="line"/>
    </contour>
    <contour>
      <point x="737" y="612" type="line"/>
      <point x="717" y="1219" type="line"/>
      <point x="453" y="612" type="line"/>
    </contour>
  </outline>
</glyph>
<glyph name="Thorn" format="1">
  <advance width="1233"/>
  <unicode hex="00DE"/>
  <outline>
    <contour>
      <point x="307" y="1493" type="line" name="at01"/>
      <point x="602" y="1493" type="line"/>
      <point x="555" y="1266" type="line"/>
      <point x="682" y="1266" type="line" smooth="yes" name="sv02"/>
      <point x="839" y="1266"/>
      <point x="959" y="1235" name="dh02"/>
      <point x="1042" y="1174" type="curve" smooth="yes"/>
      <point x="1126" y="1111"/>
      <point x="1165" y="1023"/>
      <point x="1165" y="902" type="curve" smooth="yes" name="dv01"/>
      <point x="1165" y="834"/>
      <point x="1153" y="758" name="ab01"/>
      <point x="1129" y="683" type="curve" smooth="yes"/>
      <point x="1104" y="606" name="dv02"/>
      <point x="1073" y="551"/>
      <point x="1034" y="506" type="curve" smooth="yes" name="dh01"/>
      <point x="975" y="437"/>
      <point x="913" y="401" name="sv01"/>
      <point x="840" y="374" type="curve" smooth="yes"/>
      <point x="761" y="346"/>
      <point x="671" y="332"/>
      <point x="539" y="332" type="curve" smooth="yes" name="sh01"/>
      <point x="375" y="332" type="line"/>
      <point x="311" y="0" type="line"/>
      <point x="16" y="0" type="line"/>
    </contour>
    <contour>
      <point x="569" y="580" type="line" smooth="yes"/>
      <point x="667" y="580"/>
      <point x="739" y="602"/>
      <point x="786" y="647" type="curve" smooth="yes"/>
      <point x="834" y="692"/>
      <point x="858" y="759"/>
      <point x="858" y="843" type="curve" smooth="yes"/>
      <point x="858" y="916"/>
      <point x="841" y="956"/>
      <point x="806" y="980" type="curve" smooth="yes" name="hr01"/>
      <point x="771" y="1005"/>
      <point x="716" y="1018"/>
      <point x="631" y="1018" type="curve" smooth="yes"/>
      <point x="510" y="1018" type="line" name="hr02"/>
      <point x="424" y="580" type="line"/>
    </contour>
  </outline>
</glyph>
<glyph name="aacute" format="1">
  <advance width="1233"/>
  <unicode hex="00E1"/>
  <outline>
    <contour>
      <point x="918" y="1673" type="line" name="av01"/>
      <point x="1239" y="1673" type="line"/>
      <point x="797" y="1297" type="line"/>
      <point x="600" y="1297" type="line" name="iv01"/>
    </contour>
    <contour>
      <point x="379" y="-29" type="curve" smooth="yes" name="dv01"/>
      <point x="279" y="-29"/>
      <point x="195" y="-2" name="dh01"/>
      <point x="135" y="58" type="curve" smooth="yes"/>
      <point x="72" y="119"/>
      <point x="47" y="204" name="dv04"/>
      <point x="47" y="300" type="curve" smooth="yes"/>
      <point x="47" y="436"/>
      <point x="99" y="548"/>
      <point x="203" y="624" type="curve" smooth="yes"/>
      <point x="306" y="699" name="sv01"/>
      <point x="456" y="737"/>
      <point x="651" y="737" type="curve" smooth="yes" name="ih01"/>
      <point x="844" y="737" type="line"/>
      <point x="852" y="786" type="line" smooth="yes"/>
      <point x="853" y="793" name="at01"/>
      <point x="854" y="797"/>
      <point x="854" y="798" type="curve" name="hr01"/>
      <point x="854" y="815" type="line" smooth="yes"/>
      <point x="854" y="853"/>
      <point x="837" y="882" name="ab01"/>
      <point x="803" y="902" type="curve" smooth="yes"/>
      <point x="769" y="922" name="iv02"/>
      <point x="720" y="932" name="ab02"/>
      <point x="657" y="932" type="curve" smooth="yes"/>
      <point x="600" y="932" name="dv02"/>
      <point x="538" y="923"/>
      <point x="470" y="904" type="curve" smooth="yes" name="dv03"/>
      <point x="403" y="885"/>
      <point x="335" y="859"/>
      <point x="248" y="819" type="curve" name="dh02"/>
      <point x="295" y="1069" type="line"/>
      <point x="372" y="1096"/>
      <point x="443" y="1115"/>
      <point x="509" y="1128" type="curve" smooth="yes"/>
      <point x="577" y="1141"/>
      <point x="637" y="1147"/>
      <point x="705" y="1147" type="curve" smooth="yes"/>
      <point x="844" y="1147"/>
      <point x="953" y="1122"/>
      <point x="1029" y="1071" type="curve" smooth="yes"/>
      <point x="1109" y="1018"/>
      <point x="1141" y="942"/>
      <point x="1141" y="845" type="curve" smooth="yes"/>
      <point x="1141" y="821"/>
      <point x="1139" y="793"/>
      <point x="1134" y="756" type="curve" smooth="yes"/>
      <point x="1129" y="717"/>
      <point x="1125" y="691"/>
      <point x="1114" y="639" type="curve"/>
      <point x="991" y="0" type="line"/>
      <point x="729" y="0" type="line"/>
      <point x="725" y="125" type="line"/>
      <point x="678" y="72"/>
      <point x="627" y="34"/>
      <point x="572" y="10" type="curve" smooth="yes"/>
      <point x="513" y="-17"/>
      <point x="447" y="-29"/>
    </contour>
    <contour>
      <point x="501" y="172" type="curve" smooth="yes"/>
      <point x="573" y="172"/>
      <point x="641" y="202"/>
      <point x="694" y="265" type="curve" smooth="yes"/>
      <point x="745" y="324"/>
      <point x="784" y="411"/>
      <point x="803" y="530" type="curve"/>
      <point x="690" y="530" type="line" smooth="yes" name="hr02"/>
      <point x="575" y="530"/>
      <point x="490" y="513"/>
      <point x="435" y="478" type="curve" smooth="yes"/>
      <point x="379" y="443"/>
      <point x="352" y="389"/>
      <point x="352" y="321" type="curve" smooth="yes"/>
      <point x="352" y="273"/>
      <point x="366" y="240"/>
      <point x="393" y="213" type="curve" smooth="yes"/>
      <point x="420" y="186"/>
      <point x="452" y="172"/>
    </contour>
  </outline>
</glyph>
<glyph name="iacute" format="1">
  <advance width="1233"/>
  <unicode hex="00ED"/>
  <outline>
    <contour>
      <point x="862" y="1648" type="line" name="av01"/>
      <point x="1183" y="1648" type="line"/>
      <point x="741" y="1272" type="line"/>
      <point x="544" y="1272" type="line" name="iv01"/>
    </contour>
    <contour>
      <point x="697" y="-8" type="line" smooth="yes" name="ab01"/>
      <point x="554" y="-8"/>
      <point x="464" y="10"/>
      <point x="407" y="49" type="curve"/>
      <point x="344" y="90"/>
      <point x="322" y="152" name="sv01"/>
      <point x="322" y="229" type="curve" smooth="yes"/>
      <point x="322" y="252" name="at01"/>
      <point x="324" y="269"/>
      <point x="327" y="292" type="curve" smooth="yes"/>
      <point x="330" y="316"/>
      <point x="334" y="342"/>
      <point x="341" y="371" type="curve" smooth="yes"/>
      <point x="461" y="895" type="line" name="sv02"/>
      <point x="225" y="895" type="line"/>
      <point x="268" y="1120" type="line"/>
      <point x="796" y="1120" type="line"/>
      <point x="630" y="357" type="line"/>
      <point x="622" y="325"/>
      <point x="627" y="331"/>
      <point x="624" y="321" type="curve" smooth="yes"/>
      <point x="621" y="310"/>
      <point x="621" y="303"/>
      <point x="621" y="295" type="curve" smooth="yes"/>
      <point x="621" y="272"/>
      <point x="629" y="251"/>
      <point x="652" y="236" type="curve" smooth="yes"/>
      <point x="673" y="223"/>
      <point x="709" y="217"/>
      <point x="761" y="217" type="curve" smooth="yes"/>
      <point x="1039" y="217" type="line"/>
      <point x="994" y="-8" type="line"/>
    </contour>
  </outline>
</glyph>
<glyph name="icircumflex" format="1">
  <advance width="1233"/>
  <unicode hex="00EE"/>
  <outline>
    <contour>
      <point x="596" y="1673" type="line" name="av01"/>
      <point x="839" y="1673" type="line"/>
      <point x="1022" y="1297" type="line" name="iv01"/>
      <point x="846" y="1297" type="line"/>
      <point x="694" y="1522" type="line"/>
      <point x="454" y="1297" type="line"/>
      <point x="264" y="1297" type="line" name="iv02"/>
    </contour>
    <contour>
      <point x="700" y="-8" type="line" smooth="yes" name="ab01"/>
      <point x="557" y="-8"/>
      <point x="467" y="10"/>
      <point x="410" y="49" type="curve"/>
      <point x="347" y="90"/>
      <point x="325" y="152" name="sv01"/>
      <point x="325" y="229" type="curve" smooth="yes"/>
      <point x="325" y="252" name="at01"/>
      <point x="327" y="269"/>
      <point x="330" y="292" type="curve" smooth="yes"/>
      <point x="333" y="316"/>
      <point x="337" y="342"/>
      <point x="344" y="371" type="curve" smooth="yes"/>
      <point x="464" y="895" type="line" name="sv02"/>
      <point x="228" y="895" type="line"/>
      <point x="271" y="1120" type="line"/>
      <point x="799" y="1120" type="line"/>
      <point x="633" y="357" type="line"/>
      <point x="625" y="325"/>
      <point x="630" y="331"/>
      <point x="627" y="321" type="curve" smooth="yes"/>
      <point x="624" y="310"/>
      <point x="624" y="303"/>
      <point x="624" y="295" type="curve" smooth="yes"/>
      <point x="624" y="272"/>
      <point x="632" y="251"/>
      <point x="655" y="236" type="curve" smooth="yes"/>
      <point x="676" y="223"/>
      <point x="712" y="217"/>
      <point x="764" y="217" type="curve" smooth="yes"/>
      <point x="1042" y="217" type="line"/>
      <point x="997" y="-8" type="line"/>
    </contour>
  </outline>
</glyph>
<glyph name="ydieresis" format="1">
  <advance width="1233"/>
  <unicode hex="00FF"/>
  <outline>
    <contour>
      <point x="484" y="1320" type="line" smooth="yes" name="sv01"/>
      <point x="464" y="1320"/>
      <point x="453" y="1333"/>
      <point x="457" y="1353" type="curve" smooth="yes" name="at03"/>
      <point x="493" y="1539" type="line" smooth="yes"/>
      <point x="496" y="1557"/>
      <point x="506" y="1566"/>
      <point x="525" y="1566" type="curve" smooth="yes"/>
      <point x="702" y="1566" type="line" smooth="yes"/>
      <point x="720" y="1566" name="sv02"/>
      <point x="729" y="1558"/>
      <point x="729" y="1542" type="curve" smooth="yes"/>
      <point x="729" y="1534" name="at04"/>
      <point x="728" y="1536"/>
      <point x="728" y="1533" type="curve" smooth="yes"/>
      <point x="691" y="1347" type="line" smooth="yes"/>
      <point x="688" y="1329"/>
      <point x="677" y="1320" name="sv03"/>
      <point x="659" y="1320" type="curve" smooth="yes" name="sv04"/>
    </contour>
    <contour>
      <point x="879" y="1320" type="line" smooth="yes"/>
      <point x="859" y="1320"/>
      <point x="848" y="1333"/>
      <point x="852" y="1353" type="curve" smooth="yes"/>
      <point x="888" y="1539" type="line" smooth="yes" name="at01"/>
      <point x="891" y="1557"/>
      <point x="901" y="1566" name="iv01"/>
      <point x="920" y="1566" type="curve" smooth="yes" name="at02"/>
      <point x="1098" y="1566" type="line" smooth="yes" name="iv02"/>
      <point x="1116" y="1566"/>
      <point x="1125" y="1558"/>
      <point x="1125" y="1542" type="curve" smooth="yes" name="ab01"/>
      <point x="1125" y="1534"/>
      <point x="1124" y="1536"/>
      <point x="1124" y="1533" type="curve" smooth="yes"/>
      <point x="1087" y="1347" type="line" smooth="yes"/>
      <point x="1084" y="1329"/>
      <point x="1073" y="1320"/>
      <point x="1055" y="1320" type="curve" smooth="yes"/>
    </contour>
    <contour>
      <point x="-20" y="-201" type="line"/>
      <point x="97" y="-201" type="line" smooth="yes"/>
      <point x="157" y="-201"/>
      <point x="203" y="-191"/>
      <point x="234" y="-171" type="curve" smooth="yes"/>
      <point x="266" y="-151"/>
      <point x="304" y="-105"/>
      <point x="344" y="-29" type="curve" smooth="yes"/>
      <point x="383" y="45" type="line"/>
      <point x="166" y="1120" type="line"/>
      <point x="463" y="1120" type="line"/>
      <point x="590" y="420" type="line"/>
      <point x="973" y="1120" type="line"/>
      <point x="1282" y="1120" type="line"/>
      <point x="576" y="-121" type="line" smooth="yes"/>
      <point x="501" y="-252"/>
      <point x="440" y="-333"/>
      <point x="383" y="-372" type="curve" smooth="yes"/>
      <point x="332" y="-407"/>
      <point x="259" y="-424"/>
      <point x="175" y="-424" type="curve" smooth="yes"/>
      <point x="-65" y="-424" type="line"/>
    </contour>
  </outline>
</glyph>
<glyph name="Ccircumflex" format="1">
  <advance width="1233"/>
  <unicode hex="0108"/>
  <outline>
    <contour>
      <point x="786" y="1852" type="line" name="hr00"/>
      <point x="1095" y="1852" type="line"/>
      <point x="1267" y="1588" type="line"/>
      <point x="1089" y="1588" type="line"/>
      <point x="921" y="1749" type="line"/>
      <point x="692" y="1588" type="line"/>
      <point x="514" y="1588" type="line"/>
    </contour>
    <contour>
      <point x="98" y="489" type="curve" smooth="yes"/>
      <point x="98" y="567"/>
      <point x="107" y="652"/>
      <point x="125" y="745" type="curve" smooth="yes"/>
      <point x="158" y="914"/>
      <point x="210" y="1055"/>
      <point x="279" y="1169" type="curve" smooth="yes"/>
      <point x="419" y="1400"/>
      <point x="630" y="1520"/>
      <point x="894" y="1520" type="curve" smooth="yes"/>
      <point x="1010" y="1520"/>
      <point x="1109" y="1496"/>
      <point x="1191" y="1448" type="curve"/>
      <point x="1127" y="1120" type="line"/>
      <point x="1043" y="1215"/>
      <point x="961" y="1255"/>
      <point x="857" y="1255" type="curve" smooth="yes"/>
      <point x="644" y="1255"/>
      <point x="497" y="1080"/>
      <point x="432" y="745" type="curve"/>
      <point x="417" y="674"/>
      <point x="410" y="605"/>
      <point x="410" y="539" type="curve" smooth="yes"/>
      <point x="410" y="339"/>
      <point x="494" y="236"/>
      <point x="659" y="236" type="curve" smooth="yes"/>
      <point x="710" y="236"/>
      <point x="762" y="247"/>
      <point x="814" y="269" type="curve" smooth="yes"/>
      <point x="866" y="290"/>
      <point x="914" y="319"/>
      <point x="981" y="371" type="curve"/>
      <point x="918" y="43" type="line"/>
      <point x="815" y="-5"/>
      <point x="707" y="-29"/>
      <point x="593" y="-29" type="curve" smooth="yes"/>
      <point x="269" y="-29"/>
      <point x="98" y="152"/>
    </contour>
  </outline>
</glyph>
<glyph name="dcroat" format="1">
  <advance width="1233"/>
  <unicode hex="0111"/>
  <outline>
    <contour>
      <point x="382" y="-29" type="curve" smooth="yes" name="dv01"/>
      <point x="286" y="-29"/>
      <point x="209" y="8" name="dh01"/>
      <point x="152" y="81" type="curve" smooth="yes"/>
      <point x="95" y="154"/>
      <point x="66" y="251"/>
      <point x="66" y="386" type="curve" smooth="yes" name="dv04"/>
      <point x="66" y="466"/>
      <point x="76" y="552"/>
      <point x="97" y="639" type="curve" smooth="yes" name="sv01"/>
      <point x="118" y="726"/>
      <point x="151" y="811"/>
      <point x="184" y="874" type="curve" smooth="yes" name="sv02"/>
      <point x="227" y="955" name="at01"/>
      <point x="286" y="1025"/>
      <point x="358" y="1076" type="curve" smooth="yes" name="sv03"/>
      <point x="427" y="1125"/>
      <point x="502" y="1149" name="sv04"/>
      <point x="581" y="1149" type="curve" smooth="yes" name="sv05"/>
      <point x="655" y="1149" name="ab01"/>
      <point x="717" y="1128"/>
      <point x="766" y="1086" type="curve" smooth="yes" name="ih01"/>
      <point x="811" y="1047"/>
      <point x="843" y="988"/>
      <point x="854" y="911" type="curve" name="dv02"/>
      <point x="920" y="1251" type="line"/>
      <point x="616" y="1251" type="line" name="sh01"/>
      <point x="653" y="1440" type="line"/>
      <point x="956" y="1440" type="line" name="dv03"/>
      <point x="979" y="1556" type="line"/>
      <point x="1272" y="1556" type="line" name="dh02"/>
      <point x="1249" y="1440" type="line"/>
      <point x="1395" y="1440" type="line"/>
      <point x="1358" y="1251" type="line"/>
      <point x="1212" y="1251" type="line" name="hr02"/>
      <point x="969" y="0" type="line"/>
      <point x="707" y="0" type="line" name="hr03"/>
      <point x="709" y="166" type="line"/>
      <point x="665" y="102"/>
      <point x="616" y="54"/>
      <point x="561" y="21" type="curve" smooth="yes"/>
      <point x="506" y="-12"/>
      <point x="446" y="-29"/>
    </contour>
    <contour>
      <point x="517" y="211" type="curve" smooth="yes"/>
      <point x="593" y="211"/>
      <point x="660" y="257"/>
      <point x="716" y="350" type="curve" smooth="yes"/>
      <point x="772" y="443"/>
      <point x="799" y="557"/>
      <point x="799" y="674" type="curve" smooth="yes"/>
      <point x="799" y="762"/>
      <point x="783" y="811"/>
      <point x="754" y="850" type="curve" smooth="yes"/>
      <point x="724" y="889"/>
      <point x="684" y="909"/>
      <point x="634" y="909" type="curve" smooth="yes"/>
      <point x="559" y="909"/>
      <point x="495" y="862"/>
      <point x="442" y="768" type="curve" smooth="yes"/>
      <point x="389" y="672"/>
      <point x="362" y="553"/>
      <point x="362" y="436" type="curve" smooth="yes"/>
      <point x="362" y="351"/>
      <point x="376" y="304"/>
      <point x="404" y="267" type="curve" smooth="yes"/>
      <point x="432" y="230"/>
      <point x="470" y="211"/>
    </contour>
  </outline>
</glyph>
<glyph name="Hcircumflex" format="1">
  <advance width="1233"/>
  <unicode hex="0124"/>
  <outline>
    <contour>
      <point x="676" y="1852" type="line" name="hr00"/>
      <point x="985" y="1852" type="line"/>
      <point x="1157" y="1588" type="line"/>
      <point x="979" y="1588" type="line"/>
      <point x="811" y="1749" type="line"/>
      <point x="582" y="1588" type="line"/>
      <point x="404" y="1588" type="line"/>
    </contour>
    <contour>
      <point x="282" y="1493" type="line"/>
      <point x="577" y="1493" type="line"/>
      <point x="467" y="924" type="line"/>
      <point x="836" y="924" type="line"/>
      <point x="946" y="1493" type="line"/>
      <point x="1241" y="1493" type="line"/>
      <point x="951" y="0" type="line"/>
      <point x="656" y="0" type="line"/>
      <point x="785" y="664" type="line"/>
      <point x="416" y="664" type="line"/>
      <point x="287" y="0" type="line"/>
      <point x="-8" y="0" type="line"/>
    </contour>
  </outline>
</glyph>
<glyph name="itilde" format="1">
  <advance width="1233"/>
  <unicode hex="0129"/>
  <outline>
    <contour>
      <point x="804" y="1270" type="curve" smooth="yes" name="dv01"/>
      <point x="757" y="1270"/>
      <point x="717" y="1286"/>
      <point x="664" y="1327" type="curve" smooth="yes"/>
      <point x="615" y="1364" type="line" name="sv01"/>
      <point x="610" y="1368" type="line" smooth="yes" name="sv02"/>
      <point x="582" y="1390"/>
      <point x="558" y="1401" name="at01"/>
      <point x="537" y="1401" type="curve" smooth="yes"/>
      <point x="492" y="1401"/>
      <point x="454" y="1352" name="dv02"/>
      <point x="441" y="1272" type="curve" name="at02"/>
      <point x="302" y="1272" type="line"/>
      <point x="326" y="1445"/>
      <point x="425" y="1556" name="ab01"/>
      <point x="552" y="1556" type="curve" smooth="yes"/>
      <point x="597" y="1556"/>
      <point x="632" y="1543"/>
      <point x="693" y="1495" type="curve" smooth="yes"/>
      <point x="744" y="1456" type="line" smooth="yes" name="sv03"/>
      <point x="770" y="1435"/>
      <point x="793" y="1425" name="at03"/>
      <point x="814" y="1425" type="curve" smooth="yes"/>
      <point x="865" y="1425"/>
      <point x="901" y="1470"/>
      <point x="914" y="1554" type="curve"/>
      <point x="1053" y="1554" type="line"/>
      <point x="1022" y="1365" name="sv04"/>
      <point x="939" y="1270"/>
    </contour>
    <contour>
      <point x="727" y="-8" type="line" smooth="yes"/>
      <point x="584" y="-8"/>
      <point x="494" y="10"/>
      <point x="437" y="49" type="curve"/>
      <point x="374" y="90"/>
      <point x="352" y="152"/>
      <point x="352" y="229" type="curve" smooth="yes"/>
      <point x="352" y="252"/>
      <point x="354" y="269"/>
      <point x="357" y="292" type="curve" smooth="yes"/>
      <point x="360" y="308"/>
      <point x="364" y="339"/>
      <point x="371" y="371" type="curve" smooth="yes"/>
      <point x="491" y="895" type="line"/>
      <point x="255" y="895" type="line"/>
      <point x="298" y="1120" type="line"/>
      <point x="826" y="1120" type="line" name="hr01"/>
      <point x="660" y="357" type="line"/>
      <point x="652" y="325"/>
      <point x="657" y="333"/>
      <point x="654" y="321" type="curve" smooth="yes"/>
      <point x="651" y="310"/>
      <point x="651" y="303"/>
      <point x="651" y="295" type="curve" smooth="yes"/>
      <point x="651" y="272"/>
      <point x="659" y="251"/>
      <point x="682" y="236" type="curve" smooth="yes"/>
      <point x="703" y="223"/>
      <point x="739" y="217"/>
      <point x="791" y="217" type="curve" smooth="yes"/>
      <point x="1069" y="217" type="line"/>
      <point x="1024" y="-8" type="line" name="hr02"/>
    </contour>
  </outline>
</glyph>
<glyph name="lacute" format="1">
  <advance width="1233"/>
  <unicode hex="013A"/>
  <outline>
    <contour>
      <point x="855" y="1901" type="line" name="av01"/>
      <point x="1136" y="1901" type="line"/>
      <point x="816" y="1637" type="line"/>
      <point x="609" y="1637" type="line" name="ih01"/>
    </contour>
    <contour>
      <point x="690" y="-10" type="line" smooth="yes" name="ab01"/>
      <point x="423" y="-10" name="dh01"/>
      <point x="315" y="59"/>
      <point x="315" y="223" type="curve" smooth="yes" name="sv01"/>
      <point x="315" y="262"/>
      <point x="321" y="306" name="at01"/>
      <point x="334" y="369" type="curve" smooth="yes"/>
      <point x="537" y="1331" type="line"/>
      <point x="231" y="1331" type="line" name="dh02"/>
      <point x="274" y="1556" type="line" name="sv02"/>
      <point x="872" y="1556" type="line"/>
      <point x="623" y="355" type="line" smooth="yes"/>
      <point x="617" y="325"/>
      <point x="614" y="303"/>
      <point x="614" y="289" type="curve" smooth="yes"/>
      <point x="614" y="233"/>
      <point x="663" y="215"/>
      <point x="754" y="215" type="curve" smooth="yes"/>
      <point x="1032" y="215" type="line"/>
      <point x="987" y="-10" type="line"/>
    </contour>
  </outline>
</glyph>
<glyph name="lcaron" format="1">
  <advance width="1233"/>
  <unicode hex="013E"/>
  <outline>
    <contour>
      <point x="690" y="-10" type="line" smooth="yes" name="ab01"/>
      <point x="423" y="-10" name="dh01"/>
      <point x="315" y="59"/>
      <point x="315" y="223" type="curve" smooth="yes" name="sv01"/>
      <point x="315" y="262"/>
      <point x="321" y="306" name="at01"/>
      <point x="334" y="369" type="curve" smooth="yes"/>
      <point x="537" y="1331" type="line"/>
      <point x="231" y="1331" type="line" name="dh02"/>
      <point x="274" y="1556" type="line" name="sv02"/>
      <point x="872" y="1556" type="line"/>
      <point x="623" y="355" type="line" smooth="yes"/>
      <point x="617" y="325" name="at02"/>
      <point x="614" y="303"/>
      <point x="614" y="289" type="curve" smooth="yes" name="sv03"/>
      <point x="614" y="233"/>
      <point x="663" y="215"/>
      <point x="754" y="215" type="curve" smooth="yes"/>
      <point x="1032" y="215" type="line"/>
      <point x="987" y="-10" type="line" name="hr01"/>
    </contour>
    <contour>
      <point x="990" y="1556" type="line"/>
      <point x="1311" y="1556" type="line"/>
      <point x="1054" y="1180" type="line"/>
      <point x="857" y="1180" type="line"/>
    </contour>
  </outline>
</glyph>
<glyph name="ldot" format="1">
  <advance width="1233"/>
  <unicode hex="0140"/>
  <outline>
    <contour>
      <point x="297" y="275" type="curve" smooth="yes" name="hr00"/>
      <point x="297" y="329"/>
      <point x="304" y="390"/>
      <point x="317" y="459" type="curve" smooth="yes"/>
      <point x="487" y="1331" type="line"/>
      <point x="190" y="1331" type="line"/>
      <point x="234" y="1556" type="line"/>
      <point x="824" y="1556" type="line"/>
      <point x="610" y="459" type="line" smooth="yes"/>
      <point x="602" y="418"/>
      <point x="598" y="383"/>
      <point x="598" y="353" type="curve" smooth="yes"/>
      <point x="598" y="257"/>
      <point x="642" y="217"/>
      <point x="743" y="217" type="curve" smooth="yes"/>
      <point x="977" y="217" type="line"/>
      <point x="934" y="-8" type="line"/>
      <point x="618" y="-8" type="line" smooth="yes"/>
      <point x="394" y="-8"/>
      <point x="297" y="76"/>
    </contour>
    <contour>
      <point x="793" y="686" type="curve"/>
      <point x="830" y="872" type="line" smooth="yes"/>
      <point x="834" y="892"/>
      <point x="846" y="902"/>
      <point x="865" y="902" type="curve" smooth="yes"/>
      <point x="1080" y="902" type="line" smooth="yes"/>
      <point x="1097" y="902"/>
      <point x="1106" y="895"/>
      <point x="1106" y="881" type="curve" smooth="yes"/>
      <point x="1106" y="876"/>
      <point x="1106" y="873"/>
      <point x="1105" y="872" type="curve"/>
      <point x="1068" y="686" type="line"/>
      <point x="1065" y="666"/>
      <point x="1054" y="656"/>
      <point x="1033" y="656" type="curve" smooth="yes"/>
      <point x="818" y="656" type="line" smooth="yes"/>
      <point x="799" y="656"/>
      <point x="790" y="666"/>
    </contour>
  </outline>
</glyph>
<glyph name="Omacron" format="1">
  <advance width="1233"/>
  <unicode hex="014C"/>
  <outline>
    <contour>
      <point x="509" y="1850" type="line" name="hr00"/>
      <point x="1140" y="1850" type="line" name="dv04"/>
      <point x="1104" y="1662" type="line" name="dv03"/>
      <point x="473" y="1662" type="line"/>
    </contour>
    <contour>
      <point x="497" y="-29" type="curve" smooth="yes" name="dv01"/>
      <point x="214" y="-29" name="sh01"/>
      <point x="61" y="139"/>
      <point x="61" y="482" type="curve" smooth="yes" name="at01"/>
      <point x="61" y="728" name="sh02"/>
      <point x="139" y="1045"/>
      <point x="246" y="1229" type="curve"/>
      <point x="355" y="1421" name="dv02"/>
      <point x="515" y="1520"/>
      <point x="735" y="1520" type="curve" smooth="yes"/>
      <point x="1016" y="1520" name="ah02"/>
      <point x="1171" y="1354" name="sv01"/>
      <point x="1171" y="1011" type="curve" smooth="yes"/>
      <point x="1171" y="784"/>
      <point x="1103" y="463" name="sh03"/>
      <point x="989" y="264" type="curve" smooth="yes"/>
      <point x="880" y="72" name="ah01"/>
      <point x="718" y="-29" name="sh04"/>
    </contour>
    <contour>
      <point x="528" y="233" type="curve" smooth="yes"/>
      <point x="612" y="233"/>
      <point x="670" y="281"/>
      <point x="719" y="373" type="curve" smooth="yes"/>
      <point x="752" y="434"/>
      <point x="782" y="517"/>
      <point x="810" y="630" type="curve" smooth="yes"/>
      <point x="842" y="763"/>
      <point x="868" y="916"/>
      <point x="868" y="1024" type="curve" smooth="yes"/>
      <point x="868" y="1181"/>
      <point x="814" y="1260"/>
      <point x="705" y="1260" type="curve" smooth="yes"/>
      <point x="618" y="1260"/>
      <point x="562" y="1211"/>
      <point x="514" y="1119" type="curve"/>
      <point x="483" y="1062"/>
      <point x="453" y="981"/>
      <point x="422" y="861" type="curve" smooth="yes"/>
      <point x="382" y="702"/>
      <point x="365" y="537"/>
      <point x="365" y="458" type="curve" smooth="yes"/>
      <point x="365" y="315"/>
      <point x="417" y="233"/>
    </contour>
  </outline>
</glyph>
<glyph name="scedilla" format="1">
  <advance width="1233"/>
  <unicode hex="015F"/>
  <outline>
    <contour>
      <point x="553" y="903" type="curve" smooth="yes" name="hr00"/>
      <point x="516" y="880" name="sh02"/>
      <point x="498" y="849"/>
      <point x="498" y="810" type="curve" smooth="yes"/>
      <point x="498" y="779"/>
      <point x="510" y="755"/>
      <point x="535" y="737" type="curve" smooth="yes" name="sh03"/>
      <point x="562" y="718"/>
      <point x="612" y="697" name="ih01"/>
      <point x="700" y="672" type="curve" smooth="yes"/>
      <point x="774" y="651" type="line" smooth="yes"/>
      <point x="862" y="626"/>
      <point x="924" y="588" name="dv01"/>
      <point x="961" y="544" type="curve" smooth="yes" name="sv01"/>
      <point x="1000" y="499"/>
      <point x="1020" y="439"/>
      <point x="1020" y="359" type="curve" smooth="yes"/>
      <point x="1020" y="238" name="dv02"/>
      <point x="972" y="142"/>
      <point x="884" y="75" type="curve" smooth="yes"/>
      <point x="807" y="16"/>
      <point x="702" y="-15"/>
      <point x="581" y="-26" type="curve"/>
      <point x="596" y="-50"/>
      <point x="608" y="-73"/>
      <point x="617" y="-94" type="curve" smooth="yes"/>
      <point x="629" y="-125" name="sh04"/>
      <point x="635" y="-156"/>
      <point x="635" y="-185" type="curve" smooth="yes" name="ah02"/>
      <point x="635" y="-248"/>
      <point x="611" y="-303"/>
      <point x="560" y="-342" type="curve" smooth="yes"/>
      <point x="511" y="-381"/>
      <point x="440" y="-401" name="sh01"/>
      <point x="348" y="-401" type="curve" smooth="yes"/>
      <point x="313" y="-401" name="at01"/>
      <point x="274" y="-398"/>
      <point x="249" y="-395" type="curve" smooth="yes"/>
      <point x="193" y="-388"/>
      <point x="171" y="-379"/>
      <point x="150" y="-375" type="curve" name="sv02"/>
      <point x="178" y="-219" type="line"/>
      <point x="207" y="-230" name="ah01"/>
      <point x="235" y="-238" name="sh05"/>
      <point x="262" y="-245" type="curve" smooth="yes"/>
      <point x="289" y="-251"/>
      <point x="314" y="-254"/>
      <point x="339" y="-254" type="curve" smooth="yes"/>
      <point x="384" y="-254"/>
      <point x="420" y="-244"/>
      <point x="443" y="-227" type="curve" smooth="yes"/>
      <point x="467" y="-209"/>
      <point x="479" y="-183"/>
      <point x="479" y="-150" type="curve" smooth="yes"/>
      <point x="479" y="-133"/>
      <point x="475" y="-112"/>
      <point x="466" y="-89" type="curve" smooth="yes"/>
      <point x="459" y="-73"/>
      <point x="450" y="-52"/>
      <point x="437" y="-27" type="curve"/>
      <point x="386" y="-24"/>
      <point x="334" y="-19"/>
      <point x="293" y="-12" type="curve" smooth="yes"/>
      <point x="229" y="-1"/>
      <point x="157" y="18"/>
      <point x="90" y="41" type="curve"/>
      <point x="141" y="297" type="line"/>
      <point x="205" y="256"/>
      <point x="258" y="232"/>
      <point x="322" y="212" type="curve" smooth="yes"/>
      <point x="383" y="193"/>
      <point x="442" y="182"/>
      <point x="510" y="182" type="curve" smooth="yes"/>
      <point x="583" y="182"/>
      <point x="641" y="195"/>
      <point x="682" y="220" type="curve" smooth="yes"/>
      <point x="723" y="245"/>
      <point x="743" y="280"/>
      <point x="743" y="326" type="curve" smooth="yes"/>
      <point x="743" y="362"/>
      <point x="731" y="380"/>
      <point x="712" y="395" type="curve" smooth="yes"/>
      <point x="685" y="416"/>
      <point x="630" y="438"/>
      <point x="549" y="461" type="curve" smooth="yes"/>
      <point x="461" y="485" type="line" smooth="yes"/>
      <point x="388" y="505"/>
      <point x="325" y="540"/>
      <point x="282" y="592" type="curve" smooth="yes"/>
      <point x="246" y="636"/>
      <point x="225" y="691"/>
      <point x="225" y="767" type="curve" smooth="yes"/>
      <point x="225" y="884"/>
      <point x="273" y="980"/>
      <point x="360" y="1045" type="curve" smooth="yes"/>
      <point x="447" y="1110"/>
      <point x="572" y="1147"/>
      <point x="725" y="1147" type="curve" smooth="yes"/>
      <point x="786" y="1147"/>
      <point x="856" y="1141"/>
      <point x="909" y="1132" type="curve" smooth="yes"/>
      <point x="962" y="1123"/>
      <point x="1037" y="1105"/>
      <point x="1094" y="1085" type="curve"/>
      <point x="1044" y="831" type="line"/>
      <point x="993" y="866"/>
      <point x="939" y="893"/>
      <point x="882" y="911" type="curve" smooth="yes"/>
      <point x="823" y="930"/>
      <point x="764" y="938"/>
      <point x="705" y="938" type="curve" smooth="yes"/>
      <point x="637" y="938"/>
      <point x="590" y="926"/>
    </contour>
  </outline>
</glyph>
<glyph name="tbar" format="1">
  <advance width="1233"/>
  <unicode hex="0167"/>
  <outline>
    <contour>
      <point x="706" y="-5" type="line" smooth="yes" name="ab01"/>
      <point x="539" y="-5"/>
      <point x="430" y="22"/>
      <point x="381" y="75" type="curve" smooth="yes"/>
      <point x="350" y="110" name="dv01"/>
      <point x="334" y="162"/>
      <point x="334" y="233" type="curve" smooth="yes"/>
      <point x="334" y="274" name="dv02"/>
      <point x="339" y="321" name="sv01"/>
      <point x="350" y="374" type="curve"/>
      <point x="385" y="561" type="line" name="at01"/>
      <point x="207" y="561" type="line"/>
      <point x="245" y="753" type="line" name="av01"/>
      <point x="423" y="753" type="line"/>
      <point x="450" y="895" type="line" name="at02"/>
      <point x="164" y="895" type="line"/>
      <point x="208" y="1120" type="line" name="sv02"/>
      <point x="494" y="1120" type="line" name="sv03"/>
      <point x="556" y="1438" type="line" name="sv04"/>
      <point x="849" y="1438" type="line"/>
      <point x="787" y="1120" type="line" name="sv05"/>
      <point x="1170" y="1120" type="line"/>
      <point x="1126" y="895" type="line"/>
      <point x="743" y="895" type="line"/>
      <point x="716" y="753" type="line"/>
      <point x="900" y="753" type="line" name="sv06"/>
      <point x="862" y="561" type="line" name="sv07"/>
      <point x="678" y="561" type="line" name="ab02"/>
      <point x="640" y="360" type="line" smooth="yes"/>
      <point x="637" y="341"/>
      <point x="635" y="326"/>
      <point x="635" y="315" type="curve" smooth="yes"/>
      <point x="635" y="288"/>
      <point x="642" y="268"/>
      <point x="655" y="253" type="curve" smooth="yes"/>
      <point x="676" y="231"/>
      <point x="714" y="220"/>
      <point x="771" y="220" type="curve" smooth="yes"/>
      <point x="996" y="220" type="line"/>
      <point x="952" y="-5" type="line"/>
    </contour>
  </outline>
</glyph>
<glyph name="umacron" format="1">
  <advance width="1233"/>
  <unicode hex="016B"/>
  <outline>
    <contour>
      <point x="469" y="1508" type="line" name="at03"/>
      <point x="1100" y="1508" type="line"/>
      <point x="1063" y="1320" type="line" name="sv01"/>
      <point x="432" y="1320" type="line"/>
    </contour>
    <contour>
      <point x="368" y="-29" type="curve" smooth="yes" name="sv03"/>
      <point x="204" y="-29" name="dh01"/>
      <point x="106" y="67"/>
      <point x="106" y="244" type="curve" smooth="yes" name="at01"/>
      <point x="106" y="283"/>
      <point x="111" y="327"/>
      <point x="123" y="391" type="curve" smooth="yes" name="dh02"/>
      <point x="266" y="1120" type="line" name="sv02"/>
      <point x="557" y="1120" type="line"/>
      <point x="426" y="436" type="line" smooth="yes" name="at02"/>
      <point x="419" y="400"/>
      <point x="416" y="362" name="ab01"/>
      <point x="416" y="338" type="curve" smooth="yes"/>
      <point x="416" y="251" name="sh01"/>
      <point x="456" y="211"/>
      <point x="528" y="211" type="curve" smooth="yes"/>
      <point x="635" y="211"/>
      <point x="715" y="298"/>
      <point x="752" y="489" type="curve" smooth="yes"/>
      <point x="874" y="1120" type="line"/>
      <point x="1165" y="1120" type="line" name="hr02"/>
      <point x="948" y="0" type="line"/>
      <point x="684" y="0" type="line"/>
      <point x="688" y="166" type="line"/>
      <point x="628" y="45"/>
      <point x="513" y="-29"/>
    </contour>
  </outline>
</glyph>
<glyph name="zcaron" format="1">
  <advance width="1233"/>
  <unicode hex="017E"/>
  <outline>
    <contour>
      <point x="444" y="1648" type="line" name="av01"/>
      <point x="618" y="1648" type="line"/>
      <point x="771" y="1421" type="line"/>
      <point x="1009" y="1648" type="line" name="av02"/>
      <point x="1199" y="1648" type="line"/>
      <point x="868" y="1272" type="line"/>
      <point x="626" y="1272" type="line"/>
    </contour>
    <contour>
      <point x="94" y="229" type="line"/>
      <point x="801" y="901" type="line" name="sv01"/>
      <point x="250" y="901" type="line"/>
      <point x="293" y="1120" type="line" name="at01"/>
      <point x="1188" y="1120" type="line"/>
      <point x="1143" y="891" type="line"/>
      <point x="436" y="219" type="line" name="sv02"/>
      <point x="1012" y="219" type="line"/>
      <point x="969" y="0" type="line" name="ab01"/>
      <point x="49" y="0" type="line"/>
    </contour>
  </outline>
</glyph>
<glyph name="Ohorn" format="1">
  <advance width="1233"/>
  <unicode hex="01A0"/>
  <outline>
    <contour>
      <point x="1388" y="1555" type="line" name="at02"/>
      <point x="1388" y="1482"/>
      <point x="1384" y="1421" name="sv01"/>
      <point x="1373" y="1365" type="curve" smooth="yes" name="sh02"/>
      <point x="1342" y="1213" name="sh01"/>
      <point x="1264" y="1127"/>
      <point x="1149" y="1127" type="curve" smooth="yes" name="dv01"/>
      <point x="1136" y="1127" name="sh03"/>
      <point x="1124" y="1128"/>
      <point x="1112" y="1130" type="curve" name="at01"/>
      <point x="1117" y="1093"/>
      <point x="1119" y="1054"/>
      <point x="1119" y="1011" type="curve" smooth="yes" name="sh04"/>
      <point x="1119" y="784"/>
      <point x="1051" y="463"/>
      <point x="937" y="264" type="curve" smooth="yes"/>
      <point x="828" y="72"/>
      <point x="666" y="-29" name="ah02"/>
      <point x="445" y="-29" type="curve" smooth="yes" name="sv02"/>
      <point x="162" y="-29"/>
      <point x="9" y="139"/>
      <point x="9" y="482" type="curve" smooth="yes" name="sh05"/>
      <point x="9" y="728" name="dv02"/>
      <point x="87" y="1045"/>
      <point x="194" y="1229" type="curve"/>
      <point x="303" y="1421" name="ah01"/>
      <point x="463" y="1520" name="sh06"/>
      <point x="683" y="1520" type="curve" smooth="yes" name="hr01"/>
      <point x="864" y="1520"/>
      <point x="991" y="1453"/>
      <point x="1060" y="1313" type="curve"/>
      <point x="1065" y="1310" type="line" smooth="yes"/>
      <point x="1086" y="1297"/>
      <point x="1106" y="1291"/>
      <point x="1123" y="1291" type="curve" smooth="yes" name="hr02"/>
      <point x="1170" y="1291"/>
      <point x="1216" y="1323"/>
      <point x="1232" y="1399" type="curve" smooth="yes"/>
      <point x="1237" y="1423"/>
      <point x="1240" y="1454"/>
      <point x="1240" y="1478" type="curve" smooth="yes"/>
      <point x="1240" y="1501"/>
      <point x="1237" y="1526"/>
      <point x="1232" y="1555" type="curve" name="hr03"/>
    </contour>
    <contour>
      <point x="758" y="630" type="curve" smooth="yes"/>
      <point x="790" y="763"/>
      <point x="816" y="916"/>
      <point x="816" y="1024" type="curve" smooth="yes"/>
      <point x="816" y="1181"/>
      <point x="762" y="1260"/>
      <point x="653" y="1260" type="curve" smooth="yes"/>
      <point x="566" y="1260"/>
      <point x="510" y="1211"/>
      <point x="462" y="1119" type="curve"/>
      <point x="431" y="1062"/>
      <point x="401" y="981"/>
      <point x="370" y="861" type="curve" smooth="yes"/>
      <point x="330" y="702"/>
      <point x="313" y="537"/>
      <point x="313" y="458" type="curve" smooth="yes"/>
      <point x="313" y="315"/>
      <point x="365" y="233"/>
      <point x="476" y="233" type="curve" smooth="yes" name="hr04"/>
      <point x="560" y="233"/>
      <point x="618" y="281"/>
      <point x="667" y="373" type="curve" smooth="yes"/>
      <point x="700" y="434"/>
      <point x="730" y="517"/>
    </contour>
  </outline>
</glyph>
<glyph name="uhorn" format="1">
  <advance width="1233"/>
  <unicode hex="01B0"/>
  <outline>
    <contour>
      <point x="1336" y="1167" type="line"/>
      <point x="1336" y="1094"/>
      <point x="1332" y="1033" name="sv01"/>
      <point x="1321" y="977" type="curve" smooth="yes"/>
      <point x="1290" y="825" name="ab01"/>
      <point x="1212" y="739"/>
      <point x="1097" y="739" type="curve" smooth="yes" name="sh01"/>
      <point x="1074" y="739" name="sv03"/>
      <point x="1052" y="742" name="dh01"/>
      <point x="1032" y="749" type="curve"/>
      <point x="887" y="0" type="line" name="at01"/>
      <point x="623" y="0" type="line" name="hr01"/>
      <point x="627" y="166" type="line"/>
      <point x="567" y="45" name="dh02"/>
      <point x="452" y="-29" name="sv02"/>
      <point x="307" y="-29" type="curve" smooth="yes"/>
      <point x="143" y="-29" name="at02"/>
      <point x="45" y="67"/>
      <point x="45" y="244" type="curve" smooth="yes"/>
      <point x="45" y="283"/>
      <point x="50" y="327"/>
      <point x="62" y="391" type="curve" smooth="yes"/>
      <point x="205" y="1120" type="line" name="sv04"/>
      <point x="496" y="1120" type="line"/>
      <point x="365" y="436" type="line" smooth="yes"/>
      <point x="358" y="400"/>
      <point x="355" y="362"/>
      <point x="355" y="338" type="curve" smooth="yes"/>
      <point x="355" y="251"/>
      <point x="395" y="211"/>
      <point x="467" y="211" type="curve" smooth="yes"/>
      <point x="574" y="211"/>
      <point x="654" y="298"/>
      <point x="691" y="489" type="curve" smooth="yes"/>
      <point x="813" y="1120" type="line"/>
      <point x="1104" y="1120" type="line" name="hr02"/>
      <point x="1062" y="903" type="line"/>
      <point x="1071" y="903" type="line" smooth="yes"/>
      <point x="1118" y="903"/>
      <point x="1164" y="935"/>
      <point x="1180" y="1011" type="curve" smooth="yes"/>
      <point x="1185" y="1035"/>
      <point x="1188" y="1066"/>
      <point x="1188" y="1090" type="curve" smooth="yes"/>
      <point x="1188" y="1113"/>
      <point x="1185" y="1138"/>
      <point x="1180" y="1167" type="curve"/>
    </contour>
  </outline>
</glyph>
<glyph name="uni021B" format="1">
  <advance width="1233"/>
  <unicode hex="021B"/>
  <outline>
    <contour>
      <point x="639" y="360" type="line" name="hr00"/>
      <point x="633" y="325" type="line"/>
      <point x="632" y="314"/>
      <point x="631" y="308"/>
      <point x="631" y="300" type="curve" smooth="yes" name="sv01"/>
      <point x="631" y="271" name="sv02"/>
      <point x="641" y="251" name="ab01"/>
      <point x="661" y="239" type="curve" name="ih01"/>
      <point x="680" y="226" name="dh02"/>
      <point x="717" y="220" name="dv01"/>
      <point x="770" y="220" type="curve" smooth="yes"/>
      <point x="995" y="220" type="line"/>
      <point x="952" y="-5" type="line" name="dv02"/>
      <point x="752" y="-5" type="line" name="dh01"/>
      <point x="795" y="-66" name="ab02"/>
      <point x="817" y="-122"/>
      <point x="817" y="-182" type="curve" smooth="yes"/>
      <point x="817" y="-312"/>
      <point x="709" y="-397"/>
      <point x="527" y="-397" type="curve" smooth="yes" name="sv03"/>
      <point x="467" y="-397"/>
      <point x="396" y="-388" name="at01"/>
      <point x="332" y="-371" type="curve"/>
      <point x="360" y="-215" type="line" name="av01"/>
      <point x="418" y="-238"/>
      <point x="472" y="-250" name="at02"/>
      <point x="522" y="-250" type="curve" smooth="yes"/>
      <point x="610" y="-250" name="sv04"/>
      <point x="661" y="-214" name="sv05"/>
      <point x="661" y="-147" type="curve" smooth="yes"/>
      <point x="661" y="-112"/>
      <point x="646" y="-72"/>
      <point x="607" y="-1" type="curve"/>
      <point x="520" y="6"/>
      <point x="461" y="24"/>
      <point x="418" y="52" type="curve" smooth="yes"/>
      <point x="357" y="92"/>
      <point x="332" y="153"/>
      <point x="332" y="229" type="curve" smooth="yes"/>
      <point x="332" y="252"/>
      <point x="334" y="267"/>
      <point x="337" y="290" type="curve" smooth="yes"/>
      <point x="340" y="306"/>
      <point x="343" y="342"/>
      <point x="350" y="374" type="curve"/>
      <point x="451" y="895" type="line"/>
      <point x="164" y="895" type="line"/>
      <point x="207" y="1120" type="line"/>
      <point x="494" y="1120" type="line"/>
      <point x="555" y="1438" type="line"/>
      <point x="848" y="1438" type="line"/>
      <point x="786" y="1120" type="line"/>
      <point x="1169" y="1120" type="line"/>
      <point x="1126" y="895" type="line"/>
      <point x="743" y="895" type="line"/>
    </contour>
  </outline>
</glyph>
<glyph name="uni0310" format="1">
  <advance width="0"/>
  <unicode hex="0310"/>
  <outline>
    <contour>
      <point x="-77" y="1822" type="line" name="av01"/>
      <point x="-116" y="1631" name="dv01"/>
      <point x="-252" y="1525"/>
      <point x="-456" y="1525" type="curve" smooth="yes" name="av02"/>
      <point x="-653" y="1525"/>
      <point x="-751" y="1613" name="av03"/>
      <point x="-751" y="1789" type="curve" smooth="yes"/>
      <point x="-751" y="1822" type="line" name="dv02"/>
      <point x="-607" y="1822" type="line"/>
      <point x="-607" y="1809" type="line" smooth="yes" name="iv01"/>
      <point x="-607" y="1772"/>
      <point x="-595" y="1742"/>
      <point x="-570" y="1719" type="curve"/>
      <point x="-554" y="1801" type="line"/>
      <point x="-282" y="1801" type="line"/>
      <point x="-298" y="1718" type="line"/>
      <point x="-262" y="1743"/>
      <point x="-236" y="1777"/>
      <point x="-220" y="1822" type="curve"/>
    </contour>
  </outline>
</glyph>
<glyph name="uni0311" format="1">
  <advance width="0"/>
  <unicode hex="0311"/>
  <outline>
    <contour>
      <point x="-843" y="1309" type="line" name="sv01"/>
      <point x="-798" y="1502" name="dv02"/>
      <point x="-659" y="1606" name="dh02"/>
      <point x="-450" y="1606" type="curve" smooth="yes" name="sh01"/>
      <point x="-241" y="1606" name="dv01"/>
      <point x="-166" y="1504" name="dh01"/>
      <point x="-166" y="1373" type="curve" smooth="yes" name="sv02"/>
      <point x="-166" y="1353" name="sv03"/>
      <point x="-168" y="1332"/>
      <point x="-172" y="1309" type="curve" name="hr02"/>
      <point x="-315" y="1309" type="line"/>
      <point x="-314" y="1311"/>
      <point x="-314" y="1314"/>
      <point x="-314" y="1317" type="curve" smooth="yes"/>
      <point x="-314" y="1402"/>
      <point x="-368" y="1453"/>
      <point x="-480" y="1453" type="curve" smooth="yes"/>
      <point x="-592" y="1453"/>
      <point x="-669" y="1401"/>
      <point x="-702" y="1309" type="curve"/>
    </contour>
  </outline>
</glyph>
<glyph name="uni032C" format="1">
  <advance width="0"/>
  <unicode hex="032C"/>
  <outline>
    <contour>
      <point x="-1159" y="-109" type="line" name="av02"/>
      <point x="-981" y="-109" type="line"/>
      <point x="-827" y="-336" type="line"/>
      <point x="-584" y="-109" type="line" name="av03"/>
      <point x="-406" y="-109" type="line"/>
      <point x="-735" y="-485" type="line" name="av01"/>
      <point x="-976" y="-485" type="line"/>
    </contour>
  </outline>
</glyph>
<glyph name="uni032E" format="1">
  <advance width="0"/>
  <unicode hex="032E"/>
  <outline>
    <contour>
      <point x="-840" y="-491" type="curve" smooth="yes" name="ab01"/>
      <point x="-1037" y="-491"/>
      <point x="-1135" y="-403" name="dh01"/>
      <point x="-1135" y="-227" type="curve" smooth="yes"/>
      <point x="-1135" y="-194" type="line" name="dh02"/>
      <point x="-991" y="-194" type="line" name="sv01"/>
      <point x="-991" y="-207" type="line" smooth="yes" name="sv02"/>
      <point x="-991" y="-288" name="sv03"/>
      <point x="-928" y="-340"/>
      <point x="-827" y="-340" type="curve" smooth="yes" name="hr02"/>
      <point x="-719" y="-340"/>
      <point x="-637" y="-286"/>
      <point x="-604" y="-194" type="curve"/>
      <point x="-461" y="-194" type="line"/>
      <point x="-500" y="-385"/>
      <point x="-636" y="-491"/>
    </contour>
  </outline>
</glyph>
<glyph name="Omegatonos" format="1">
  <advance width="1233"/>
  <unicode hex="038F"/>
  <outline>
    <contour>
      <point x="164" y="1502" type="line" name="at02"/>
      <point x="485" y="1502" type="line" name="ih01"/>
      <point x="43" y="1126" type="line" name="at01"/>
      <point x="-154" y="1126" type="line"/>
    </contour>
    <contour>
      <point x="4" y="211" type="line" name="sv01"/>
      <point x="242" y="211" type="line" name="ih02"/>
      <point x="147" y="315" name="sh01"/>
      <point x="104" y="430"/>
      <point x="104" y="582" type="curve" smooth="yes" name="sv03"/>
      <point x="104" y="642" name="sh02"/>
      <point x="111" y="709"/>
      <point x="125" y="782" type="curve" smooth="yes" name="ih03"/>
      <point x="205" y="1192" name="sv04"/>
      <point x="454" y="1460" name="ab01"/>
      <point x="772" y="1460" type="curve" smooth="yes"/>
      <point x="1030" y="1460"/>
      <point x="1179" y="1282"/>
      <point x="1179" y="989" type="curve" smooth="yes" name="ah02"/>
      <point x="1179" y="925"/>
      <point x="1172" y="856" name="sv02"/>
      <point x="1158" y="782" type="curve" smooth="yes"/>
      <point x="1110" y="528" name="sh03"/>
      <point x="1006" y="355"/>
      <point x="819" y="211" type="curve" name="ab02"/>
      <point x="1057" y="211" type="line"/>
      <point x="1016" y="0" type="line" name="ah01"/>
      <point x="545" y="0" type="line" name="sh04"/>
      <point x="597" y="268" type="line"/>
      <point x="734" y="381"/>
      <point x="804" y="527"/>
      <point x="849" y="748" type="curve" smooth="yes"/>
      <point x="865" y="828"/>
      <point x="873" y="898"/>
      <point x="873" y="957" type="curve" smooth="yes"/>
      <point x="873" y="1004"/>
      <point x="868" y="1044"/>
      <point x="858" y="1078" type="curve" smooth="yes"/>
      <point x="835" y="1157"/>
      <point x="789" y="1194"/>
      <point x="722" y="1194" type="curve" smooth="yes"/>
      <point x="582" y="1194"/>
      <point x="473" y="1024"/>
      <point x="419" y="748" type="curve" smooth="yes"/>
      <point x="405" y="676"/>
      <point x="398" y="611"/>
      <point x="398" y="552" type="curve" smooth="yes"/>
      <point x="398" y="431"/>
      <point x="428" y="337"/>
      <point x="488" y="268" type="curve"/>
      <point x="436" y="0" type="line" name="hr01"/>
      <point x="-37" y="0" type="line"/>
    </contour>
  </outline>
</glyph>
<glyph name="Theta" format="1">
  <advance width="1233"/>
  <unicode hex="0398"/>
  <outline>
    <contour>
      <point x="-21" y="452" type="curve" smooth="yes" name="hr00"/>
      <point x="-21" y="521"/>
      <point x="-13" y="597"/>
      <point x="3" y="680" type="curve" smooth="yes"/>
      <point x="95" y="1154"/>
      <point x="366" y="1418"/>
      <point x="754" y="1418" type="curve" smooth="yes"/>
      <point x="1071" y="1418"/>
      <point x="1241" y="1244"/>
      <point x="1241" y="916" type="curve" smooth="yes"/>
      <point x="1241" y="845"/>
      <point x="1232" y="765"/>
      <point x="1215" y="675" type="curve" smooth="yes"/>
      <point x="1122" y="199"/>
      <point x="867" y="-24"/>
      <point x="479" y="-24" type="curve" smooth="yes"/>
      <point x="148" y="-24"/>
      <point x="-21" y="136"/>
    </contour>
    <contour>
      <point x="934" y="686" type="curve" smooth="yes"/>
      <point x="949" y="761"/>
      <point x="957" y="831"/>
      <point x="957" y="895" type="curve" smooth="yes"/>
      <point x="957" y="1087"/>
      <point x="876" y="1183"/>
      <point x="713" y="1183" type="curve" smooth="yes"/>
      <point x="596" y="1183"/>
      <point x="503" y="1138"/>
      <point x="434" y="1047" type="curve" smooth="yes"/>
      <point x="365" y="957"/>
      <point x="316" y="837"/>
      <point x="287" y="686" type="curve" smooth="yes"/>
      <point x="274" y="618"/>
      <point x="267" y="558"/>
      <point x="267" y="505" type="curve" smooth="yes"/>
      <point x="267" y="328"/>
      <point x="345" y="231"/>
      <point x="529" y="231" type="curve"/>
      <point x="769" y="233"/>
      <point x="875" y="389"/>
    </contour>
    <contour>
      <point x="421" y="809" type="line"/>
      <point x="848" y="809" type="line"/>
      <point x="803" y="579" type="line"/>
      <point x="376" y="579" type="line"/>
    </contour>
  </outline>
</glyph>
<glyph name="iotatonos" format="1">
  <advance width="1233"/>
  <unicode hex="03AF"/>
  <outline>
    <contour>
      <point x="857" y="1648" type="line" name="av01"/>
      <point x="1178" y="1648" type="line"/>
      <point x="736" y="1272" type="line"/>
      <point x="539" y="1272" type="line" name="ih01"/>
    </contour>
    <contour>
      <point x="762" y="-8" type="line" smooth="yes" name="ab01"/>
      <point x="494" y="-8" name="dh01"/>
      <point x="389" y="46"/>
      <point x="389" y="222" type="curve" smooth="yes" name="sv01"/>
      <point x="389" y="265"/>
      <point x="395" y="312" name="at01"/>
      <point x="406" y="371" type="curve" smooth="yes"/>
      <point x="506" y="895" type="line"/>
      <point x="305" y="895" type="line" name="dh02"/>
      <point x="349" y="1120" type="line" name="sv02"/>
      <point x="842" y="1120" type="line"/>
      <point x="695" y="357" type="line" smooth="yes"/>
      <point x="692" y="341"/>
      <point x="690" y="328"/>
      <point x="690" y="313" type="curve" smooth="yes"/>
      <point x="690" y="245"/>
      <point x="733" y="217"/>
      <point x="826" y="217" type="curve" smooth="yes"/>
      <point x="884" y="217" type="line"/>
      <point x="840" y="-8" type="line"/>
    </contour>
  </outline>
</glyph>
<glyph name="uni0423" format="1">
  <advance width="1233"/>
  <unicode hex="0423"/>
  <outline>
    <contour>
      <point x="113" y="260" type="line" name="sv01"/>
      <point x="193" y="260" type="line" smooth="yes"/>
      <point x="230" y="260"/>
      <point x="259" y="263"/>
      <point x="279" y="268" type="curve" smooth="yes"/>
      <point x="323" y="280" name="at01"/>
      <point x="372" y="320"/>
      <point x="415" y="396" type="curve" smooth="yes" name="iv01"/>
      <point x="498" y="541" type="line" name="at02"/>
      <point x="196" y="1493" type="line"/>
      <point x="501" y="1493" type="line"/>
      <point x="697" y="873" type="line" name="ab01"/>
      <point x="1068" y="1493" type="line"/>
      <point x="1373" y="1493" type="line"/>
      <point x="664" y="303" type="line"/>
      <point x="541" y="99"/>
      <point x="419" y="0"/>
      <point x="263" y="0" type="curve" smooth="yes"/>
      <point x="63" y="0" type="line"/>
    </contour>
  </outline>
</glyph>
<glyph name="uni042E" format="1">
  <advance width="1233"/>
  <unicode hex="042E"/>
  <outline>
    <contour>
      <point x="674" y="-29" type="curve" smooth="yes" name="av01"/>
      <point x="473" y="-29" name="sh01"/>
      <point x="381" y="173"/>
      <point x="381" y="449" type="curve" smooth="yes"/>
      <point x="381" y="514" name="ab01"/>
      <point x="386" y="581"/>
      <point x="396" y="651" type="curve" name="at01"/>
      <point x="282" y="651" type="line"/>
      <point x="155" y="0" type="line"/>
      <point x="-85" y="0" type="line"/>
      <point x="205" y="1493" type="line" name="sh02"/>
      <point x="445" y="1493" type="line" name="sh03"/>
      <point x="332" y="911" type="line"/>
      <point x="450" y="911" type="line"/>
      <point x="531" y="1194"/>
      <point x="715" y="1520"/>
      <point x="990" y="1520" type="curve" smooth="yes" name="ah02"/>
      <point x="1173" y="1520" name="sh04"/>
      <point x="1269" y="1381" name="sv01"/>
      <point x="1269" y="1122" type="curve" smooth="yes"/>
      <point x="1269" y="1017"/>
      <point x="1253" y="881" name="sh05"/>
      <point x="1226" y="745" type="curve" smooth="yes" name="sh06"/>
      <point x="1125" y="247"/>
      <point x="909" y="-29" name="ah01"/>
    </contour>
    <contour>
      <point x="723" y="236" type="curve" smooth="yes"/>
      <point x="756" y="236"/>
      <point x="801" y="283"/>
      <point x="841" y="366" type="curve" smooth="yes"/>
      <point x="922" y="536"/>
      <point x="993" y="865"/>
      <point x="993" y="1052" type="curve" smooth="yes" name="hr01"/>
      <point x="993" y="1084"/>
      <point x="992" y="1108"/>
      <point x="989" y="1125" type="curve"/>
      <point x="978" y="1212"/>
      <point x="954" y="1255"/>
      <point x="922" y="1255" type="curve" smooth="yes"/>
      <point x="889" y="1255"/>
      <point x="849" y="1207"/>
      <point x="803" y="1111" type="curve" smooth="yes"/>
      <point x="755" y="1010"/>
      <point x="722" y="905"/>
      <point x="690" y="745" type="curve" smooth="yes"/>
      <point x="664" y="614"/>
      <point x="651" y="509"/>
      <point x="651" y="432" type="curve" smooth="yes"/>
      <point x="651" y="401"/>
      <point x="653" y="379"/>
      <point x="656" y="358" type="curve" smooth="yes"/>
      <point x="667" y="279"/>
      <point x="691" y="236"/>
    </contour>
  </outline>
</glyph>
<glyph name="uni0432" format="1">
  <advance width="1233"/>
  <unicode hex="0432"/>
  <outline>
    <contour>
      <point x="253" y="1120" type="line" name="at01"/>
      <point x="721" y="1120" type="line" smooth="yes"/>
      <point x="896" y="1120"/>
      <point x="997" y="1099" name="sh01"/>
      <point x="1060" y="1058" type="curve" smooth="yes" name="ih02"/>
      <point x="1116" y="1021" name="dh02"/>
      <point x="1147" y="965"/>
      <point x="1147" y="880" type="curve" smooth="yes" name="ab01"/>
      <point x="1147" y="752"/>
      <point x="1080" y="646" name="dv02"/>
      <point x="937" y="599" type="curve" name="ih01"/>
      <point x="1063" y="562"/>
      <point x="1100" y="475" name="sv01"/>
      <point x="1100" y="391" type="curve" smooth="yes"/>
      <point x="1100" y="372"/>
      <point x="1098" y="348" name="sv02"/>
      <point x="1093" y="321" type="curve" smooth="yes" name="dh01"/>
      <point x="1053" y="106"/>
      <point x="869" y="0" name="dv01"/>
      <point x="552" y="0" type="curve" smooth="yes"/>
      <point x="35" y="0" type="line"/>
    </contour>
    <contour>
      <point x="619" y="698" type="line" smooth="yes"/>
      <point x="796" y="698" name="sh02"/>
      <point x="856" y="732"/>
      <point x="856" y="807" type="curve" smooth="yes" name="hr01"/>
      <point x="856" y="842"/>
      <point x="843" y="864"/>
      <point x="826" y="876" type="curve" smooth="yes"/>
      <point x="807" y="890"/>
      <point x="775" y="901"/>
      <point x="658" y="901" type="curve" smooth="yes"/>
      <point x="502" y="901" type="line"/>
      <point x="463" y="698" type="line"/>
    </contour>
    <contour>
      <point x="537" y="219" type="line" smooth="yes" name="hr02"/>
      <point x="696" y="219"/>
      <point x="808" y="258"/>
      <point x="808" y="370" type="curve" smooth="yes"/>
      <point x="808" y="413"/>
      <point x="791" y="437"/>
      <point x="760" y="453" type="curve" smooth="yes" name="hr03"/>
      <point x="726" y="470"/>
      <point x="668" y="479"/>
      <point x="587" y="479" type="curve" smooth="yes"/>
      <point x="420" y="479" type="line"/>
      <point x="370" y="219" type="line"/>
    </contour>
  </outline>
</glyph>
<glyph name="uni0437" format="1">
  <advance width="1233"/>
  <unicode hex="0437"/>
  <outline>
    <contour>
      <point x="390" y="-22" type="curve" smooth="yes" name="ab01"/>
      <point x="283" y="-22"/>
      <point x="186" y="-12" name="iv01"/>
      <point x="52" y="44" type="curve" name="sv01"/>
      <point x="98" y="280" type="line"/>
      <point x="219" y="215" name="dh01"/>
      <point x="299" y="201" name="dv01"/>
      <point x="467" y="201" type="curve" smooth="yes"/>
      <point x="614" y="201"/>
      <point x="718" y="212" name="dv02"/>
      <point x="740" y="325" type="curve" smooth="yes" name="sh01"/>
      <point x="742" y="335" name="sv02"/>
      <point x="743" y="344" name="iv02"/>
      <point x="743" y="352" type="curve" smooth="yes"/>
      <point x="743" y="435" name="at01"/>
      <point x="628" y="462" name="sh02"/>
      <point x="536" y="462" type="curve" smooth="yes"/>
      <point x="373" y="462" type="line" name="ih01"/>
      <point x="416" y="681" type="line" name="dh02"/>
      <point x="553" y="681" type="line" smooth="yes"/>
      <point x="665" y="681"/>
      <point x="808" y="715" name="sh03"/>
      <point x="808" y="819" type="curve" smooth="yes"/>
      <point x="808" y="894"/>
      <point x="734" y="928"/>
      <point x="577" y="928" type="curve" smooth="yes"/>
      <point x="468" y="928"/>
      <point x="359" y="911"/>
      <point x="251" y="876" type="curve"/>
      <point x="294" y="1099" type="line"/>
      <point x="401" y="1128"/>
      <point x="532" y="1147"/>
      <point x="660" y="1147" type="curve" smooth="yes" name="hr02"/>
      <point x="960" y="1147"/>
      <point x="1101" y="1042"/>
      <point x="1101" y="894" type="curve" smooth="yes"/>
      <point x="1101" y="875"/>
      <point x="1099" y="855"/>
      <point x="1095" y="836" type="curve" smooth="yes"/>
      <point x="1063" y="672"/>
      <point x="966" y="608"/>
      <point x="859" y="573" type="curve"/>
      <point x="958" y="541"/>
      <point x="1031" y="460"/>
      <point x="1031" y="335" type="curve" smooth="yes"/>
      <point x="1031" y="87"/>
      <point x="739" y="-22"/>
    </contour>
  </outline>
</glyph>
<glyph name="uni0499" format="1">
  <advance width="1233"/>
  <unicode hex="0499"/>
  <outline>
    <contour>
      <point x="1095" y="836" type="curve" smooth="yes"/>
      <point x="1063" y="672" name="ih01"/>
      <point x="966" y="608" name="dh04"/>
      <point x="859" y="573" type="curve" name="ih02"/>
      <point x="958" y="541" name="dh02"/>
      <point x="1031" y="460" name="dv01"/>
      <point x="1031" y="335" type="curve" smooth="yes"/>
      <point x="1031" y="114"/>
      <point x="802" y="3" name="dv02"/>
      <point x="507" y="-18" type="curve" name="dh01"/>
      <point x="546" y="-75" name="ab01"/>
      <point x="566" y="-131"/>
      <point x="566" y="-186" type="curve" smooth="yes" name="iv01"/>
      <point x="566" y="-316" name="sv01"/>
      <point x="458" y="-401"/>
      <point x="276" y="-401" type="curve" smooth="yes" name="dh03"/>
      <point x="216" y="-401" name="dv03"/>
      <point x="145" y="-392"/>
      <point x="81" y="-375" type="curve" name="sh01"/>
      <point x="109" y="-219" type="line" name="dv04"/>
      <point x="167" y="-242" name="sh02"/>
      <point x="221" y="-254" name="sv02"/>
      <point x="271" y="-254" type="curve" smooth="yes" name="iv02"/>
      <point x="359" y="-254"/>
      <point x="410" y="-218" name="at01"/>
      <point x="410" y="-151" type="curve" smooth="yes" name="sh03"/>
      <point x="410" y="-119"/>
      <point x="397" y="-82"/>
      <point x="365" y="-22" type="curve" name="sh04"/>
      <point x="269" y="-19"/>
      <point x="174" y="-9"/>
      <point x="52" y="44" type="curve" name="hr01"/>
      <point x="98" y="280" type="line"/>
      <point x="219" y="215"/>
      <point x="299" y="201"/>
      <point x="467" y="201" type="curve" smooth="yes"/>
      <point x="614" y="201"/>
      <point x="718" y="212"/>
      <point x="740" y="325" type="curve" smooth="yes"/>
      <point x="742" y="335"/>
      <point x="743" y="344"/>
      <point x="743" y="352" type="curve" smooth="yes"/>
      <point x="743" y="435"/>
      <point x="628" y="462"/>
      <point x="536" y="462" type="curve" smooth="yes"/>
      <point x="373" y="462" type="line"/>
      <point x="416" y="681" type="line"/>
      <point x="553" y="681" type="line" smooth="yes"/>
      <point x="665" y="681"/>
      <point x="808" y="715"/>
      <point x="808" y="819" type="curve" smooth="yes"/>
      <point x="808" y="894"/>
      <point x="734" y="928"/>
      <point x="577" y="928" type="curve" smooth="yes"/>
      <point x="468" y="928"/>
      <point x="359" y="911"/>
      <point x="251" y="876" type="curve"/>
      <point x="294" y="1099" type="line"/>
      <point x="401" y="1128"/>
      <point x="532" y="1147"/>
      <point x="660" y="1147" type="curve" smooth="yes"/>
      <point x="960" y="1147"/>
      <point x="1101" y="1042"/>
      <point x="1101" y="894" type="curve" smooth="yes"/>
      <point x="1101" y="875"/>
      <point x="1099" y="855"/>
    </contour>
  </outline>
</glyph>
<glyph name="uni049A" format="1">
  <advance width="1233"/>
  <unicode hex="049A"/>
  <outline>
    <contour>
      <point x="797" y="0" type="line" name="ab01"/>
      <point x="787" y="0" type="line"/>
      <point x="533" y="670" type="line" name="iv01"/>
      <point x="361" y="500" type="line"/>
      <point x="266" y="0" type="line" name="ab02"/>
      <point x="-28" y="0" type="line"/>
      <point x="260" y="1493" type="line" name="at01"/>
      <point x="555" y="1493" type="line"/>
      <point x="447" y="936" type="line" name="iv02"/>
      <point x="1010" y="1493" type="line" name="at02"/>
      <point x="1358" y="1493" type="line"/>
      <point x="752" y="889" type="line"/>
      <point x="991" y="260" type="line"/>
      <point x="1141" y="260" type="line"/>
      <point x="1013" y="-396" type="line" name="av01"/>
      <point x="720" y="-396" type="line"/>
    </contour>
  </outline>
</glyph>
<glyph name="uni049B" format="1">
  <advance width="1233"/>
  <unicode hex="049B"/>
  <outline>
    <contour>
      <point x="781" y="0" type="line" name="ab01"/>
      <point x="746" y="0" type="line"/>
      <point x="541" y="524" type="line" name="iv01"/>
      <point x="422" y="428" type="line"/>
      <point x="339" y="0" type="line" name="ab02"/>
      <point x="46" y="0" type="line"/>
      <point x="264" y="1120" type="line" name="at01"/>
      <point x="557" y="1120" type="line"/>
      <point x="483" y="739" type="line" name="iv02"/>
      <point x="909" y="1120" type="line" name="at02"/>
      <point x="1264" y="1120" type="line"/>
      <point x="758" y="702" type="line"/>
      <point x="977" y="209" type="line"/>
      <point x="1111" y="209" type="line"/>
      <point x="1007" y="-324" type="line" name="av01"/>
      <point x="718" y="-324" type="line"/>
    </contour>
  </outline>
</glyph>
<glyph name="uni04C2" format="1">
  <advance width="1233"/>
  <unicode hex="04C2"/>
  <outline>
    <contour>
      <point x="751" y="1270" type="curve" smooth="yes" name="sv01"/>
      <point x="554" y="1270"/>
      <point x="456" y="1358" name="dh01"/>
      <point x="456" y="1534" type="curve" smooth="yes"/>
      <point x="456" y="1567" type="line" name="dh02"/>
      <point x="600" y="1567" type="line" name="sv02"/>
      <point x="600" y="1554" type="line" smooth="yes" name="at03"/>
      <point x="600" y="1473"/>
      <point x="663" y="1421"/>
      <point x="764" y="1421" type="curve" smooth="yes"/>
      <point x="872" y="1421" name="at01"/>
      <point x="954" y="1475"/>
      <point x="987" y="1567" type="curve" name="ih01"/>
      <point x="1130" y="1567" type="line" name="sh01"/>
      <point x="1091" y="1376"/>
      <point x="955" y="1270" name="iv01"/>
    </contour>
    <contour>
      <point x="294" y="694" type="line" name="iv02"/>
      <point x="127" y="1120" type="line"/>
      <point x="404" y="1120" type="line" name="ab01"/>
      <point x="539" y="777" type="line"/>
      <point x="606" y="1120" type="line" name="iv03"/>
      <point x="846" y="1120" type="line"/>
      <point x="779" y="777" type="line" name="ab02"/>
      <point x="1048" y="1120" type="line"/>
      <point x="1325" y="1120" type="line"/>
      <point x="992" y="694" type="line" name="iv04"/>
      <point x="1111" y="0" type="line" name="ab03"/>
      <point x="856" y="0" type="line"/>
      <point x="783" y="427" type="line"/>
      <point x="687" y="305" type="line"/>
      <point x="628" y="0" type="line" name="hr01"/>
      <point x="388" y="0" type="line"/>
      <point x="447" y="305" type="line" name="hr02"/>
      <point x="399" y="427" type="line"/>
      <point x="160" y="0" type="line"/>
      <point x="-95" y="0" type="line"/>
    </contour>
  </outline>
</glyph>
<glyph name="uni04C3" format="1">
  <advance width="1233"/>
  <unicode hex="04C3"/>
  <outline>
    <contour>
      <point x="309" y="-199" type="line" name="sv01"/>
      <point x="445" y="-199" type="line" smooth="yes"/>
      <point x="510" y="-199"/>
      <point x="559" y="-183"/>
      <point x="595" y="-144" type="curve" smooth="yes"/>
      <point x="632" y="-104" name="dh01"/>
      <point x="655" y="-44"/>
      <point x="672" y="43" type="curve" smooth="yes"/>
      <point x="754" y="464" type="line" smooth="yes"/>
      <point x="762" y="505"/>
      <point x="766" y="539" name="ab01"/>
      <point x="766" y="568" type="curve" smooth="yes"/>
      <point x="766" y="599" name="at01"/>
      <point x="762" y="622"/>
      <point x="753" y="637" type="curve" name="iv01"/>
      <point x="726" y="670" name="at02"/>
      <point x="690" y="686"/>
      <point x="644" y="686" type="curve" smooth="yes" name="ih01"/>
      <point x="557" y="686" type="line"/>
      <point x="375" y="506" type="line"/>
      <point x="277" y="0" type="line" name="dh02"/>
      <point x="-18" y="0" type="line"/>
      <point x="272" y="1493" type="line"/>
      <point x="567" y="1493" type="line" name="ab02"/>
      <point x="453" y="903" type="line"/>
      <point x="1029" y="1493" type="line"/>
      <point x="1363" y="1493" type="line" name="sh01"/>
      <point x="825" y="952" type="line"/>
      <point x="882" y="952"/>
      <point x="936" y="934"/>
      <point x="987" y="899" type="curve" smooth="yes"/>
      <point x="1015" y="880"/>
      <point x="1031" y="865"/>
      <point x="1042" y="846" type="curve" smooth="yes"/>
      <point x="1065" y="809"/>
      <point x="1078" y="750"/>
      <point x="1078" y="678" type="curve" smooth="yes"/>
      <point x="1078" y="635"/>
      <point x="1073" y="587"/>
      <point x="1062" y="532" type="curve" smooth="yes"/>
      <point x="967" y="43" type="line" smooth="yes"/>
      <point x="903" y="-288"/>
      <point x="768" y="-424"/>
      <point x="484" y="-424" type="curve" smooth="yes"/>
      <point x="266" y="-424" type="line"/>
    </contour>
  </outline>
</glyph>
<glyph name="uni04D9" format="1">
  <advance width="1233"/>
  <unicode hex="04D9"/>
  <outline>
    <contour>
      <point x="492" y="-29" type="curve" smooth="yes" name="dv01"/>
      <point x="220" y="-29" name="sh01"/>
      <point x="67" y="116"/>
      <point x="67" y="377" type="curve" smooth="yes" name="dv03"/>
      <point x="67" y="424" name="sh02"/>
      <point x="72" y="477" name="ah02"/>
      <point x="83" y="534" type="curve" smooth="yes" name="sv01"/>
      <point x="106" y="653" type="line" name="ih01"/>
      <point x="865" y="653" type="line"/>
      <point x="870" y="677" name="at01"/>
      <point x="872" y="700" name="sh04"/>
      <point x="872" y="720" type="curve" smooth="yes"/>
      <point x="872" y="850"/>
      <point x="784" y="915" name="dv02"/>
      <point x="608" y="915" type="curve" smooth="yes"/>
      <point x="472" y="915" name="sh05"/>
      <point x="341" y="878" name="sh03"/>
      <point x="181" y="794" type="curve"/>
      <point x="233" y="1063" type="line" name="ah01"/>
      <point x="382" y="1120" name="sh06"/>
      <point x="532" y="1147"/>
      <point x="673" y="1147" type="curve" smooth="yes"/>
      <point x="1001" y="1147"/>
      <point x="1163" y="1000"/>
      <point x="1163" y="729" type="curve" smooth="yes"/>
      <point x="1163" y="673"/>
      <point x="1157" y="615"/>
      <point x="1146" y="563" type="curve"/>
      <point x="1077" y="202"/>
      <point x="832" y="-29"/>
    </contour>
    <contour>
      <point x="537" y="198" type="curve" smooth="yes"/>
      <point x="682" y="198"/>
      <point x="775" y="282"/>
      <point x="820" y="434" type="curve"/>
      <point x="359" y="433" type="line"/>
      <point x="355" y="409"/>
      <point x="352" y="387"/>
      <point x="352" y="364" type="curve" smooth="yes"/>
      <point x="352" y="255"/>
      <point x="418" y="198"/>
    </contour>
  </outline>
</glyph>
<glyph name="uni04E1" format="1">
  <advance width="1233"/>
  <unicode hex="04E1"/>
  <outline>
    <contour>
      <point x="345" y="-440" type="curve" smooth="yes" name="dv01"/>
      <point x="193" y="-440"/>
      <point x="68" y="-415"/>
      <point x="-61" y="-366" type="curve" name="dv02"/>
      <point x="-4" y="-69" type="line"/>
      <point x="112" y="-141" name="dh01"/>
      <point x="228" y="-178" name="dv03"/>
      <point x="360" y="-178" type="curve" smooth="yes"/>
      <point x="540" y="-178"/>
      <point x="654" y="-108" name="ih01"/>
      <point x="681" y="27" type="curve" smooth="yes"/>
      <point x="684" y="43" name="at01"/>
      <point x="686" y="57"/>
      <point x="686" y="73" type="curve" smooth="yes"/>
      <point x="686" y="178" name="dv04"/>
      <point x="597" y="234"/>
      <point x="424" y="234" type="curve" smooth="yes" name="dh02"/>
      <point x="256" y="234" type="line"/>
      <point x="299" y="452" type="line"/>
      <point x="776" y="901" type="line"/>
      <point x="210" y="901" type="line" name="sh01"/>
      <point x="253" y="1120" type="line"/>
      <point x="1148" y="1120" type="line"/>
      <point x="1103" y="891" type="line"/>
      <point x="624" y="436" type="line"/>
      <point x="785" y="428"/>
      <point x="937" y="410"/>
      <point x="1003" y="259" type="curve" smooth="yes"/>
      <point x="1022" y="216"/>
      <point x="1034" y="164"/>
      <point x="1034" y="99" type="curve" smooth="yes"/>
      <point x="1034" y="-43"/>
      <point x="971" y="-214"/>
      <point x="807" y="-323" type="curve" smooth="yes"/>
      <point x="690" y="-401"/>
      <point x="536" y="-440"/>
    </contour>
  </outline>
</glyph>
<glyph name="uni04E4" format="1">
  <advance width="1233"/>
  <unicode hex="04E4"/>
  <outline>
    <contour>
      <point x="496" y="1608" type="line" smooth="yes" name="dv01"/>
      <point x="475" y="1608"/>
      <point x="466" y="1621"/>
      <point x="470" y="1641" type="curve" smooth="yes" name="dv02"/>
      <point x="508" y="1827" type="line" smooth="yes"/>
      <point x="512" y="1845"/>
      <point x="523" y="1854"/>
      <point x="540" y="1854" type="curve" smooth="yes"/>
      <point x="715" y="1854" type="line" smooth="yes" name="sv01"/>
      <point x="736" y="1854"/>
      <point x="745" y="1841"/>
      <point x="741" y="1821" type="curve" smooth="yes" name="sv02"/>
      <point x="704" y="1635" type="line" smooth="yes"/>
      <point x="701" y="1617"/>
      <point x="690" y="1608"/>
      <point x="672" y="1608" type="curve" smooth="yes"/>
    </contour>
    <contour>
      <point x="892" y="1608" type="line" smooth="yes" name="at01"/>
      <point x="871" y="1608"/>
      <point x="862" y="1621" name="iv01"/>
      <point x="866" y="1641" type="curve" smooth="yes" name="at02"/>
      <point x="903" y="1827" type="line" smooth="yes"/>
      <point x="906" y="1845" name="ab01"/>
      <point x="916" y="1854"/>
      <point x="935" y="1854" type="curve" smooth="yes" name="iv02"/>
      <point x="1110" y="1854" type="line" smooth="yes" name="ab02"/>
      <point x="1130" y="1854"/>
      <point x="1141" y="1841"/>
      <point x="1137" y="1821" type="curve" smooth="yes"/>
      <point x="1101" y="1635" type="line" smooth="yes"/>
      <point x="1098" y="1617"/>
      <point x="1087" y="1608"/>
      <point x="1069" y="1608" type="curve" smooth="yes"/>
    </contour>
    <contour>
      <point x="264" y="1493" type="line"/>
      <point x="524" y="1493" type="line"/>
      <point x="313" y="408" type="line"/>
      <point x="940" y="1493" type="line"/>
      <point x="1257" y="1493" type="line"/>
      <point x="967" y="0" type="line"/>
      <point x="707" y="0" type="line"/>
      <point x="918" y="1085" type="line"/>
      <point x="289" y="0" type="line"/>
      <point x="-26" y="0" type="line"/>
    </contour>
  </outline>
</glyph>
<glyph name="uni04F4" format="1">
  <advance width="1233"/>
  <unicode hex="04F4"/>
  <outline>
    <contour>
      <point x="502" y="1628" type="line" smooth="yes" name="dv01"/>
      <point x="481" y="1628"/>
      <point x="472" y="1641"/>
      <point x="476" y="1661" type="curve" smooth="yes" name="dv02"/>
      <point x="514" y="1847" type="line" smooth="yes"/>
      <point x="518" y="1865"/>
      <point x="529" y="1874"/>
      <point x="546" y="1874" type="curve" smooth="yes"/>
      <point x="721" y="1874" type="line" smooth="yes" name="sv01"/>
      <point x="742" y="1874"/>
      <point x="751" y="1861"/>
      <point x="747" y="1841" type="curve" smooth="yes" name="sv02"/>
      <point x="710" y="1655" type="line" smooth="yes"/>
      <point x="707" y="1637"/>
      <point x="696" y="1628"/>
      <point x="678" y="1628" type="curve" smooth="yes"/>
    </contour>
    <contour>
      <point x="898" y="1628" type="line" smooth="yes" name="iv01"/>
      <point x="877" y="1628" name="dv03"/>
      <point x="868" y="1641" name="dh01"/>
      <point x="872" y="1661" type="curve" smooth="yes"/>
      <point x="909" y="1847" type="line" smooth="yes"/>
      <point x="912" y="1865"/>
      <point x="922" y="1874"/>
      <point x="941" y="1874" type="curve" smooth="yes" name="dh02"/>
      <point x="1116" y="1874" type="line" smooth="yes" name="dv04"/>
      <point x="1136" y="1874"/>
      <point x="1147" y="1861"/>
      <point x="1143" y="1841" type="curve" smooth="yes"/>
      <point x="1107" y="1655" type="line" smooth="yes" name="ab01"/>
      <point x="1104" y="1637"/>
      <point x="1093" y="1628"/>
      <point x="1075" y="1628" type="curve" smooth="yes"/>
    </contour>
    <contour>
      <point x="833" y="766" type="line"/>
      <point x="772" y="663"/>
      <point x="656" y="607"/>
      <point x="459" y="607" type="curve" smooth="yes"/>
      <point x="231" y="607"/>
      <point x="132" y="683"/>
      <point x="132" y="878" type="curve" smooth="yes"/>
      <point x="132" y="922"/>
      <point x="137" y="972"/>
      <point x="148" y="1027" type="curve" smooth="yes"/>
      <point x="251" y="1556" type="line"/>
      <point x="542" y="1556" type="line"/>
      <point x="453" y="1095" type="line" smooth="yes"/>
      <point x="448" y="1067"/>
      <point x="445" y="1044"/>
      <point x="445" y="1020" type="curve" smooth="yes"/>
      <point x="445" y="896"/>
      <point x="524" y="870"/>
      <point x="620" y="870" type="curve" smooth="yes"/>
      <point x="799" y="870"/>
      <point x="870" y="959"/>
      <point x="905" y="1136" type="curve"/>
      <point x="986" y="1556" type="line"/>
      <point x="1277" y="1556" type="line"/>
      <point x="975" y="0" type="line"/>
      <point x="684" y="0" type="line"/>
    </contour>
  </outline>
</glyph>
<glyph name="uni04F5" format="1">
  <advance width="1233"/>
  <unicode hex="04F5"/>
  <outline>
    <contour>
      <point x="442" y="1321" type="line" smooth="yes" name="sv01"/>
      <point x="422" y="1321"/>
      <point x="411" y="1334"/>
      <point x="415" y="1354" type="curve" smooth="yes" name="at03"/>
      <point x="451" y="1540" type="line" smooth="yes"/>
      <point x="454" y="1558"/>
      <point x="464" y="1567"/>
      <point x="483" y="1567" type="curve" smooth="yes"/>
      <point x="660" y="1567" type="line" smooth="yes" name="sv02"/>
      <point x="681" y="1567"/>
      <point x="690" y="1554"/>
      <point x="686" y="1534" type="curve" smooth="yes" name="at04"/>
      <point x="649" y="1348" type="line" smooth="yes"/>
      <point x="646" y="1330"/>
      <point x="635" y="1321"/>
      <point x="617" y="1321" type="curve" smooth="yes" name="sv03"/>
    </contour>
    <contour>
      <point x="837" y="1321" type="line" smooth="yes" name="dv01"/>
      <point x="817" y="1321"/>
      <point x="806" y="1334"/>
      <point x="810" y="1354" type="curve" smooth="yes"/>
      <point x="846" y="1540" type="line" smooth="yes" name="hr01"/>
      <point x="849" y="1558"/>
      <point x="859" y="1567" name="at01"/>
      <point x="878" y="1567" type="curve" smooth="yes"/>
      <point x="1056" y="1567" type="line" smooth="yes"/>
      <point x="1077" y="1567"/>
      <point x="1086" y="1554"/>
      <point x="1082" y="1534" type="curve" smooth="yes"/>
      <point x="1045" y="1348" type="line" smooth="yes"/>
      <point x="1042" y="1330" name="dv02"/>
      <point x="1031" y="1321" name="at02"/>
      <point x="1013" y="1321" type="curve" smooth="yes"/>
    </contour>
    <contour>
      <point x="716" y="416" type="line" name="ab01"/>
      <point x="609" y="416" type="line" smooth="yes"/>
      <point x="455" y="416"/>
      <point x="333" y="450"/>
      <point x="244" y="517" type="curve" smooth="yes"/>
      <point x="240" y="520" type="line" smooth="yes"/>
      <point x="183" y="564"/>
      <point x="151" y="630"/>
      <point x="151" y="717" type="curve" smooth="yes"/>
      <point x="151" y="748"/>
      <point x="154" y="781"/>
      <point x="161" y="813" type="curve"/>
      <point x="221" y="1120" type="line"/>
      <point x="520" y="1120" type="line"/>
      <point x="454" y="783" type="line" smooth="yes"/>
      <point x="452" y="771"/>
      <point x="451" y="760"/>
      <point x="451" y="750" type="curve" smooth="yes"/>
      <point x="451" y="725"/>
      <point x="458" y="704"/>
      <point x="471" y="689" type="curve" smooth="yes"/>
      <point x="475" y="684"/>
      <point x="481" y="679"/>
      <point x="489" y="672" type="curve" smooth="yes"/>
      <point x="521" y="646"/>
      <point x="575" y="633"/>
      <point x="651" y="633" type="curve" smooth="yes"/>
      <point x="758" y="633" type="line"/>
      <point x="853" y="1121" type="line"/>
      <point x="1143" y="1121" type="line"/>
      <point x="925" y="0" type="line"/>
      <point x="635" y="0" type="line"/>
    </contour>
  </outline>
</glyph>
<glyph name="uni04F8" format="1">
  <advance width="1233"/>
  <unicode hex="04F8"/>
  <outline>
    <contour>
      <point x="496" y="1608" type="line" smooth="yes" name="dv01"/>
      <point x="475" y="1608"/>
      <point x="466" y="1621"/>
      <point x="470" y="1641" type="curve" smooth="yes" name="dv02"/>
      <point x="508" y="1827" type="line" smooth="yes"/>
      <point x="512" y="1845"/>
      <point x="523" y="1854"/>
      <point x="540" y="1854" type="curve" smooth="yes"/>
      <point x="715" y="1854" type="line" smooth="yes" name="sv01"/>
      <point x="736" y="1854"/>
      <point x="745" y="1841"/>
      <point x="741" y="1821" type="curve" smooth="yes" name="sv02"/>
      <point x="704" y="1635" type="line" smooth="yes"/>
      <point x="701" y="1617"/>
      <point x="690" y="1608"/>
      <point x="672" y="1608" type="curve" smooth="yes"/>
    </contour>
    <contour>
      <point x="892" y="1608" type="line" smooth="yes" name="at01"/>
      <point x="871" y="1608"/>
      <point x="862" y="1621" name="dv04"/>
      <point x="866" y="1641" type="curve" smooth="yes"/>
      <point x="903" y="1827" type="line" smooth="yes" name="dh02"/>
      <point x="906" y="1845"/>
      <point x="916" y="1854" name="ab01"/>
      <point x="935" y="1854" type="curve" smooth="yes"/>
      <point x="1110" y="1854" type="line" smooth="yes" name="at02"/>
      <point x="1130" y="1854"/>
      <point x="1141" y="1841" name="ab02"/>
      <point x="1137" y="1821" type="curve" smooth="yes" name="sh01"/>
      <point x="1101" y="1635" type="line" smooth="yes" name="sv03"/>
      <point x="1098" y="1617"/>
      <point x="1087" y="1608" name="dh01"/>
      <point x="1069" y="1608" type="curve" smooth="yes"/>
    </contour>
    <contour>
      <point x="188" y="1493" type="line" name="dv03"/>
      <point x="443" y="1493" type="line"/>
      <point x="330" y="913" type="line"/>
      <point x="340" y="913" type="line" smooth="yes"/>
      <point x="692" y="913"/>
      <point x="801" y="773"/>
      <point x="801" y="580" type="curve" smooth="yes"/>
      <point x="801" y="539"/>
      <point x="796" y="498"/>
      <point x="787" y="451" type="curve" smooth="yes"/>
      <point x="727" y="146"/>
      <point x="519" y="0"/>
      <point x="163" y="0" type="curve" smooth="yes"/>
      <point x="-102" y="0" type="line"/>
    </contour>
    <contour>
      <point x="1086" y="1493" type="line"/>
      <point x="1341" y="1493" type="line"/>
      <point x="1051" y="0" type="line"/>
      <point x="796" y="0" type="line"/>
    </contour>
    <contour>
      <point x="220" y="236" type="line" smooth="yes"/>
      <point x="416" y="236"/>
      <point x="502" y="290"/>
      <point x="532" y="451" type="curve"/>
      <point x="539" y="483"/>
      <point x="541" y="512"/>
      <point x="541" y="535" type="curve" smooth="yes"/>
      <point x="541" y="578"/>
      <point x="529" y="614"/>
      <point x="501" y="638" type="curve" smooth="yes"/>
      <point x="470" y="665"/>
      <point x="415" y="678"/>
      <point x="306" y="678" type="curve" smooth="yes"/>
      <point x="285" y="678" type="line"/>
      <point x="199" y="236" type="line"/>
    </contour>
  </outline>
</glyph>
<glyph name="uni0532" format="1">
  <advance width="1233"/>
  <unicode hex="0532"/>
  <outline>
    <contour>
      <point x="133" y="942" type="line" name="hr00"/>
      <point x="172" y="1139"/>
      <point x="236" y="1288" name="dv02"/>
      <point x="340" y="1385" type="curve" smooth="yes"/>
      <point x="440" y="1480" name="dh02"/>
      <point x="575" y="1522"/>
      <point x="755" y="1522" type="curve" smooth="yes"/>
      <point x="935" y="1522"/>
      <point x="1053" y="1480"/>
      <point x="1118" y="1385" type="curve" smooth="yes" name="dh01"/>
      <point x="1157" y="1328" name="dv01"/>
      <point x="1176" y="1254"/>
      <point x="1176" y="1151" type="curve" smooth="yes"/>
      <point x="1176" y="1088" name="dv04"/>
      <point x="1169" y="1025" name="dv03"/>
      <point x="1153" y="942" type="curve" smooth="yes"/>
      <point x="1140" y="875" type="line" name="ab01"/>
      <point x="845" y="875" type="line"/>
      <point x="872" y="1016" type="line" smooth="yes"/>
      <point x="877" y="1040" name="sh01"/>
      <point x="879" y="1065"/>
      <point x="879" y="1085" type="curve" smooth="yes"/>
      <point x="879" y="1193"/>
      <point x="818" y="1255"/>
      <point x="705" y="1255" type="curve" smooth="yes"/>
      <point x="572" y="1255"/>
      <point x="473" y="1171"/>
      <point x="442" y="1016" type="curve"/>
      <point x="376" y="674" type="line"/>
      <point x="1118" y="674" type="line"/>
      <point x="1067" y="414" type="line"/>
      <point x="325" y="414" type="line"/>
      <point x="245" y="0" type="line"/>
      <point x="-49" y="0" type="line"/>
    </contour>
  </outline>
</glyph>
<glyph name="uni0539" format="1">
  <advance width="1233"/>
  <unicode hex="0539"/>
  <outline>
    <contour>
      <point x="609" y="-29" type="curve" smooth="yes" name="dv01"/>
      <point x="505" y="-29"/>
      <point x="421" y="3" name="sh01"/>
      <point x="374" y="75" type="curve" smooth="yes"/>
      <point x="344" y="120"/>
      <point x="329" y="180" name="sv01"/>
      <point x="329" y="255" type="curve" smooth="yes"/>
      <point x="329" y="300" name="sh02"/>
      <point x="334" y="357" name="ah02"/>
      <point x="345" y="413" type="curve" smooth="yes"/>
      <point x="373" y="564" name="dv03"/>
      <point x="434" y="684"/>
      <point x="509" y="761" type="curve" smooth="yes"/>
      <point x="583" y="837" name="ab01"/>
      <point x="676" y="875"/>
      <point x="787" y="875" type="curve" smooth="yes"/>
      <point x="894" y="875" type="line" name="sh03"/>
      <point x="922" y="1016" type="line" name="dv04"/>
      <point x="929" y="1047"/>
      <point x="932" y="1082" name="sh04"/>
      <point x="932" y="1110" type="curve" smooth="yes"/>
      <point x="932" y="1153" name="dv05"/>
      <point x="923" y="1192"/>
      <point x="900" y="1223" type="curve" smooth="yes" name="sh05"/>
      <point x="865" y="1270"/>
      <point x="800" y="1295"/>
      <point x="699" y="1295" type="curve" smooth="yes"/>
      <point x="598" y="1295"/>
      <point x="524" y="1270" name="dv02"/>
      <point x="471" y="1223" type="curve" smooth="yes"/>
      <point x="418" y="1176"/>
      <point x="386" y="1105" name="sv02"/>
      <point x="369" y="1016" type="curve" smooth="yes"/>
      <point x="171" y="0" type="line" name="sh07"/>
      <point x="-82" y="0" type="line" name="sh06"/>
      <point x="101" y="942" type="line" smooth="yes"/>
      <point x="140" y="1143" name="ah01"/>
      <point x="210" y="1289" name="sh08"/>
      <point x="318" y="1385" type="curve" smooth="yes"/>
      <point x="425" y="1480"/>
      <point x="563" y="1522"/>
      <point x="743" y="1522" type="curve" smooth="yes"/>
      <point x="923" y="1522"/>
      <point x="1045" y="1480"/>
      <point x="1116" y="1385" type="curve" smooth="yes"/>
      <point x="1161" y="1326"/>
      <point x="1183" y="1245"/>
      <point x="1183" y="1142" type="curve" smooth="yes"/>
      <point x="1183" y="1081"/>
      <point x="1176" y="1010"/>
      <point x="1161" y="942" type="curve" smooth="yes"/>
      <point x="1147" y="875" type="line" name="hr01"/>
      <point x="1234" y="875" type="line"/>
      <point x="1184" y="615" type="line"/>
      <point x="1097" y="615" type="line"/>
      <point x="1058" y="413" type="line" smooth="yes"/>
      <point x="1031" y="272"/>
      <point x="975" y="161"/>
      <point x="896" y="85" type="curve" smooth="yes"/>
      <point x="818" y="9"/>
      <point x="722" y="-29"/>
    </contour>
    <contour>
      <point x="661" y="218" type="curve" smooth="yes"/>
      <point x="698" y="218"/>
      <point x="729" y="231"/>
      <point x="752" y="263" type="curve" smooth="yes"/>
      <point x="773" y="292"/>
      <point x="791" y="342"/>
      <point x="805" y="413" type="curve" smooth="yes"/>
      <point x="844" y="615" type="line"/>
      <point x="737" y="615" type="line" smooth="yes"/>
      <point x="662" y="615"/>
      <point x="597" y="554"/>
      <point x="573" y="413" type="curve" smooth="yes"/>
      <point x="568" y="382"/>
      <point x="564" y="344"/>
      <point x="564" y="321" type="curve" smooth="yes"/>
      <point x="564" y="254"/>
      <point x="598" y="218"/>
    </contour>
  </outline>
</glyph>
<glyph name="uni053E" format="1">
  <advance width="1233"/>
  <unicode hex="053E"/>
  <outline>
    <contour>
      <point x="480" y="-29" type="curve" smooth="yes" name="dv01"/>
      <point x="275" y="-29"/>
      <point x="151" y="40" name="sh01"/>
      <point x="90" y="147" type="curve" smooth="yes"/>
      <point x="51" y="214" name="ih01"/>
      <point x="35" y="293"/>
      <point x="35" y="388" type="curve" smooth="yes" name="at02"/>
      <point x="35" y="451"/>
      <point x="43" y="520"/>
      <point x="58" y="597" type="curve" smooth="yes"/>
      <point x="87" y="741"/>
      <point x="134" y="866" name="at01"/>
      <point x="219" y="1007" type="curve" name="at03"/>
      <point x="85" y="1007" type="line"/>
      <point x="180" y="1493" type="line" name="iv01"/>
      <point x="417" y="1493" type="line"/>
      <point x="369" y="1248" type="line" name="sv01"/>
      <point x="415" y="1248" type="line" name="ih02"/>
      <point x="503" y="1332"/>
      <point x="601" y="1400" name="sh03"/>
      <point x="705" y="1447" type="curve" smooth="yes"/>
      <point x="809" y="1494"/>
      <point x="917" y="1520"/>
      <point x="1022" y="1520" type="curve" smooth="yes" name="dv02"/>
      <point x="1082" y="1520"/>
      <point x="1145" y="1513"/>
      <point x="1201" y="1498" type="curve" smooth="yes" name="ah02"/>
      <point x="1257" y="1483"/>
      <point x="1304" y="1465" name="sv02"/>
      <point x="1324" y="1448" type="curve"/>
      <point x="1262" y="1131" type="line" name="sh02"/>
      <point x="1237" y="1171" name="sh04"/>
      <point x="1191" y="1207"/>
      <point x="1138" y="1232" type="curve" smooth="yes" name="ah01"/>
      <point x="1085" y="1257" name="sh05"/>
      <point x="1024" y="1272"/>
      <point x="963" y="1272" type="curve" smooth="yes" name="hr01"/>
      <point x="900" y="1272"/>
      <point x="841" y="1257"/>
      <point x="781" y="1230" type="curve"/>
      <point x="938" y="1201"/>
      <point x="1053" y="1133"/>
      <point x="1118" y="1030" type="curve" smooth="yes"/>
      <point x="1163" y="959"/>
      <point x="1186" y="871"/>
      <point x="1186" y="776" type="curve" smooth="yes"/>
      <point x="1186" y="728"/>
      <point x="1180" y="662"/>
      <point x="1169" y="601" type="curve" smooth="yes"/>
      <point x="1140" y="435"/>
      <point x="1062" y="268"/>
      <point x="956" y="157" type="curve" smooth="yes"/>
      <point x="852" y="47"/>
      <point x="697" y="-29"/>
    </contour>
    <contour>
      <point x="533" y="228" type="curve" smooth="yes"/>
      <point x="649" y="228"/>
      <point x="717" y="260"/>
      <point x="764" y="323" type="curve" smooth="yes"/>
      <point x="808" y="383"/>
      <point x="833" y="468"/>
      <point x="858" y="601" type="curve" smooth="yes" name="hr02"/>
      <point x="869" y="660"/>
      <point x="875" y="700"/>
      <point x="875" y="745" type="curve" smooth="yes"/>
      <point x="875" y="804"/>
      <point x="865" y="851"/>
      <point x="841" y="888" type="curve" smooth="yes"/>
      <point x="798" y="953"/>
      <point x="704" y="997"/>
      <point x="529" y="1005" type="curve"/>
      <point x="444" y="880"/>
      <point x="399" y="758"/>
      <point x="364" y="597" type="curve" smooth="yes"/>
      <point x="348" y="521"/>
      <point x="336" y="444"/>
      <point x="336" y="389" type="curve" smooth="yes"/>
      <point x="336" y="361"/>
      <point x="339" y="337"/>
      <point x="346" y="318" type="curve" smooth="yes"/>
      <point x="367" y="257"/>
      <point x="422" y="228"/>
    </contour>
  </outline>
</glyph>
<glyph name="uni0548" format="1">
  <advance width="1233"/>
  <unicode hex="0548"/>
  <outline>
    <contour>
      <point x="141" y="942" type="line" name="hr00"/>
      <point x="180" y="1139"/>
      <point x="244" y="1288" name="dv02"/>
      <point x="348" y="1385" type="curve" smooth="yes"/>
      <point x="448" y="1480" name="dh02"/>
      <point x="583" y="1522"/>
      <point x="763" y="1522" type="curve" smooth="yes" name="ab01"/>
      <point x="934" y="1522"/>
      <point x="1058" y="1484"/>
      <point x="1126" y="1385" type="curve" smooth="yes" name="dh01"/>
      <point x="1165" y="1328" name="dv01"/>
      <point x="1184" y="1250"/>
      <point x="1184" y="1151" type="curve" smooth="yes" name="ab02"/>
      <point x="1184" y="1086"/>
      <point x="1176" y="1018"/>
      <point x="1161" y="942" type="curve" smooth="yes" name="sh01"/>
      <point x="978" y="0" type="line"/>
      <point x="683" y="0" type="line"/>
      <point x="880" y="1016" type="line" smooth="yes"/>
      <point x="885" y="1040"/>
      <point x="887" y="1065"/>
      <point x="887" y="1085" type="curve" smooth="yes"/>
      <point x="887" y="1193"/>
      <point x="826" y="1255"/>
      <point x="713" y="1255" type="curve" smooth="yes"/>
      <point x="578" y="1255"/>
      <point x="481" y="1169"/>
      <point x="450" y="1016" type="curve"/>
      <point x="253" y="0" type="line"/>
      <point x="-41" y="0" type="line"/>
    </contour>
  </outline>
</glyph>
<glyph name="uni0554" format="1">
  <advance width="1233"/>
  <unicode hex="0554"/>
  <outline>
    <contour>
      <point x="79" y="154" type="line" name="dv01"/>
      <point x="-66" y="154" type="line"/>
      <point x="-16" y="414" type="line" name="sv01"/>
      <point x="129" y="414" type="line" name="dv02"/>
      <point x="254" y="1057" type="line" smooth="yes"/>
      <point x="281" y="1198"/>
      <point x="343" y="1309" name="at01"/>
      <point x="435" y="1388" type="curve" smooth="yes"/>
      <point x="531" y="1471" name="dh02"/>
      <point x="661" y="1518"/>
      <point x="832" y="1518" type="curve" smooth="yes"/>
      <point x="1005" y="1518" name="dv03"/>
      <point x="1118" y="1468" name="iv01"/>
      <point x="1183" y="1385" type="curve" smooth="yes" name="sv02"/>
      <point x="1230" y="1325" name="sv03"/>
      <point x="1250" y="1251" name="sv04"/>
      <point x="1250" y="1168" type="curve" smooth="yes"/>
      <point x="1250" y="1131" name="ab01"/>
      <point x="1246" y="1094"/>
      <point x="1239" y="1055" type="curve" smooth="yes" name="dv04"/>
      <point x="1215" y="926"/>
      <point x="1154" y="809"/>
      <point x="1054" y="724" type="curve" smooth="yes" name="dh01"/>
      <point x="950" y="636"/>
      <point x="815" y="591"/>
      <point x="666" y="591" type="curve" smooth="yes" name="sv05"/>
      <point x="602" y="591"/>
      <point x="540" y="599"/>
      <point x="468" y="640" type="curve"/>
      <point x="424" y="414" type="line"/>
      <point x="1093" y="414" type="line" name="hr01"/>
      <point x="1043" y="154" type="line"/>
      <point x="374" y="154" type="line" name="sh01"/>
      <point x="344" y="0" type="line"/>
      <point x="49" y="0" type="line"/>
    </contour>
    <contour>
      <point x="708" y="846" type="curve" smooth="yes"/>
      <point x="783" y="846"/>
      <point x="833" y="866"/>
      <point x="869" y="902" type="curve" smooth="yes"/>
      <point x="905" y="938"/>
      <point x="926" y="991"/>
      <point x="938" y="1055" type="curve" smooth="yes"/>
      <point x="943" y="1082"/>
      <point x="946" y="1104"/>
      <point x="946" y="1127" type="curve" smooth="yes"/>
      <point x="946" y="1159"/>
      <point x="940" y="1185"/>
      <point x="927" y="1206" type="curve" smooth="yes"/>
      <point x="916" y="1225"/>
      <point x="899" y="1239"/>
      <point x="876" y="1248" type="curve" smooth="yes"/>
      <point x="853" y="1258"/>
      <point x="822" y="1263"/>
      <point x="783" y="1263" type="curve" smooth="yes"/>
      <point x="704" y="1263"/>
      <point x="654" y="1242"/>
      <point x="618" y="1206" type="curve" smooth="yes"/>
      <point x="582" y="1170"/>
      <point x="562" y="1118"/>
      <point x="550" y="1057" type="curve" smooth="yes"/>
      <point x="545" y="1030"/>
      <point x="542" y="1007"/>
      <point x="542" y="987" type="curve" smooth="yes"/>
      <point x="542" y="954"/>
      <point x="549" y="927"/>
      <point x="563" y="905" type="curve" smooth="yes" name="hr02"/>
      <point x="586" y="868"/>
      <point x="631" y="846"/>
    </contour>
  </outline>
</glyph>
<glyph name="uni0562" format="1">
  <advance width="1233"/>
  <unicode hex="0562"/>
  <outline>
    <contour>
      <point x="266" y="1120" type="line" name="at02"/>
      <point x="557" y="1120" type="line"/>
      <point x="524" y="952" type="line" name="iv01"/>
      <point x="592" y="1079" name="at01"/>
      <point x="707" y="1147" name="dh02"/>
      <point x="852" y="1147" type="curve" smooth="yes"/>
      <point x="1019" y="1147"/>
      <point x="1106" y="1059"/>
      <point x="1106" y="880" type="curve" smooth="yes"/>
      <point x="1106" y="833" name="dh01"/>
      <point x="1100" y="784" name="sv01"/>
      <point x="1089" y="727" type="curve" smooth="yes"/>
      <point x="1035" y="450" type="line" name="sv02"/>
      <point x="744" y="450" type="line"/>
      <point x="789" y="682" type="line" smooth="yes" name="ab02"/>
      <point x="797" y="723"/>
      <point x="801" y="757" name="ab01"/>
      <point x="801" y="785" type="curve" smooth="yes"/>
      <point x="801" y="870"/>
      <point x="764" y="909" name="sh01"/>
      <point x="692" y="909" type="curve" smooth="yes"/>
      <point x="577" y="909"/>
      <point x="497" y="812"/>
      <point x="464" y="641" type="curve" smooth="yes"/>
      <point x="383" y="225" type="line"/>
      <point x="1027" y="225" type="line"/>
      <point x="983" y="0" type="line"/>
      <point x="339" y="0" type="line"/>
      <point x="257" y="-426" type="line" name="hr01"/>
      <point x="-33" y="-426" type="line"/>
    </contour>
  </outline>
</glyph>
<glyph name="uni0563" format="1">
  <advance width="1233"/>
  <unicode hex="0563"/>
  <outline>
    <contour>
      <point x="676" y="158" type="line" name="iv01"/>
      <point x="576" y="30" name="dv01"/>
      <point x="476" y="-29"/>
      <point x="345" y="-29" type="curve" smooth="yes" name="dh01"/>
      <point x="218" y="-29"/>
      <point x="127" y="24"/>
      <point x="76" y="124" type="curve" smooth="yes" name="at02"/>
      <point x="45" y="183" name="iv02"/>
      <point x="30" y="254" name="at01"/>
      <point x="30" y="346" type="curve" smooth="yes"/>
      <point x="30" y="409" name="dv02"/>
      <point x="38" y="480"/>
      <point x="53" y="559" type="curve" smooth="yes" name="ab02"/>
      <point x="88" y="739"/>
      <point x="149" y="885" name="ab01"/>
      <point x="245" y="993" type="curve" smooth="yes"/>
      <point x="337" y="1097" name="sv02"/>
      <point x="444" y="1147"/>
      <point x="568" y="1147" type="curve" smooth="yes"/>
      <point x="709" y="1147"/>
      <point x="791" y="1081"/>
      <point x="830" y="952" type="curve" name="sv01"/>
      <point x="892" y="1120" type="line"/>
      <point x="1155" y="1120" type="line"/>
      <point x="981" y="225" type="line" name="dh02"/>
      <point x="1090" y="225" type="line"/>
      <point x="1046" y="0" type="line"/>
      <point x="937" y="0" type="line" name="hr01"/>
      <point x="855" y="-426" type="line"/>
      <point x="563" y="-426" type="line"/>
    </contour>
    <contour>
      <point x="482" y="215" type="curve" smooth="yes"/>
      <point x="549" y="215"/>
      <point x="603" y="249"/>
      <point x="650" y="308" type="curve" smooth="yes"/>
      <point x="695" y="365"/>
      <point x="731" y="444"/>
      <point x="754" y="561" type="curve" smooth="yes"/>
      <point x="763" y="610"/>
      <point x="768" y="653"/>
      <point x="768" y="693" type="curve" smooth="yes"/>
      <point x="768" y="740"/>
      <point x="761" y="781"/>
      <point x="748" y="815" type="curve" smooth="yes" name="hr02"/>
      <point x="723" y="876"/>
      <point x="679" y="907"/>
      <point x="616" y="907" type="curve" smooth="yes"/>
      <point x="553" y="907"/>
      <point x="498" y="876"/>
      <point x="450" y="815" type="curve" smooth="yes"/>
      <point x="403" y="755"/>
      <point x="366" y="669"/>
      <point x="346" y="561" type="curve" smooth="yes"/>
      <point x="338" y="518"/>
      <point x="332" y="468"/>
      <point x="332" y="425" type="curve" smooth="yes"/>
      <point x="332" y="378"/>
      <point x="339" y="339"/>
      <point x="351" y="307" type="curve" smooth="yes"/>
      <point x="374" y="246"/>
      <point x="418" y="215"/>
    </contour>
  </outline>
</glyph>
<glyph name="uni0565" format="1">
  <advance width="1233"/>
  <unicode hex="0565"/>
  <outline>
    <contour>
      <point x="348" y="-29" type="curve" smooth="yes" name="sv02"/>
      <point x="181" y="-29" name="dh01"/>
      <point x="93" y="59"/>
      <point x="93" y="238" type="curve" smooth="yes" name="at01"/>
      <point x="93" y="285"/>
      <point x="99" y="335" name="at02"/>
      <point x="110" y="391" type="curve" smooth="yes" name="hr01"/>
      <point x="337" y="1556" type="line" name="sv03"/>
      <point x="630" y="1556" type="line"/>
      <point x="545" y="1120" type="line"/>
      <point x="1199" y="1120" type="line" name="dh02"/>
      <point x="1155" y="895" type="line" name="sv01"/>
      <point x="501" y="895" type="line"/>
      <point x="412" y="436" type="line" smooth="yes"/>
      <point x="404" y="396"/>
      <point x="400" y="362" name="ab01"/>
      <point x="400" y="333" type="curve" smooth="yes"/>
      <point x="400" y="252" name="iv01"/>
      <point x="436" y="211"/>
      <point x="508" y="211" type="curve" smooth="yes"/>
      <point x="620" y="211"/>
      <point x="700" y="301"/>
      <point x="735" y="477" type="curve" smooth="yes"/>
      <point x="782" y="720" type="line"/>
      <point x="1075" y="720" type="line"/>
      <point x="935" y="0" type="line"/>
      <point x="642" y="0" type="line"/>
      <point x="674" y="166" type="line"/>
      <point x="607" y="39"/>
      <point x="493" y="-29"/>
    </contour>
  </outline>
</glyph>
<glyph name="uni056A" format="1">
  <advance width="1233"/>
  <unicode hex="056A"/>
  <outline>
    <contour>
      <point x="406" y="-29" type="curve" smooth="yes" name="dv01"/>
      <point x="286" y="-29"/>
      <point x="200" y="2"/>
      <point x="136" y="55" type="curve" smooth="yes" name="dh01"/>
      <point x="72" y="108"/>
      <point x="35" y="181"/>
      <point x="18" y="269" type="curve" smooth="yes" name="at02"/>
      <point x="11" y="308"/>
      <point x="7" y="347" name="at01"/>
      <point x="7" y="390" type="curve" smooth="yes"/>
      <point x="7" y="443" name="at03"/>
      <point x="13" y="498"/>
      <point x="24" y="557" type="curve" smooth="yes" name="sv01"/>
      <point x="53" y="709"/>
      <point x="114" y="848"/>
      <point x="217" y="953" type="curve" smooth="yes"/>
      <point x="321" y="1061"/>
      <point x="455" y="1120"/>
      <point x="630" y="1120" type="curve" smooth="yes" name="dv02"/>
      <point x="835" y="1120" type="line"/>
      <point x="920" y="1556" type="line"/>
      <point x="1212" y="1556" type="line" name="sv02"/>
      <point x="1127" y="1120" type="line" name="sv03"/>
      <point x="1236" y="1120" type="line"/>
      <point x="1192" y="895" type="line"/>
      <point x="1083" y="895" type="line" name="dh02"/>
      <point x="1017" y="557" type="line" smooth="yes"/>
      <point x="996" y="449"/>
      <point x="960" y="350"/>
      <point x="912" y="269" type="curve" smooth="yes"/>
      <point x="860" y="181"/>
      <point x="790" y="106"/>
      <point x="710" y="55" type="curve" smooth="yes"/>
      <point x="626" y="2"/>
      <point x="526" y="-29"/>
    </contour>
    <contour>
      <point x="452" y="211" type="curve" smooth="yes"/>
      <point x="528" y="211"/>
      <point x="587" y="245"/>
      <point x="632" y="309" type="curve" smooth="yes"/>
      <point x="675" y="369"/>
      <point x="705" y="454"/>
      <point x="725" y="557" type="curve" smooth="yes"/>
      <point x="791" y="895" type="line"/>
      <point x="586" y="895" type="line" smooth="yes"/>
      <point x="510" y="895"/>
      <point x="453" y="864"/>
      <point x="410" y="805" type="curve" smooth="yes"/>
      <point x="367" y="746"/>
      <point x="337" y="663"/>
      <point x="317" y="558" type="curve" smooth="yes"/>
      <point x="306" y="499"/>
      <point x="300" y="447"/>
      <point x="300" y="402" type="curve" smooth="yes"/>
      <point x="300" y="366"/>
      <point x="304" y="333"/>
      <point x="313" y="306" type="curve" smooth="yes"/>
      <point x="333" y="245"/>
      <point x="377" y="211"/>
    </contour>
  </outline>
</glyph>
<glyph name="uni057E" format="1">
  <advance width="1233"/>
  <unicode hex="057E"/>
  <outline>
    <contour>
      <point x="667" y="166" type="line" name="iv01"/>
      <point x="600" y="39" name="dv01"/>
      <point x="486" y="-29" name="dh01"/>
      <point x="341" y="-29" type="curve" smooth="yes"/>
      <point x="174" y="-29" name="at02"/>
      <point x="86" y="59"/>
      <point x="86" y="238" type="curve" smooth="yes"/>
      <point x="86" y="285" name="dh02"/>
      <point x="92" y="335" name="dv02"/>
      <point x="103" y="391" type="curve" smooth="yes"/>
      <point x="244" y="1120" type="line" name="at01"/>
      <point x="537" y="1120" type="line"/>
      <point x="404" y="436" type="line" smooth="yes" name="sv01"/>
      <point x="396" y="396"/>
      <point x="392" y="362" name="ab01"/>
      <point x="392" y="334" type="curve" smooth="yes"/>
      <point x="392" y="250"/>
      <point x="429" y="211"/>
      <point x="502" y="211" type="curve" smooth="yes"/>
      <point x="619" y="211"/>
      <point x="695" y="310"/>
      <point x="727" y="477" type="curve" smooth="yes"/>
      <point x="937" y="1556" type="line"/>
      <point x="1230" y="1556" type="line"/>
      <point x="889" y="-201" type="line"/>
      <point x="1027" y="-201" type="line"/>
      <point x="983" y="-426" type="line"/>
      <point x="552" y="-426" type="line"/>
    </contour>
  </outline>
</glyph>
<glyph name="uni0582" format="1">
  <advance width="1233"/>
  <unicode hex="0582"/>
  <outline>
    <contour>
      <point x="366" y="1120" type="line" name="at01"/>
      <point x="659" y="1120" type="line"/>
      <point x="485" y="225" type="line" name="sv01"/>
      <point x="1048" y="225" type="line"/>
      <point x="1005" y="0" type="line" name="ab01"/>
      <point x="149" y="0" type="line"/>
    </contour>
  </outline>
</glyph>
<glyph name="uni0587" format="1">
  <advance width="1233"/>
  <unicode hex="0587"/>
  <outline>
    <contour>
      <point x="305" y="-29" type="curve" smooth="yes" name="sv02"/>
      <point x="138" y="-29" name="dh01"/>
      <point x="51" y="58"/>
      <point x="51" y="237" type="curve" smooth="yes" name="at01"/>
      <point x="51" y="284"/>
      <point x="57" y="334"/>
      <point x="68" y="391" type="curve" smooth="yes" name="dh02"/>
      <point x="294" y="1556" type="line" name="sv01"/>
      <point x="587" y="1556" type="line"/>
      <point x="369" y="436" type="line" smooth="yes" name="at02"/>
      <point x="361" y="396"/>
      <point x="357" y="362" name="sv03"/>
      <point x="357" y="333" type="curve" smooth="yes" name="sv04"/>
      <point x="357" y="252" name="ab01"/>
      <point x="393" y="211"/>
      <point x="466" y="211" type="curve" smooth="yes" name="iv01"/>
      <point x="578" y="211"/>
      <point x="657" y="302"/>
      <point x="692" y="477" type="curve"/>
      <point x="817" y="1120" type="line"/>
      <point x="1110" y="1120" type="line"/>
      <point x="936" y="225" type="line"/>
      <point x="1176" y="225" type="line"/>
      <point x="1132" y="0" type="line"/>
      <point x="599" y="0" type="line"/>
      <point x="631" y="166" type="line"/>
      <point x="567" y="43"/>
      <point x="456" y="-29"/>
    </contour>
  </outline>
</glyph>
<glyph name="uni10D7" format="1">
  <advance width="1233"/>
  <unicode hex="10D7"/>
  <outline>
    <contour>
      <point x="322" y="0" type="curve" smooth="yes" name="ab01"/>
      <point x="62" y="0" name="dh01"/>
      <point x="7" y="178"/>
      <point x="7" y="334" type="curve" smooth="yes"/>
      <point x="7" y="398" name="sv01"/>
      <point x="16" y="474"/>
      <point x="27" y="529" type="curve" smooth="yes" name="dv02"/>
      <point x="33" y="558" type="line" smooth="yes"/>
      <point x="102" y="895"/>
      <point x="272" y="1056"/>
      <point x="539" y="1056" type="curve" smooth="yes"/>
      <point x="636" y="1056" name="ab02"/>
      <point x="699" y="1035"/>
      <point x="746" y="987" type="curve"/>
      <point x="807" y="1035"/>
      <point x="867" y="1056"/>
      <point x="954" y="1056" type="curve" smooth="yes"/>
      <point x="1141" y="1056" name="dv01"/>
      <point x="1240" y="961"/>
      <point x="1240" y="768" type="curve" smooth="yes"/>
      <point x="1240" y="725"/>
      <point x="1235" y="676"/>
      <point x="1224" y="620" type="curve" smooth="yes"/>
      <point x="1206" y="527" type="line" smooth="yes" name="sv02"/>
      <point x="1187" y="427"/>
      <point x="1159" y="343"/>
      <point x="1108" y="259" type="curve" smooth="yes"/>
      <point x="1057" y="175"/>
      <point x="986" y="92" name="sv03"/>
      <point x="890" y="0" type="curve"/>
      <point x="675" y="0" type="line"/>
      <point x="764" y="88"/>
      <point x="812" y="152"/>
      <point x="843" y="217" type="curve" smooth="yes" name="dh02"/>
      <point x="872" y="280"/>
      <point x="886" y="345"/>
      <point x="906" y="448" type="curve" smooth="yes"/>
      <point x="972" y="787" type="line" smooth="yes"/>
      <point x="973" y="794"/>
      <point x="974" y="798"/>
      <point x="974" y="805" type="curve" smooth="yes"/>
      <point x="974" y="834"/>
      <point x="953" y="843"/>
      <point x="921" y="843" type="curve" smooth="yes"/>
      <point x="826" y="843" type="line" smooth="yes"/>
      <point x="811" y="843"/>
      <point x="799" y="822"/>
      <point x="795" y="802" type="curve" smooth="yes"/>
      <point x="737" y="504" type="line" smooth="yes"/>
      <point x="706" y="343"/>
      <point x="665" y="214"/>
      <point x="597" y="126" type="curve" smooth="yes"/>
      <point x="530" y="39"/>
      <point x="446" y="0"/>
    </contour>
    <contour>
      <point x="369" y="214" type="curve" smooth="yes"/>
      <point x="438" y="214"/>
      <point x="482" y="264"/>
      <point x="501" y="356" type="curve"/>
      <point x="584" y="787" type="line" smooth="yes"/>
      <point x="585" y="792"/>
      <point x="585" y="795"/>
      <point x="585" y="798" type="curve" smooth="yes"/>
      <point x="585" y="813"/>
      <point x="582" y="822"/>
      <point x="575" y="829" type="curve" smooth="yes"/>
      <point x="567" y="838"/>
      <point x="556" y="843"/>
      <point x="548" y="843" type="curve" smooth="yes"/>
      <point x="480" y="843" type="line" smooth="yes"/>
      <point x="443" y="843"/>
      <point x="412" y="823"/>
      <point x="388" y="791" type="curve" smooth="yes"/>
      <point x="364" y="759"/>
      <point x="348" y="715"/>
      <point x="339" y="667" type="curve" smooth="yes"/>
      <point x="279" y="358" type="line" smooth="yes"/>
      <point x="276" y="342"/>
      <point x="274" y="328"/>
      <point x="274" y="313" type="curve" smooth="yes"/>
      <point x="274" y="262"/>
      <point x="302" y="214"/>
    </contour>
  </outline>
</glyph>
<glyph name="uni10E7" format="1">
  <advance width="1233"/>
  <unicode hex="10E7"/>
  <outline>
    <contour>
      <point x="456" y="-402" type="curve" smooth="yes" name="dv01"/>
      <point x="149" y="-402" name="dh01"/>
      <point x="-4" y="-290" name="sh01"/>
      <point x="-4" y="-66" type="curve" smooth="yes" name="sv01"/>
      <point x="-4" y="-27" name="dh02"/>
      <point x="0" y="13" name="dv02"/>
      <point x="9" y="54" type="curve"/>
      <point x="320" y="54" type="line" name="iv01"/>
      <point x="314" y="25"/>
      <point x="311" y="-2" name="dv03"/>
      <point x="311" y="-25" type="curve" smooth="yes"/>
      <point x="311" y="-136"/>
      <point x="373" y="-192"/>
      <point x="497" y="-192" type="curve" smooth="yes"/>
      <point x="626" y="-192" name="av01"/>
      <point x="716" y="-132"/>
      <point x="741" y="-3" type="curve" smooth="yes"/>
      <point x="790" y="250" type="line"/>
      <point x="743" y="218"/>
      <point x="703" y="190"/>
      <point x="659" y="171" type="curve"/>
      <point x="610" y="148" name="dv04"/>
      <point x="577" y="146"/>
      <point x="526" y="146" type="curve" smooth="yes" name="av02"/>
      <point x="374" y="146"/>
      <point x="251" y="174"/>
      <point x="175" y="247" type="curve"/>
      <point x="108" y="314"/>
      <point x="99" y="394"/>
      <point x="99" y="454" type="curve" smooth="yes"/>
      <point x="99" y="542"/>
      <point x="118" y="639"/>
      <point x="149" y="716" type="curve" smooth="yes"/>
      <point x="180" y="796"/>
      <point x="226" y="861"/>
      <point x="306" y="932" type="curve" smooth="yes"/>
      <point x="347" y="967"/>
      <point x="394" y="1002"/>
      <point x="449" y="1037" type="curve"/>
      <point x="760" y="1037" type="line"/>
      <point x="663" y="956"/>
      <point x="597" y="894"/>
      <point x="550" y="843" type="curve" smooth="yes"/>
      <point x="505" y="794"/>
      <point x="478" y="755"/>
      <point x="458" y="712" type="curve" smooth="yes"/>
      <point x="443" y="679"/>
      <point x="431" y="641"/>
      <point x="423" y="594" type="curve" smooth="yes"/>
      <point x="416" y="553"/>
      <point x="413" y="508"/>
      <point x="413" y="489" type="curve" smooth="yes"/>
      <point x="413" y="474"/>
      <point x="415" y="440"/>
      <point x="439" y="409" type="curve" smooth="yes"/>
      <point x="466" y="376"/>
      <point x="511" y="364"/>
      <point x="580" y="364" type="curve" smooth="yes"/>
      <point x="735" y="364"/>
      <point x="824" y="422"/>
      <point x="848" y="547" type="curve" smooth="yes"/>
      <point x="941" y="1030" type="line" name="hr01"/>
      <point x="1234" y="1030" type="line"/>
      <point x="1033" y="-7" type="line" smooth="yes"/>
      <point x="982" y="-270"/>
      <point x="789" y="-402"/>
    </contour>
  </outline>
</glyph>
<glyph name="uni10F9" format="1">
  <advance width="1233"/>
  <unicode hex="10F9"/>
  <outline>
    <contour>
      <point x="429" y="-402" type="curve" smooth="yes" name="dv01"/>
      <point x="201" y="-402" name="sh01"/>
      <point x="94" y="-325"/>
      <point x="94" y="-158" type="curve" smooth="yes" name="ih01"/>
      <point x="94" y="-129" name="dh01"/>
      <point x="97" y="-99"/>
      <point x="104" y="-68" type="curve" smooth="yes" name="dv04"/>
      <point x="132" y="65" name="dh04"/>
      <point x="201" y="152"/>
      <point x="324" y="220" type="curve"/>
      <point x="109" y="292"/>
      <point x="66" y="408"/>
      <point x="66" y="526" type="curve" smooth="yes" name="dv02"/>
      <point x="66" y="557"/>
      <point x="69" y="591" name="sv01"/>
      <point x="76" y="626" type="curve" smooth="yes"/>
      <point x="138" y="942"/>
      <point x="423" y="1080"/>
      <point x="692" y="1080" type="curve" smooth="yes"/>
      <point x="936" y="1080"/>
      <point x="1161" y="964" name="dh03"/>
      <point x="1161" y="734" type="curve" smooth="yes" name="dv03"/>
      <point x="1161" y="699" name="sh02"/>
      <point x="1156" y="661" name="dh02"/>
      <point x="1148" y="625" type="curve" smooth="yes"/>
      <point x="1108" y="439"/>
      <point x="982" y="296" name="sh03"/>
      <point x="683" y="165" type="curve"/>
      <point x="490" y="93"/>
      <point x="413" y="21"/>
      <point x="395" y="-58" type="curve" smooth="yes"/>
      <point x="391" y="-77"/>
      <point x="389" y="-94"/>
      <point x="389" y="-109" type="curve" smooth="yes"/>
      <point x="389" y="-168"/>
      <point x="413" y="-192"/>
      <point x="472" y="-192" type="curve" smooth="yes" name="hr01"/>
      <point x="537" y="-192"/>
      <point x="593" y="-162"/>
      <point x="606" y="-97" type="curve" smooth="yes"/>
      <point x="628" y="14" type="line"/>
      <point x="912" y="14" type="line"/>
      <point x="890" y="-97" type="line" smooth="yes"/>
      <point x="849" y="-304"/>
      <point x="685" y="-402"/>
    </contour>
    <contour>
      <point x="569" y="386" type="curve"/>
      <point x="735" y="409"/>
      <point x="831" y="488"/>
      <point x="857" y="625" type="curve" smooth="yes"/>
      <point x="862" y="652"/>
      <point x="864" y="676"/>
      <point x="864" y="696" type="curve" smooth="yes"/>
      <point x="864" y="813"/>
      <point x="796" y="868"/>
      <point x="667" y="868" type="curve" smooth="yes"/>
      <point x="500" y="868"/>
      <point x="394" y="776"/>
      <point x="371" y="625" type="curve" smooth="yes"/>
      <point x="368" y="606"/>
      <point x="366" y="577"/>
      <point x="366" y="561" type="curve" smooth="yes" name="hr02"/>
      <point x="366" y="475"/>
      <point x="428" y="405"/>
    </contour>
  </outline>
</glyph>
<glyph name="Wacute" format="1">
  <advance width="1233"/>
  <unicode hex="1E82"/>
  <outline>
    <contour>
      <point x="821" y="1859" type="line" name="av01"/>
      <point x="1102" y="1859" type="line"/>
      <point x="782" y="1595" type="line"/>
      <point x="575" y="1595" type="line" name="iv01"/>
    </contour>
    <contour>
      <point x="143" y="1493" type="line" name="at01"/>
      <point x="397" y="1493" type="line"/>
      <point x="289" y="397" type="line" name="iv02"/>
      <point x="561" y="1106" type="line"/>
      <point x="799" y="1106" type="line"/>
      <point x="811" y="397" type="line" name="iv03"/>
      <point x="1108" y="1493" type="line" name="at02"/>
      <point x="1370" y="1493" type="line" name="iv04"/>
      <point x="909" y="0" type="line" name="ab01"/>
      <point x="639" y="0" type="line"/>
      <point x="627" y="784" type="line" name="iv05"/>
      <point x="309" y="0" type="line" name="ab02"/>
      <point x="41" y="0" type="line"/>
    </contour>
  </outline>
</glyph>
<glyph name="uni2048" format="1">
  <advance width="1233"/>
  <unicode hex="2048"/>
  <outline>
    <contour>
      <point x="138" y="555" type="line"/>
      <point x="230" y="851"/>
      <point x="230" y="815"/>
      <point x="319" y="920" type="curve" smooth="yes"/>
      <point x="407" y="1025" name="sv01"/>
      <point x="420" y="1074"/>
      <point x="425" y="1104" type="curve" smooth="yes"/>
      <point x="428" y="1119"/>
      <point x="429" y="1148" name="at02"/>
      <point x="429" y="1157" type="curve" smooth="yes"/>
      <point x="429" y="1186"/>
      <point x="409" y="1232"/>
      <point x="365" y="1232" type="curve" smooth="yes"/>
      <point x="348" y="1232"/>
      <point x="328" y="1226"/>
      <point x="307" y="1213" type="curve"/>
      <point x="262" y="1196"/>
      <point x="209" y="1157"/>
      <point x="149" y="1098" type="curve" name="at01"/>
      <point x="209" y="1407" type="line"/>
      <point x="316" y="1487"/>
      <point x="404" y="1520"/>
      <point x="495" y="1520" type="curve" smooth="yes"/>
      <point x="666" y="1520" name="dv01"/>
      <point x="715" y="1395"/>
      <point x="715" y="1271" type="curve" smooth="yes"/>
      <point x="715" y="1211"/>
      <point x="705" y="1130"/>
      <point x="654" y="1026" type="curve" smooth="yes"/>
      <point x="629" y="974" name="dv02"/>
      <point x="598" y="925"/>
      <point x="566" y="884" type="curve" smooth="yes"/>
      <point x="502" y="804"/>
      <point x="471" y="761"/>
      <point x="442" y="674" type="curve" name="sv02"/>
      <point x="419" y="609"/>
      <point x="412" y="582"/>
      <point x="409" y="571" type="curve" smooth="yes"/>
      <point x="399" y="524" type="line"/>
      <point x="375" y="401" type="line"/>
      <point x="108" y="401" type="line" name="sv03"/>
    </contour>
    <contour>
      <point x="808" y="838" type="line"/>
      <point x="937" y="1493" type="line"/>
      <point x="1203" y="1493" type="line"/>
      <point x="1076" y="838" type="line"/>
      <point x="974" y="481" type="line"/>
      <point x="775" y="481" type="line"/>
    </contour>
    <contour>
      <point x="183" y="-55" type="curve" smooth="yes"/>
      <point x="136" y="-55"/>
      <point x="106" y="-38"/>
      <point x="83" y="-13" type="curve" smooth="yes"/>
      <point x="62" y="11"/>
      <point x="47" y="46"/>
      <point x="47" y="83" type="curve" smooth="yes"/>
      <point x="47" y="113" type="line" smooth="yes"/>
      <point x="47" y="126"/>
      <point x="54" y="148"/>
      <point x="62" y="164" type="curve" smooth="yes"/>
      <point x="73" y="185"/>
      <point x="90" y="216"/>
      <point x="121" y="240" type="curve" smooth="yes"/>
      <point x="152" y="264"/>
      <point x="189" y="279"/>
      <point x="234" y="279" type="curve" smooth="yes"/>
      <point x="297" y="279"/>
      <point x="344" y="252"/>
      <point x="365" y="192" type="curve" smooth="yes"/>
      <point x="371" y="175"/>
      <point x="374" y="156"/>
      <point x="374" y="136" type="curve" smooth="yes"/>
      <point x="374" y="72"/>
      <point x="349" y="28"/>
      <point x="314" y="-3" type="curve" smooth="yes"/>
      <point x="279" y="-35"/>
      <point x="234" y="-55"/>
    </contour>
    <contour>
      <point x="792" y="-55" type="curve" smooth="yes"/>
      <point x="745" y="-55"/>
      <point x="715" y="-38"/>
      <point x="692" y="-13" type="curve" smooth="yes"/>
      <point x="671" y="11"/>
      <point x="656" y="46"/>
      <point x="656" y="83" type="curve" smooth="yes" name="hr01"/>
      <point x="656" y="113" type="line" smooth="yes"/>
      <point x="656" y="126"/>
      <point x="663" y="148"/>
      <point x="671" y="164" type="curve" smooth="yes"/>
      <point x="682" y="185"/>
      <point x="699" y="216"/>
      <point x="730" y="240" type="curve" smooth="yes"/>
      <point x="761" y="264"/>
      <point x="798" y="279"/>
      <point x="843" y="279" type="curve" smooth="yes"/>
      <point x="906" y="279"/>
      <point x="953" y="252"/>
      <point x="974" y="192" type="curve" smooth="yes"/>
      <point x="980" y="175"/>
      <point x="983" y="156"/>
      <point x="983" y="136" type="curve" smooth="yes"/>
      <point x="983" y="72"/>
      <point x="958" y="28"/>
      <point x="923" y="-3" type="curve" smooth="yes"/>
      <point x="888" y="-35"/>
      <point x="843" y="-55"/>
    </contour>
  </outline>
</glyph>
<glyph name="uni20AA" format="1">
  <advance width="1233"/>
  <unicode hex="20AA"/>
  <outline>
    <contour>
      <point x="210" y="1493" type="line" name="at01"/>
      <point x="607" y="1493" type="line" smooth="yes"/>
      <point x="816" y="1493" name="sh01"/>
      <point x="921" y="1364"/>
      <point x="921" y="1107" type="curve" smooth="yes"/>
      <point x="921" y="1035"/>
      <point x="913" y="958"/>
      <point x="898" y="866" type="curve" smooth="yes" name="ah02"/>
      <point x="840" y="521" type="line" name="sv01"/>
      <point x="664" y="521" type="line"/>
      <point x="722" y="866" type="line" smooth="yes" name="av01"/>
      <point x="734" y="938" name="sv02"/>
      <point x="742" y="996" name="dv01"/>
      <point x="742" y="1045" type="curve" smooth="yes" name="sh02"/>
      <point x="742" y="1161"/>
      <point x="698" y="1210"/>
      <point x="589" y="1210" type="curve" smooth="yes"/>
      <point x="400" y="1210" type="line"/>
      <point x="189" y="-28" type="line" name="sh03"/>
      <point x="-49" y="-28" type="line" name="dv02"/>
    </contour>
    <contour>
      <point x="685" y="-28" type="line" smooth="yes" name="hr03"/>
      <point x="473" y="-28" name="at02"/>
      <point x="370" y="95"/>
      <point x="370" y="355" type="curve" smooth="yes" name="av02"/>
      <point x="370" y="427" name="ah01"/>
      <point x="378" y="503"/>
      <point x="394" y="598" type="curve" smooth="yes"/>
      <point x="452" y="943" type="line"/>
      <point x="628" y="943" type="line"/>
      <point x="570" y="598" type="line" smooth="yes"/>
      <point x="558" y="527"/>
      <point x="550" y="472"/>
      <point x="550" y="420" type="curve" smooth="yes"/>
      <point x="550" y="303"/>
      <point x="590" y="254"/>
      <point x="702" y="254" type="curve" smooth="yes"/>
      <point x="892" y="254" type="line"/>
      <point x="1102" y="1493" type="line"/>
      <point x="1341" y="1493" type="line"/>
      <point x="1082" y="-29" type="line"/>
    </contour>
  </outline>
</glyph>
<glyph name="Euro" format="1">
  <advance width="1233"/>
  <unicode hex="20AC"/>
  <outline>
    <contour>
      <point x="651" y="-29" type="curve" smooth="yes" name="dv01"/>
      <point x="492" y="-29"/>
      <point x="374" y="21"/>
      <point x="294" y="105" type="curve" smooth="yes" name="dv03"/>
      <point x="210" y="194"/>
      <point x="168" y="320"/>
      <point x="168" y="477" type="curve" smooth="yes" name="dv04"/>
      <point x="168" y="483" type="line"/>
      <point x="-33" y="483" type="line" name="dv05"/>
      <point x="51" y="670" type="line"/>
      <point x="178" y="670" type="line"/>
      <point x="182" y="707" name="dv06"/>
      <point x="185" y="724"/>
      <point x="190" y="751" type="curve" smooth="yes" name="at01"/>
      <point x="205" y="821" type="line"/>
      <point x="29" y="821" type="line"/>
      <point x="113" y="1010" type="line"/>
      <point x="260" y="1010" type="line"/>
      <point x="323" y="1176" name="sv01"/>
      <point x="411" y="1302"/>
      <point x="524" y="1389" type="curve" smooth="yes" name="sv02"/>
      <point x="639" y="1476"/>
      <point x="772" y="1520" name="sv03"/>
      <point x="924" y="1520" type="curve" smooth="yes"/>
      <point x="979" y="1520"/>
      <point x="1032" y="1514" name="sv04"/>
      <point x="1084" y="1502" type="curve" smooth="yes"/>
      <point x="1135" y="1490" name="sv05"/>
      <point x="1186" y="1472"/>
      <point x="1235" y="1448" type="curve"/>
      <point x="1171" y="1120" type="line" name="dv02"/>
      <point x="1132" y="1173"/>
      <point x="1086" y="1211"/>
      <point x="1046" y="1234" type="curve" smooth="yes"/>
      <point x="999" y="1261"/>
      <point x="947" y="1272"/>
      <point x="896" y="1272" type="curve" smooth="yes"/>
      <point x="828" y="1272"/>
      <point x="763" y="1250"/>
      <point x="706" y="1205" type="curve" smooth="yes"/>
      <point x="650" y="1161"/>
      <point x="602" y="1098"/>
      <point x="563" y="1010" type="curve"/>
      <point x="965" y="1010" type="line"/>
      <point x="883" y="821" type="line"/>
      <point x="498" y="821" type="line"/>
      <point x="493" y="805"/>
      <point x="485" y="759"/>
      <point x="482" y="745" type="curve" smooth="yes"/>
      <point x="467" y="670" type="line"/>
      <point x="813" y="670" type="line"/>
      <point x="731" y="483" type="line"/>
      <point x="453" y="483" type="line"/>
      <point x="458" y="400"/>
      <point x="482" y="335"/>
      <point x="524" y="289" type="curve" smooth="yes"/>
      <point x="567" y="242"/>
      <point x="623" y="219"/>
      <point x="694" y="219" type="curve" smooth="yes"/>
      <point x="742" y="219"/>
      <point x="793" y="229"/>
      <point x="842" y="250" type="curve" smooth="yes"/>
      <point x="889" y="270"/>
      <point x="947" y="307"/>
      <point x="1030" y="371" type="curve"/>
      <point x="967" y="43" type="line"/>
      <point x="916" y="19"/>
      <point x="864" y="1"/>
      <point x="813" y="-11" type="curve" smooth="yes"/>
      <point x="760" y="-23"/>
      <point x="706" y="-29"/>
    </contour>
  </outline>
</glyph>
<glyph name="uni20B5" format="1">
  <advance width="1233"/>
  <unicode hex="20B5"/>
  <outline>
    <contour>
      <point x="585" y="-27" type="line" name="hr00"/>
      <point x="351" y="-11" name="dh01"/>
      <point x="38" y="120"/>
      <point x="38" y="505" type="curve" smooth="yes"/>
      <point x="38" y="554" name="at01"/>
      <point x="43" y="612"/>
      <point x="55" y="673" type="curve" smooth="yes"/>
      <point x="151" y="1158"/>
      <point x="556" y="1353"/>
      <point x="856" y="1369" type="curve" name="iv01"/>
      <point x="892" y="1556" type="line"/>
      <point x="1054" y="1556" type="line" name="iv02"/>
      <point x="1017" y="1365" type="line" name="iv03"/>
      <point x="1056" y="1360"/>
      <point x="1092" y="1354"/>
      <point x="1127" y="1343" type="curve" smooth="yes"/>
      <point x="1193" y="1324" name="av01"/>
      <point x="1254" y="1297"/>
      <point x="1309" y="1260" type="curve" name="iv04"/>
      <point x="1249" y="951" type="line"/>
      <point x="1161" y="1055" name="dh02"/>
      <point x="1060" y="1096"/>
      <point x="967" y="1105" type="curve"/>
      <point x="798" y="236" type="line"/>
      <point x="895" y="245"/>
      <point x="1008" y="286"/>
      <point x="1141" y="391" type="curve"/>
      <point x="1081" y="82" type="line"/>
      <point x="1009" y="45"/>
      <point x="937" y="18"/>
      <point x="866" y="-1" type="curve" smooth="yes"/>
      <point x="823" y="-12"/>
      <point x="787" y="-18"/>
      <point x="748" y="-23" type="curve"/>
      <point x="694" y="-301" type="line"/>
      <point x="532" y="-301" type="line"/>
    </contour>
    <contour>
      <point x="803" y="1095" type="line"/>
      <point x="764" y="1086"/>
      <point x="725" y="1069"/>
      <point x="686" y="1046" type="curve" smooth="yes"/>
      <point x="530" y="951"/>
      <point x="431" y="751"/>
      <point x="431" y="575" type="curve" smooth="yes"/>
      <point x="431" y="466"/>
      <point x="469" y="359"/>
      <point x="545" y="294" type="curve" smooth="yes"/>
      <point x="571" y="272"/>
      <point x="602" y="256"/>
      <point x="638" y="246" type="curve"/>
    </contour>
  </outline>
</glyph>
<glyph name="Omega" format="1">
  <advance width="1233"/>
  <unicode hex="2126"/>
  <outline>
    <contour>
      <point x="-10" y="211" type="line" name="sv01"/>
      <point x="228" y="211" type="line" name="ih01"/>
      <point x="133" y="315" name="sh01"/>
      <point x="90" y="430"/>
      <point x="90" y="582" type="curve" smooth="yes" name="dv02"/>
      <point x="90" y="642" name="sh03"/>
      <point x="97" y="709"/>
      <point x="111" y="782" type="curve" smooth="yes" name="ih02"/>
      <point x="191" y="1192" name="sv02"/>
      <point x="440" y="1460" name="ab01"/>
      <point x="758" y="1460" type="curve" smooth="yes"/>
      <point x="1016" y="1460"/>
      <point x="1165" y="1282"/>
      <point x="1165" y="989" type="curve" smooth="yes" name="ah02"/>
      <point x="1165" y="925"/>
      <point x="1158" y="856" name="dv01"/>
      <point x="1144" y="782" type="curve" smooth="yes"/>
      <point x="1096" y="528" name="sh02"/>
      <point x="992" y="355"/>
      <point x="805" y="211" type="curve" name="ab02"/>
      <point x="1043" y="211" type="line"/>
      <point x="1002" y="0" type="line" name="ah01"/>
      <point x="531" y="0" type="line" name="sh04"/>
      <point x="583" y="268" type="line"/>
      <point x="720" y="381"/>
      <point x="790" y="527"/>
      <point x="835" y="748" type="curve" smooth="yes"/>
      <point x="851" y="828"/>
      <point x="859" y="898"/>
      <point x="859" y="957" type="curve" smooth="yes"/>
      <point x="859" y="1004"/>
      <point x="854" y="1044"/>
      <point x="844" y="1078" type="curve" smooth="yes"/>
      <point x="821" y="1157"/>
      <point x="775" y="1194"/>
      <point x="708" y="1194" type="curve" smooth="yes"/>
      <point x="568" y="1194"/>
      <point x="459" y="1024"/>
      <point x="405" y="748" type="curve" smooth="yes"/>
      <point x="391" y="676"/>
      <point x="384" y="611"/>
      <point x="384" y="552" type="curve" smooth="yes"/>
      <point x="384" y="431"/>
      <point x="414" y="337"/>
      <point x="474" y="268" type="curve"/>
      <point x="422" y="0" type="line"/>
      <point x="-51" y="0" type="line"/>
    </contour>
  </outline>
</glyph>
<glyph name="uni2158" format="1">
  <advance width="1233"/>
  <unicode hex="2158"/>
  <outline>
    <contour>
      <point x="431" y="1004" type="line" name="sv01"/>
      <point x="42" y="1004" type="line"/>
      <point x="73" y="1166" type="line"/>
      <point x="540" y="1659" type="line" name="av01"/>
      <point x="745" y="1659" type="line"/>
      <point x="644" y="1147" type="line" name="at01"/>
      <point x="753" y="1147" type="line"/>
      <point x="726" y="1004" type="line" name="sv02"/>
      <point x="618" y="1004" type="line" name="sv03"/>
      <point x="583" y="824" type="line" name="sv04"/>
      <point x="395" y="824" type="line" name="sv05"/>
    </contour>
    <contour>
      <point x="458" y="1147" type="line" name="at02"/>
      <point x="522" y="1477" type="line"/>
      <point x="208" y="1147" type="line"/>
    </contour>
    <contour>
      <point x="47" y="618" type="line"/>
      <point x="1106" y="879" type="line"/>
      <point x="1143" y="762" type="line"/>
      <point x="84" y="500" type="line"/>
    </contour>
    <contour>
      <point x="644" y="-285" type="curve" smooth="yes" name="dv01"/>
      <point x="553" y="-285"/>
      <point x="454" y="-273"/>
      <point x="374" y="-250" type="curve" name="dv02"/>
      <point x="410" y="-101" type="line" name="dh01"/>
      <point x="478" y="-130" name="dv03"/>
      <point x="560" y="-147"/>
      <point x="645" y="-147" type="curve" smooth="yes"/>
      <point x="809" y="-147" name="dv06"/>
      <point x="912" y="-84" name="dv05"/>
      <point x="912" y="15" type="curve" smooth="yes"/>
      <point x="912" y="96" name="iv01"/>
      <point x="844" y="143" name="dv04"/>
      <point x="721" y="143" type="curve" smooth="yes" name="dh02"/>
      <point x="652" y="143"/>
      <point x="572" y="128"/>
      <point x="496" y="100" type="curve" name="sh01"/>
      <point x="611" y="565" type="line"/>
      <point x="1187" y="565" type="line"/>
      <point x="1150" y="420" type="line"/>
      <point x="745" y="420" type="line"/>
      <point x="707" y="266" type="line"/>
      <point x="738" y="275"/>
      <point x="771" y="280"/>
      <point x="814" y="280" type="curve" smooth="yes"/>
      <point x="996" y="280"/>
      <point x="1116" y="188"/>
      <point x="1116" y="33" type="curve" smooth="yes" name="hr02"/>
      <point x="1116" y="-156"/>
      <point x="936" y="-285"/>
    </contour>
  </outline>
</glyph>
<glyph name="uni2159" format="1">
  <advance width="1233"/>
  <unicode hex="2159"/>
  <outline>
    <contour>
      <point x="57" y="969" type="line" name="sv01"/>
      <point x="293" y="969" type="line"/>
      <point x="399" y="1512" type="line"/>
      <point x="170" y="1469" type="line"/>
      <point x="199" y="1618" type="line"/>
      <point x="428" y="1659" type="line" name="sh02"/>
      <point x="625" y="1659" type="line" name="sh04"/>
      <point x="490" y="969" type="line"/>
      <point x="717" y="969" type="line" name="dv08"/>
      <point x="688" y="824" type="line" name="dv07"/>
      <point x="31" y="824" type="line"/>
    </contour>
    <contour>
      <point x="47" y="618" type="line"/>
      <point x="1106" y="879" type="line"/>
      <point x="1143" y="762" type="line" name="sh06"/>
      <point x="84" y="500" type="line"/>
    </contour>
    <contour>
      <point x="733" y="-285" type="curve" smooth="yes" name="dv01"/>
      <point x="534" y="-285" name="sh01"/>
      <point x="426" y="-192"/>
      <point x="426" y="3" type="curve" smooth="yes" name="dv06"/>
      <point x="426" y="147"/>
      <point x="486" y="319"/>
      <point x="589" y="430" type="curve" smooth="yes" name="dv05"/>
      <point x="683" y="531" name="ih01"/>
      <point x="813" y="582" name="dv04"/>
      <point x="980" y="582" type="curve" smooth="yes" name="sh05"/>
      <point x="1053" y="582"/>
      <point x="1111" y="572" name="dv02"/>
      <point x="1187" y="548" type="curve" name="ah02"/>
      <point x="1151" y="399" type="line" name="dv03"/>
      <point x="1095" y="431" name="sh03"/>
      <point x="1026" y="449"/>
      <point x="958" y="449" type="curve" smooth="yes" name="ah01"/>
      <point x="813" y="449" name="sh07"/>
      <point x="707" y="368"/>
      <point x="663" y="211" type="curve"/>
      <point x="719" y="256"/>
      <point x="791" y="284"/>
      <point x="879" y="284" type="curve" smooth="yes"/>
      <point x="1034" y="284"/>
      <point x="1133" y="196"/>
      <point x="1133" y="46" type="curve" smooth="yes"/>
      <point x="1133" y="-144"/>
      <point x="976" y="-285"/>
    </contour>
    <contour>
      <point x="746" y="-151" type="curve" smooth="yes"/>
      <point x="853" y="-151"/>
      <point x="928" y="-59"/>
      <point x="928" y="37" type="curve" smooth="yes"/>
      <point x="928" y="113"/>
      <point x="881" y="151"/>
      <point x="812" y="151" type="curve" smooth="yes"/>
      <point x="705" y="151"/>
      <point x="630" y="60"/>
      <point x="630" y="-36" type="curve" smooth="yes"/>
      <point x="630" y="-112"/>
      <point x="675" y="-151"/>
    </contour>
  </outline>
</glyph>
<glyph name="uni21F8" format="1">
  <advance width="1233"/>
  <unicode hex="21F8"/>
  <outline>
    <contour>
      <point x="404" y="449" type="line" name="dh01"/>
      <point x="66" y="449" type="line"/>
      <point x="66" y="673" type="line"/>
      <point x="404" y="673" type="line" name="sh01"/>
      <point x="404" y="923" type="line" name="av03"/>
      <point x="598" y="923" type="line" name="sh02"/>
      <point x="598" y="673" type="line" name="sv01"/>
      <point x="886" y="673" type="line" name="iv01"/>
      <point x="756" y="803" type="line"/>
      <point x="876" y="923" type="line" name="av04"/>
      <point x="1167" y="632" type="line"/>
      <point x="1167" y="490" type="line"/>
      <point x="876" y="199" type="line" name="av01"/>
      <point x="756" y="319" type="line"/>
      <point x="886" y="449" type="line" name="sv02"/>
      <point x="598" y="449" type="line" name="dh02"/>
      <point x="598" y="199" type="line" name="av02"/>
      <point x="404" y="199" type="line"/>
    </contour>
  </outline>
</glyph>
<glyph name="uni220D" format="1">
  <advance width="1233"/>
  <unicode hex="220D"/>
  <outline>
    <contour>
      <point x="99" y="353" type="line" name="hr00"/>
      <point x="597" y="353" type="line" smooth="yes" name="dv02"/>
      <point x="697" y="353"/>
      <point x="767" y="388" name="dv05"/>
      <point x="830" y="449" type="curve" smooth="yes"/>
      <point x="858" y="477"/>
      <point x="879" y="504" name="dv06"/>
      <point x="892" y="531" type="curve"/>
      <point x="99" y="531" type="line" name="dv03"/>
      <point x="99" y="753" type="line"/>
      <point x="891" y="753" type="line"/>
      <point x="876" y="780" name="dv04"/>
      <point x="855" y="808"/>
      <point x="830" y="835" type="curve" smooth="yes"/>
      <point x="767" y="900"/>
      <point x="689" y="933" name="dv01"/>
      <point x="597" y="933" type="curve" smooth="yes"/>
      <point x="99" y="933" type="line"/>
      <point x="99" y="1155" type="line"/>
      <point x="597" y="1155" type="line" smooth="yes"/>
      <point x="793" y="1155"/>
      <point x="966" y="1058"/>
      <point x="1062" y="900" type="curve" smooth="yes"/>
      <point x="1110" y="821"/>
      <point x="1134" y="735"/>
      <point x="1134" y="643" type="curve" smooth="yes"/>
      <point x="1134" y="456"/>
      <point x="1030" y="289"/>
      <point x="867" y="198" type="curve" smooth="yes"/>
      <point x="784" y="152"/>
      <point x="694" y="129"/>
      <point x="597" y="129" type="curve" smooth="yes"/>
      <point x="99" y="129" type="line"/>
    </contour>
  </outline>
</glyph>
<glyph name="uni222D" format="1">
  <advance width="1233"/>
  <unicode hex="222D"/>
  <outline>
    <contour>
      <point x="149" y="-418" type="curve" smooth="yes" name="dv01"/>
      <point x="97" y="-418"/>
      <point x="42" y="-400"/>
      <point x="-42" y="-343" type="curve" name="dv02"/>
      <point x="40" y="-221" type="line" name="dh01"/>
      <point x="49" y="-232"/>
      <point x="65" y="-237" name="dv04"/>
      <point x="76" y="-237" type="curve" smooth="yes"/>
      <point x="105" y="-237" name="ih01"/>
      <point x="118" y="-189" name="dv03"/>
      <point x="118" y="-68" type="curve" smooth="yes"/>
      <point x="118" y="1502" type="line" smooth="yes" name="dh02"/>
      <point x="118" y="1695"/>
      <point x="197" y="1827" name="sv01"/>
      <point x="337" y="1827" type="curve" smooth="yes"/>
      <point x="389" y="1827" name="ih02"/>
      <point x="444" y="1809" name="sv02"/>
      <point x="528" y="1752" type="curve" name="dh03"/>
      <point x="446" y="1630" type="line"/>
      <point x="437" y="1641" name="sv03"/>
      <point x="421" y="1646"/>
      <point x="410" y="1646" type="curve" smooth="yes" name="ih03"/>
      <point x="381" y="1646" name="sv04"/>
      <point x="368" y="1598"/>
      <point x="368" y="1477" type="curve" smooth="yes" name="dh04"/>
      <point x="368" y="-93" type="line" smooth="yes"/>
      <point x="368" y="-286" name="sv05"/>
      <point x="289" y="-418"/>
    </contour>
    <contour>
      <point x="522" y="-418" type="curve" smooth="yes" name="sv06"/>
      <point x="466" y="-418" name="dh05"/>
      <point x="413" y="-399"/>
      <point x="332" y="-343" type="curve" name="sv07"/>
      <point x="414" y="-221" type="line"/>
      <point x="423" y="-232"/>
      <point x="439" y="-237" name="sv08"/>
      <point x="450" y="-237" type="curve" smooth="yes"/>
      <point x="479" y="-237" name="dh06"/>
      <point x="492" y="-189"/>
      <point x="492" y="-68" type="curve" smooth="yes"/>
      <point x="492" y="1502" type="line" smooth="yes" name="sh01"/>
      <point x="492" y="1695"/>
      <point x="571" y="1827"/>
      <point x="711" y="1827" type="curve" smooth="yes"/>
      <point x="771" y="1827"/>
      <point x="827" y="1803"/>
      <point x="902" y="1752" type="curve"/>
      <point x="820" y="1630" type="line"/>
      <point x="811" y="1641"/>
      <point x="795" y="1646"/>
      <point x="784" y="1646" type="curve" smooth="yes"/>
      <point x="755" y="1646"/>
      <point x="742" y="1598"/>
      <point x="742" y="1477" type="curve" smooth="yes"/>
      <point x="742" y="-93" type="line" smooth="yes"/>
      <point x="742" y="-286"/>
      <point x="662" y="-418"/>
    </contour>
    <contour>
      <point x="896" y="-418" type="curve" smooth="yes"/>
      <point x="844" y="-418"/>
      <point x="789" y="-400"/>
      <point x="705" y="-343" type="curve"/>
      <point x="787" y="-221" type="line"/>
      <point x="796" y="-232"/>
      <point x="812" y="-237"/>
      <point x="823" y="-237" type="curve" smooth="yes"/>
      <point x="852" y="-237"/>
      <point x="865" y="-189"/>
      <point x="865" y="-68" type="curve" smooth="yes"/>
      <point x="865" y="1502" type="line" smooth="yes"/>
      <point x="865" y="1695"/>
      <point x="944" y="1827"/>
      <point x="1084" y="1827" type="curve" smooth="yes"/>
      <point x="1136" y="1827"/>
      <point x="1191" y="1809"/>
      <point x="1275" y="1752" type="curve"/>
      <point x="1193" y="1630" type="line"/>
      <point x="1184" y="1641"/>
      <point x="1168" y="1646"/>
      <point x="1157" y="1646" type="curve" smooth="yes"/>
      <point x="1128" y="1646"/>
      <point x="1115" y="1598"/>
      <point x="1115" y="1477" type="curve" smooth="yes"/>
      <point x="1115" y="-93" type="line" smooth="yes"/>
      <point x="1115" y="-286"/>
      <point x="1036" y="-418"/>
    </contour>
  </outline>
</glyph>
<glyph name="uni2244" format="1">
  <advance width="1233"/>
  <unicode hex="2244"/>
  <outline>
    <contour>
      <point x="194" y="112" type="line"/>
      <point x="297" y="295" type="line" name="sv01"/>
      <point x="88" y="295" type="line"/>
      <point x="88" y="530" type="line"/>
      <point x="426" y="530" type="line" name="dv02"/>
      <point x="559" y="760" type="line"/>
      <point x="515" y="783" name="dv03"/>
      <point x="450" y="796"/>
      <point x="382" y="796" type="curve" smooth="yes" name="iv01"/>
      <point x="326" y="796"/>
      <point x="281" y="787" name="dv04"/>
      <point x="240" y="770" type="curve" smooth="yes"/>
      <point x="194" y="751"/>
      <point x="127" y="712"/>
      <point x="88" y="673" type="curve" name="av01"/>
      <point x="88" y="899" type="line"/>
      <point x="200" y="995" name="iv02"/>
      <point x="314" y="1018" name="dv06"/>
      <point x="402" y="1018" type="curve" smooth="yes" name="iv03"/>
      <point x="471" y="1018"/>
      <point x="521" y="1002"/>
      <point x="614" y="968" type="curve" smooth="yes" name="dv05"/>
      <point x="627" y="963" type="line"/>
      <point x="665" y="945" type="line" name="sv02"/>
      <point x="866" y="1305" type="line"/>
      <point x="1010" y="1222" type="line"/>
      <point x="827" y="898" type="line" name="dv01"/>
      <point x="842" y="895" name="av02"/>
      <point x="855" y="893"/>
      <point x="872" y="893" type="curve" smooth="yes" name="hr01"/>
      <point x="958" y="893"/>
      <point x="1067" y="945"/>
      <point x="1145" y="1020" type="curve"/>
      <point x="1145" y="788" type="line"/>
      <point x="1102" y="749"/>
      <point x="1053" y="723"/>
      <point x="985" y="698" type="curve" smooth="yes"/>
      <point x="936" y="679"/>
      <point x="901" y="671"/>
      <point x="856" y="671" type="curve" smooth="yes"/>
      <point x="809" y="671"/>
      <point x="765" y="679"/>
      <point x="712" y="698" type="curve"/>
      <point x="618" y="530" type="line"/>
      <point x="1146" y="530" type="line"/>
      <point x="1146" y="295" type="line"/>
      <point x="484" y="295" type="line"/>
      <point x="334" y="32" type="line"/>
    </contour>
  </outline>
</glyph>
<glyph name="uni2252" format="1">
  <advance width="1233"/>
  <unicode hex="2252"/>
  <outline>
    <contour>
      <point x="88" y="1448" type="line" name="sh01"/>
      <point x="421" y="1448" type="line" name="sh02"/>
      <point x="421" y="1083" type="line" name="dv02"/>
      <point x="88" y="1083" type="line"/>
    </contour>
    <contour>
      <point x="88" y="987" type="line" name="sh03"/>
      <point x="1145" y="987" type="line" name="sh05"/>
      <point x="1145" y="752" type="line" name="dv04"/>
      <point x="88" y="752" type="line"/>
    </contour>
    <contour>
      <point x="88" y="532" type="line" name="sh06"/>
      <point x="1145" y="532" type="line" name="sh07"/>
      <point x="1145" y="295" type="line" name="dv03"/>
      <point x="88" y="295" type="line"/>
    </contour>
    <contour>
      <point x="812" y="199" type="line" name="ah01"/>
      <point x="1145" y="199" type="line" name="sh04"/>
      <point x="1145" y="-166" type="line" name="dv01"/>
      <point x="812" y="-166" type="line"/>
    </contour>
  </outline>
</glyph>
<glyph name="uni225E" format="1">
  <advance width="1233"/>
  <unicode hex="225E"/>
  <outline>
    <contour>
      <point x="180" y="1627" type="line" name="sh01"/>
      <point x="355" y="1627" type="line" name="sh02"/>
      <point x="355" y="1546" type="line" name="iv01"/>
      <point x="398" y="1609" name="sh04"/>
      <point x="452" y="1640" name="ih01"/>
      <point x="519" y="1640" type="curve" smooth="yes" name="sh06"/>
      <point x="595" y="1640"/>
      <point x="655" y="1601" name="sh07"/>
      <point x="684" y="1536" type="curve" name="sh05"/>
      <point x="729" y="1605"/>
      <point x="790" y="1640" name="sh08"/>
      <point x="865" y="1640" type="curve" smooth="yes"/>
      <point x="985" y="1640" name="dv03"/>
      <point x="1053" y="1561"/>
      <point x="1053" y="1412" type="curve" smooth="yes" name="sh09"/>
      <point x="1053" y="1078" type="line" name="sh03"/>
      <point x="878" y="1078" type="line"/>
      <point x="878" y="1364" type="line"/>
      <point x="879" y="1367" name="sv01"/>
      <point x="879" y="1372" name="sh10"/>
      <point x="879" y="1378" type="curve" smooth="yes"/>
      <point x="879" y="1397" type="line" smooth="yes"/>
      <point x="879" y="1474"/>
      <point x="858" y="1508" name="dv05"/>
      <point x="807" y="1508" type="curve" smooth="yes" name="dv04"/>
      <point x="740" y="1508"/>
      <point x="704" y="1448"/>
      <point x="704" y="1347" type="curve" smooth="yes" name="dv02"/>
      <point x="704" y="1078" type="line" name="dv01"/>
      <point x="529" y="1078" type="line"/>
      <point x="529" y="1364" type="line" smooth="yes" name="ah01"/>
      <point x="529" y="1425" name="sh11"/>
      <point x="524" y="1464"/>
      <point x="514" y="1482" type="curve"/>
      <point x="503" y="1499"/>
      <point x="484" y="1508"/>
      <point x="459" y="1508" type="curve" smooth="yes"/>
      <point x="391" y="1508"/>
      <point x="355" y="1452"/>
      <point x="355" y="1348" type="curve" smooth="yes"/>
      <point x="355" y="1078" type="line"/>
      <point x="180" y="1078" type="line"/>
    </contour>
    <contour>
      <point x="86" y="987" type="line"/>
      <point x="1144" y="987" type="line"/>
      <point x="1144" y="752" type="line"/>
      <point x="86" y="752" type="line"/>
    </contour>
    <contour>
      <point x="86" y="532" type="line"/>
      <point x="1144" y="532" type="line"/>
      <point x="1144" y="295" type="line"/>
      <point x="86" y="295" type="line"/>
    </contour>
  </outline>
</glyph>
<glyph name="uni2275" format="1">
  <advance width="1233"/>
  <unicode hex="2275"/>
  <outline>
    <contour>
      <point x="168" y="-124" type="line" name="hr00"/>
      <point x="214" y="8" type="line" name="iv01"/>
      <point x="173" y="-11" name="iv02"/>
      <point x="131" y="-39"/>
      <point x="88" y="-76" type="curve"/>
      <point x="88" y="153" type="line"/>
      <point x="144" y="196" name="iv03"/>
      <point x="194" y="225" name="iv04"/>
      <point x="239" y="241" type="curve" smooth="yes"/>
      <point x="259" y="248"/>
      <point x="283" y="255"/>
      <point x="302" y="259" type="curve"/>
      <point x="339" y="367" type="line" name="iv05"/>
      <point x="88" y="287" type="line"/>
      <point x="88" y="530" type="line" name="av02"/>
      <point x="430" y="627" type="line"/>
      <point x="501" y="831" type="line"/>
      <point x="88" y="948" type="line"/>
      <point x="88" y="1192" type="line"/>
      <point x="573" y="1039" type="line"/>
      <point x="680" y="1344" type="line"/>
      <point x="861" y="1268" type="line"/>
      <point x="760" y="979" type="line"/>
      <point x="1145" y="858" type="line"/>
      <point x="1145" y="623" type="line" name="dv02"/>
      <point x="573" y="441" type="line" name="iv06"/>
      <point x="507" y="252" type="line"/>
      <point x="544" y="243" name="dv01"/>
      <point x="582" y="230"/>
      <point x="621" y="213" type="curve"/>
      <point x="622" y="213" type="line"/>
      <point x="652" y="199" type="line" smooth="yes"/>
      <point x="729" y="163" name="av01"/>
      <point x="800" y="145" name="iv07"/>
      <point x="865" y="145" type="curve" smooth="yes"/>
      <point x="960" y="145" name="iv08"/>
      <point x="1045" y="182"/>
      <point x="1145" y="270" type="curve"/>
      <point x="1145" y="36" type="line"/>
      <point x="1045" y="-44"/>
      <point x="953" y="-78"/>
      <point x="850" y="-78" type="curve" smooth="yes"/>
      <point x="778" y="-78"/>
      <point x="726" y="-62"/>
      <point x="645" y="-27" type="curve" smooth="yes"/>
      <point x="612" y="-13" type="line" smooth="yes"/>
      <point x="565" y="7"/>
      <point x="523" y="23"/>
      <point x="484" y="34" type="curve" smooth="yes"/>
      <point x="482" y="34"/>
      <point x="440" y="42"/>
      <point x="433" y="42" type="curve"/>
      <point x="349" y="-200" type="line"/>
    </contour>
    <contour>
      <point x="827" y="739" type="line"/>
      <point x="690" y="778" type="line"/>
      <point x="660" y="692" type="line"/>
    </contour>
  </outline>
</glyph>
<glyph name="uni2279" format="1">
  <advance width="1233"/>
  <unicode hex="2279"/>
  <outline>
    <contour>
      <point x="202" y="-358" type="line" name="hr00"/>
      <point x="320" y="19" type="line"/>
      <point x="88" y="93" type="line"/>
      <point x="88" y="328" type="line"/>
      <point x="451" y="443" type="line"/>
      <point x="510" y="630" type="line" name="iv01"/>
      <point x="88" y="496" type="line" name="iv02"/>
      <point x="88" y="739" type="line"/>
      <point x="588" y="880" type="line"/>
      <point x="626" y="1005" type="line"/>
      <point x="88" y="1157" type="line"/>
      <point x="88" y="1401" type="line" name="iv03"/>
      <point x="690" y="1211" type="line"/>
      <point x="807" y="1585" type="line" name="av01"/>
      <point x="1031" y="1515" type="line"/>
      <point x="914" y="1140" type="line"/>
      <point x="1145" y="1067" type="line"/>
      <point x="1145" y="832" type="line"/>
      <point x="782" y="717" type="line"/>
      <point x="724" y="529" type="line" name="iv04"/>
      <point x="1145" y="662" type="line" name="iv05"/>
      <point x="1145" y="418" type="line"/>
      <point x="645" y="277" type="line"/>
      <point x="607" y="152" type="line"/>
      <point x="1145" y="0" type="line"/>
      <point x="1145" y="-243" type="line" name="iv06"/>
      <point x="543" y="-52" type="line"/>
      <point x="426" y="-428" type="line" name="ab01"/>
    </contour>
  </outline>
</glyph>
<glyph name="uni228E" format="1">
  <advance width="1233"/>
  <unicode hex="228E"/>
  <outline>
    <contour>
      <point x="616" y="-29" type="curve" smooth="yes" name="dv01"/>
      <point x="232" y="-29" name="dh01"/>
      <point x="90" y="134" name="av01"/>
      <point x="90" y="582" type="curve" smooth="yes"/>
      <point x="90" y="1284" type="line" name="dh02"/>
      <point x="328" y="1284" type="line" name="dv02"/>
      <point x="328" y="602" type="line" smooth="yes" name="dh05"/>
      <point x="328" y="291" name="av02"/>
      <point x="392" y="214"/>
      <point x="616" y="214" type="curve" smooth="yes" name="dh06"/>
      <point x="841" y="214"/>
      <point x="905" y="292" name="dh03"/>
      <point x="905" y="602" type="curve" smooth="yes"/>
      <point x="905" y="1284" type="line"/>
      <point x="1143" y="1284" type="line" name="sh01"/>
      <point x="1143" y="582" type="line" smooth="yes"/>
      <point x="1143" y="134" name="sh02"/>
      <point x="999" y="-29" name="sv01"/>
    </contour>
    <contour>
      <point x="550" y="576" type="line" name="sv02"/>
      <point x="410" y="576" type="line" name="dh04"/>
      <point x="410" y="708" type="line"/>
      <point x="550" y="708" type="line"/>
      <point x="550" y="848" type="line"/>
      <point x="682" y="848" type="line" name="sh03"/>
      <point x="682" y="708" type="line"/>
      <point x="822" y="708" type="line"/>
      <point x="822" y="576" type="line"/>
      <point x="682" y="576" type="line"/>
      <point x="682" y="436" type="line"/>
      <point x="550" y="436" type="line"/>
    </contour>
  </outline>
</glyph>
<glyph name="uni22CD" format="1">
  <advance width="1233"/>
  <unicode hex="22CD"/>
  <outline>
    <contour>
      <point x="381" y="672" type="curve" smooth="yes" name="dv03"/>
      <point x="281" y="672"/>
      <point x="188" y="706" name="av01"/>
      <point x="88" y="786" type="curve" name="dv04"/>
      <point x="88" y="1020" type="line"/>
      <point x="188" y="932"/>
      <point x="275" y="895"/>
      <point x="368" y="895" type="curve" smooth="yes" name="av02"/>
      <point x="436" y="895"/>
      <point x="508" y="914" name="iv01"/>
      <point x="581" y="949" type="curve" smooth="yes" name="sv01"/>
      <point x="611" y="963" type="line"/>
      <point x="612" y="963" type="line"/>
      <point x="700" y="1000"/>
      <point x="770" y="1018"/>
      <point x="843" y="1018" type="curve" smooth="yes" name="dv02"/>
      <point x="946" y="1018" name="dv01"/>
      <point x="1041" y="983"/>
      <point x="1145" y="903" type="curve"/>
      <point x="1145" y="674" type="line"/>
      <point x="1041" y="762"/>
      <point x="953" y="795"/>
      <point x="848" y="795" type="curve" smooth="yes"/>
      <point x="765" y="795"/>
      <point x="711" y="774"/>
      <point x="621" y="737" type="curve"/>
      <point x="591" y="723"/>
      <point x="604" y="731"/>
      <point x="588" y="723" type="curve"/>
      <point x="516" y="692"/>
      <point x="457" y="672"/>
    </contour>
    <contour>
      <point x="88" y="532" type="line" name="hr02"/>
      <point x="1145" y="532" type="line"/>
      <point x="1145" y="295" type="line"/>
      <point x="88" y="295" type="line"/>
    </contour>
  </outline>
</glyph>
<glyph name="uni25CC" format="1">
  <advance width="1233"/>
  <unicode hex="25CC"/>
  <outline>
    <contour>
      <point x="466" y="1127" type="line" name="hr00"/>
      <point x="516" y="1141" name="dv04"/>
      <point x="566" y="1148"/>
      <point x="616" y="1148" type="curve" smooth="yes"/>
      <point x="666" y="1148" name="dv03"/>
      <point x="716" y="1141"/>
      <point x="766" y="1127" type="curve"/>
      <point x="726" y="970" type="line"/>
      <point x="690" y="981"/>
      <point x="653" y="986"/>
      <point x="616" y="986" type="curve" smooth="yes"/>
      <point x="579" y="986"/>
      <point x="542" y="981"/>
      <point x="506" y="970" type="curve"/>
    </contour>
    <contour>
      <point x="111" y="885" type="line"/>
      <point x="167" y="962" name="sh01"/>
      <point x="238" y="1017"/>
      <point x="311" y="1060" type="curve" name="sh03"/>
      <point x="392" y="920" type="line" name="sh02"/>
      <point x="336" y="889" name="sh04"/>
      <point x="287" y="851" name="sh05"/>
      <point x="244" y="791" type="curve" name="ah02"/>
    </contour>
    <contour>
      <point x="988" y="791" type="line" name="sh06"/>
      <point x="945" y="851"/>
      <point x="894" y="889" name="sh07"/>
      <point x="841" y="920" type="curve"/>
      <point x="921" y="1060" type="line"/>
      <point x="994" y="1017"/>
      <point x="1065" y="962"/>
      <point x="1121" y="885" type="curve"/>
    </contour>
    <contour>
      <point x="22" y="382" type="line"/>
      <point x="11" y="427"/>
      <point x="6" y="477"/>
      <point x="6" y="532" type="curve" smooth="yes"/>
      <point x="6" y="587" name="dv01"/>
      <point x="11" y="637"/>
      <point x="22" y="682" type="curve"/>
      <point x="179" y="642" type="line" name="dv02"/>
      <point x="171" y="607"/>
      <point x="167" y="570"/>
      <point x="167" y="532" type="curve" smooth="yes"/>
      <point x="167" y="493" name="ah01"/>
      <point x="171" y="457" name="sh08"/>
      <point x="179" y="422" type="curve"/>
    </contour>
    <contour>
      <point x="1054" y="422" type="line"/>
      <point x="1062" y="457"/>
      <point x="1066" y="493"/>
      <point x="1066" y="532" type="curve" smooth="yes"/>
      <point x="1066" y="570"/>
      <point x="1062" y="607"/>
      <point x="1054" y="642" type="curve"/>
      <point x="1211" y="682" type="line"/>
      <point x="1222" y="637"/>
      <point x="1227" y="587"/>
      <point x="1227" y="532" type="curve" smooth="yes"/>
      <point x="1227" y="477"/>
      <point x="1222" y="427"/>
      <point x="1211" y="382" type="curve"/>
    </contour>
    <contour>
      <point x="311" y="4" type="line"/>
      <point x="238" y="47"/>
      <point x="167" y="102"/>
      <point x="111" y="179" type="curve"/>
      <point x="244" y="273" type="line"/>
      <point x="287" y="213"/>
      <point x="336" y="175"/>
      <point x="392" y="144" type="curve"/>
    </contour>
    <contour>
      <point x="841" y="144" type="line"/>
      <point x="894" y="175"/>
      <point x="940" y="209"/>
      <point x="988" y="273" type="curve"/>
      <point x="1121" y="180" type="line"/>
      <point x="1056" y="93"/>
      <point x="994" y="47"/>
      <point x="921" y="4" type="curve"/>
    </contour>
    <contour>
      <point x="616" y="-84" type="curve" smooth="yes"/>
      <point x="566" y="-84"/>
      <point x="516" y="-77"/>
      <point x="466" y="-63" type="curve"/>
      <point x="506" y="94" type="line"/>
      <point x="542" y="83"/>
      <point x="579" y="78"/>
      <point x="616" y="78" type="curve" smooth="yes"/>
      <point x="653" y="78"/>
      <point x="690" y="83"/>
      <point x="726" y="94" type="curve"/>
      <point x="766" y="-63" type="line"/>
      <point x="716" y="-77"/>
      <point x="666" y="-84"/>
    </contour>
  </outline>
</glyph>
<glyph name="uni25E0" format="1">
  <advance width="1233"/>
  <unicode hex="25E0"/>
  <outline>
    <contour>
      <point x="6" y="532" type="line" name="sh01"/>
      <point x="6" y="766"/>
      <point x="108" y="942" name="dv02"/>
      <point x="311" y="1060" type="curve" smooth="yes"/>
      <point x="416" y="1121" name="sh02"/>
      <point x="516" y="1148" name="ah02"/>
      <point x="615" y="1148" type="curve" smooth="yes"/>
      <point x="718" y="1148" name="dv01"/>
      <point x="820" y="1119"/>
      <point x="921" y="1060" type="curve" smooth="yes" name="sh03"/>
      <point x="1125" y="942"/>
      <point x="1227" y="766" name="ah01"/>
      <point x="1227" y="532" type="curve" name="sh04"/>
      <point x="1066" y="532" type="line"/>
      <point x="1066" y="712"/>
      <point x="980" y="843"/>
      <point x="841" y="922" type="curve" smooth="yes"/>
      <point x="772" y="961"/>
      <point x="692" y="986"/>
      <point x="617" y="986" type="curve" smooth="yes"/>
      <point x="541" y="986"/>
      <point x="460" y="961"/>
      <point x="392" y="922" type="curve" smooth="yes"/>
      <point x="251" y="842"/>
      <point x="167" y="705"/>
      <point x="167" y="532" type="curve"/>
    </contour>
  </outline>
</glyph>
<glyph name="uni25E1" format="1">
  <advance width="1233"/>
  <unicode hex="25E1"/>
  <outline>
    <contour>
      <point x="615" y="-84" type="curve" smooth="yes" name="dv01"/>
      <point x="516" y="-84"/>
      <point x="416" y="-57" name="sh01"/>
      <point x="311" y="4" type="curve" smooth="yes" name="sh02"/>
      <point x="108" y="121"/>
      <point x="6" y="293" name="dv02"/>
      <point x="6" y="532" type="curve"/>
      <point x="167" y="532" type="line" name="ah02"/>
      <point x="167" y="361" name="sh03"/>
      <point x="246" y="223"/>
      <point x="391" y="142" type="curve" smooth="yes"/>
      <point x="467" y="99" name="ah01"/>
      <point x="546" y="79" name="sh04"/>
      <point x="617" y="79" type="curve" smooth="yes"/>
      <point x="686" y="79"/>
      <point x="765" y="99"/>
      <point x="841" y="142" type="curve" smooth="yes"/>
      <point x="981" y="221"/>
      <point x="1066" y="353"/>
      <point x="1066" y="532" type="curve"/>
      <point x="1227" y="532" type="line"/>
      <point x="1227" y="293"/>
      <point x="1125" y="121"/>
      <point x="921" y="4" type="curve" smooth="yes"/>
      <point x="820" y="-55"/>
      <point x="718" y="-84"/>
    </contour>
  </outline>
</glyph>
<glyph name="uni25F6" format="1">
  <advance width="1233"/>
  <unicode hex="25F6"/>
  <outline>
    <contour>
      <point x="617" y="-84" type="curve" smooth="yes" name="av01"/>
      <point x="524" y="-84"/>
      <point x="413" y="-55" name="sh01"/>
      <point x="310" y="2" type="curve" smooth="yes"/>
      <point x="118" y="109" name="dv02"/>
      <point x="6" y="301"/>
      <point x="6" y="532" type="curve" smooth="yes"/>
      <point x="6" y="765"/>
      <point x="118" y="953"/>
      <point x="310" y="1062" type="curve" name="ah02"/>
      <point x="413" y="1119" name="dv04"/>
      <point x="524" y="1148" name="dv01"/>
      <point x="617" y="1148" type="curve" smooth="yes"/>
      <point x="710" y="1148" name="sh02"/>
      <point x="818" y="1120"/>
      <point x="922" y="1061" type="curve" smooth="yes"/>
      <point x="1117" y="952"/>
      <point x="1227" y="772"/>
      <point x="1227" y="532" type="curve" smooth="yes" name="dv03"/>
      <point x="1227" y="292" name="sh03"/>
      <point x="1117" y="112" name="ah01"/>
      <point x="922" y="3" type="curve" smooth="yes"/>
      <point x="818" y="-56"/>
      <point x="710" y="-84"/>
    </contour>
    <contour>
      <point x="559" y="588" type="line"/>
      <point x="1102" y="588" type="line"/>
      <point x="1074" y="905"/>
      <point x="785" y="1025"/>
      <point x="613" y="1025" type="curve" smooth="yes"/>
      <point x="540" y="1025"/>
      <point x="457" y="1003"/>
      <point x="372" y="954" type="curve" smooth="yes"/>
      <point x="209" y="860"/>
      <point x="128" y="719"/>
      <point x="128" y="532" type="curve" smooth="yes"/>
      <point x="128" y="345"/>
      <point x="209" y="204"/>
      <point x="372" y="110" type="curve" smooth="yes"/>
      <point x="436" y="73"/>
      <point x="496" y="52"/>
      <point x="559" y="43" type="curve"/>
    </contour>
    <contour>
      <point x="673" y="43" type="line"/>
      <point x="736" y="52"/>
      <point x="798" y="75"/>
      <point x="860" y="110" type="curve" smooth="yes"/>
      <point x="1009" y="195"/>
      <point x="1087" y="317"/>
      <point x="1102" y="474" type="curve"/>
      <point x="673" y="474" type="line"/>
    </contour>
  </outline>
</glyph>
